{"glyphs":{"0":{"ha":694,"x_min":71,"x_max":624,"o":"m 347 -11 q 272 -4 310 -11 q 200 21 233 3 q 141 67 167 39 q 99 130 115 96 q 77 202 83 164 q 71 278 71 240 l 71 743 q 77 819 71 781 q 99 891 83 857 q 141 953 115 925 q 200 1000 167 982 q 272 1025 233 1018 q 347 1032 310 1032 q 423 1025 385 1032 q 494 1000 461 1018 q 553 953 528 982 q 595 891 579 925 q 617 819 611 857 q 624 743 624 781 l 624 278 q 617 202 624 240 q 595 130 611 164 q 553 67 579 96 q 494 21 528 39 q 423 -4 461 3 q 347 -11 385 -11 m 225 485 l 469 676 l 469 743 q 464 799 469 771 q 442 850 458 826 q 401 886 426 874 q 347 899 375 899 q 294 886 319 899 q 252 850 268 874 q 231 799 236 826 q 225 743 225 771 l 225 485 m 347 122 q 401 135 375 122 q 442 171 426 147 q 464 222 458 194 q 469 278 469 250 l 469 536 l 225 344 l 225 278 q 231 222 225 250 q 252 171 236 194 q 294 135 268 147 q 347 122 319 122 z "},"1":{"ha":694,"x_min":75,"x_max":467,"o":"m 311 0 l 311 865 l 158 726 l 75 807 l 311 1021 l 467 1021 l 467 0 l 311 0 z "},"2":{"ha":694,"x_min":79,"x_max":618,"o":"m 82 0 l 82 1 q 83 74 82 38 q 90 146 85 110 q 104 217 94 182 q 129 285 114 253 q 165 349 144 318 q 208 407 185 379 q 259 458 232 435 q 315 504 286 482 q 372 550 344 526 q 422 603 400 574 q 453 667 443 632 q 464 739 464 703 q 462 776 464 758 q 454 813 460 794 q 440 847 449 831 q 417 875 431 863 q 385 893 403 888 q 349 899 367 899 q 300 888 324 899 q 262 858 276 878 q 240 813 247 838 q 233 763 233 788 l 233 758 l 79 758 l 79 768 q 87 838 79 803 q 111 905 94 874 q 153 962 128 936 q 210 1003 179 988 q 277 1026 242 1019 q 349 1032 313 1032 q 424 1024 386 1032 q 494 998 461 1017 q 551 950 526 979 q 592 887 576 921 q 613 815 607 853 q 618 739 618 776 q 606 649 618 693 q 571 565 594 604 q 514 492 547 525 q 446 431 481 460 q 378 369 411 401 q 317 301 344 338 q 272 222 290 264 q 246 133 253 179 l 613 133 l 613 0 l 82 0 z "},"3":{"ha":694,"x_min":68,"x_max":635,"o":"m 351 -11 q 278 -5 315 -11 q 208 17 242 1 q 148 58 175 32 q 103 115 121 83 q 76 183 85 147 q 68 256 68 218 l 68 263 l 222 263 l 222 258 q 231 206 222 232 q 256 160 239 181 q 299 131 274 140 q 351 122 325 122 q 406 134 379 122 q 450 169 433 146 q 474 221 467 193 q 481 278 481 249 q 476 327 481 303 q 460 374 471 351 q 431 413 449 396 q 390 441 413 431 q 344 454 368 451 q 294 457 319 457 l 294 590 q 339 593 317 590 q 381 606 361 596 q 417 632 401 615 q 441 669 432 649 q 454 711 450 689 q 458 756 458 733 q 453 806 458 781 q 435 852 447 831 q 399 886 422 874 q 351 899 376 899 q 305 888 328 899 q 269 856 282 876 q 250 812 256 836 q 244 764 244 788 l 244 758 l 90 758 l 90 768 q 98 838 90 804 q 121 903 106 872 q 160 960 136 935 q 216 1003 185 986 q 282 1026 247 1019 q 351 1032 317 1032 q 422 1025 388 1032 q 488 1001 457 1018 q 544 957 519 983 q 583 898 568 931 q 606 831 599 865 q 613 760 613 796 q 605 690 613 725 q 581 625 597 656 q 539 569 564 594 q 483 526 514 543 q 547 483 518 510 q 597 422 576 456 q 626 351 617 389 q 635 274 635 313 q 626 199 635 236 q 601 127 618 161 q 558 65 585 93 q 497 20 531 38 q 426 -4 464 3 q 351 -11 389 -11 z "},"4":{"ha":694,"x_min":71,"x_max":613,"o":"m 383 0 l 383 257 l 71 257 l 71 390 l 375 1021 l 525 1021 l 222 390 l 383 390 l 383 599 l 538 599 l 538 390 l 613 390 l 613 257 l 538 257 l 538 0 l 383 0 z "},"5":{"ha":694,"x_min":79,"x_max":624,"o":"m 350 -11 q 281 -5 315 -11 q 215 17 246 1 q 158 57 183 32 q 116 113 133 82 q 90 177 99 143 q 79 246 82 211 l 235 246 q 244 199 236 222 q 267 158 251 176 q 304 131 282 140 q 350 122 326 122 q 392 132 372 122 q 426 159 413 142 q 449 197 440 176 q 461 240 457 218 q 467 283 465 261 q 469 326 469 304 q 467 370 469 349 q 461 413 465 392 q 449 455 457 435 q 429 492 442 475 q 397 520 417 510 q 356 531 376 531 q 316 526 336 531 q 281 508 296 521 q 257 477 265 496 q 247 439 249 458 l 93 439 l 93 1021 l 586 1021 l 586 888 l 247 888 l 247 650 q 301 661 274 658 q 356 664 328 664 q 436 653 396 664 q 509 619 476 643 q 565 560 542 594 q 601 488 588 526 q 619 408 614 449 q 624 326 624 368 q 619 245 624 286 q 600 165 614 204 q 563 92 586 126 q 506 33 539 57 q 432 -1 472 10 q 350 -11 392 -11 z "},"6":{"ha":694,"x_min":71,"x_max":624,"o":"m 347 -11 q 267 -2 307 -11 q 194 30 228 7 q 135 85 160 53 q 97 156 111 118 q 76 233 82 193 q 71 314 71 274 q 81 433 71 374 q 108 548 90 492 q 150 659 126 604 q 200 767 174 714 l 322 1021 l 490 1021 l 339 708 q 310 647 325 678 q 283 586 296 617 q 343 626 308 613 q 414 639 378 639 q 484 626 450 639 q 543 586 518 613 q 584 526 568 560 q 608 458 600 493 q 620 386 617 422 q 624 314 624 350 q 618 233 624 274 q 598 156 613 193 q 559 85 583 118 q 501 30 535 53 q 428 -2 468 7 q 347 -11 388 -11 m 347 122 q 388 131 368 122 q 423 154 408 139 q 447 190 438 169 q 460 230 456 210 q 467 272 465 250 q 469 314 469 293 q 467 356 469 335 q 460 399 465 378 q 447 439 456 419 q 423 474 438 458 q 388 497 408 489 q 347 506 368 506 q 310 499 328 506 q 278 480 292 493 q 254 449 264 467 q 239 414 244 432 q 231 377 233 396 q 226 339 228 358 q 226 327 226 333 q 225 314 225 321 q 227 272 225 293 q 234 230 229 250 q 248 190 239 210 q 272 154 257 169 q 306 131 286 139 q 347 122 326 122 z "},"7":{"ha":694,"x_min":82,"x_max":613,"o":"m 188 0 l 453 888 l 82 888 l 82 1021 l 613 1021 l 613 888 l 347 0 l 188 0 z "},"8":{"ha":694,"x_min":71,"x_max":624,"o":"m 347 -11 q 276 -6 311 -11 q 209 15 242 0 q 150 55 176 31 q 106 110 124 79 q 79 175 88 140 q 71 246 71 210 q 83 328 71 288 q 118 403 96 368 q 169 469 140 439 q 231 525 199 499 q 176 578 201 550 q 133 640 151 607 q 103 710 114 674 q 93 786 93 747 q 101 852 93 819 q 124 914 108 885 q 163 967 139 943 q 217 1006 188 990 q 281 1026 247 1021 q 347 1032 314 1032 q 414 1026 381 1032 q 477 1006 447 1021 q 531 967 507 990 q 571 914 556 943 q 594 852 586 885 q 601 786 601 819 q 591 710 601 747 q 562 640 581 674 q 518 578 543 607 q 464 525 493 550 q 525 469 496 499 q 576 403 554 439 q 611 328 599 368 q 624 246 624 288 q 615 175 624 210 q 589 110 607 140 q 544 55 571 79 q 485 15 518 31 q 418 -6 453 0 q 347 -11 383 -11 m 347 611 q 385 647 367 628 q 417 687 403 665 q 439 733 431 708 q 447 783 447 758 q 442 826 447 806 q 423 865 436 847 q 389 890 410 882 q 347 899 368 899 q 306 890 326 899 q 272 865 285 882 q 253 826 258 847 q 247 783 247 806 q 256 733 247 758 q 278 687 264 708 q 310 647 292 665 q 347 611 328 628 m 347 122 q 396 131 372 122 q 436 157 419 139 q 461 199 453 175 q 469 247 469 222 q 459 304 469 276 q 431 356 449 332 q 392 399 414 379 q 347 436 371 419 q 302 399 324 419 q 263 356 281 379 q 235 304 246 332 q 225 247 225 276 q 233 199 225 222 q 258 157 242 175 q 299 131 275 139 q 347 122 322 122 z "},"9":{"ha":694,"x_min":71,"x_max":624,"o":"m 204 0 l 356 313 q 384 374 369 343 q 411 435 399 404 q 351 395 386 408 q 281 382 317 382 q 210 395 244 382 q 151 435 176 408 q 110 494 126 461 q 86 563 94 528 q 74 635 78 599 q 71 707 71 671 q 76 788 71 747 q 97 865 82 828 q 135 935 111 903 q 193 991 160 968 q 267 1023 226 1014 q 347 1032 307 1032 q 427 1023 388 1032 q 501 991 467 1014 q 559 935 535 968 q 598 865 583 903 q 618 788 613 828 q 624 707 624 747 q 614 588 624 647 q 586 473 604 529 q 544 362 568 417 q 494 254 521 307 l 372 0 l 204 0 m 347 515 q 385 522 367 515 q 417 541 403 528 q 440 572 431 554 q 456 607 450 589 q 464 644 461 625 q 468 682 467 663 q 469 694 468 688 q 469 707 469 700 q 467 749 469 728 q 460 791 465 771 q 447 831 456 811 q 423 867 438 851 q 388 890 408 882 q 347 899 368 899 q 306 890 326 899 q 272 867 286 882 q 248 831 257 851 q 234 791 239 811 q 227 749 229 771 q 225 707 225 728 q 227 665 225 686 q 234 622 229 643 q 248 582 239 601 q 272 547 257 563 q 306 524 286 532 q 347 515 326 515 z "},"\r":{"ha":0,"x_min":0,"x_max":0,"o":""}," ":{"ha":694,"x_min":0,"x_max":0,"o":""},"!":{"ha":694,"x_min":225,"x_max":469,"o":"m 425 394 l 269 394 l 269 1021 l 425 1021 l 425 394 m 347 -11 q 299 -3 322 -11 q 258 22 275 4 q 233 63 240 39 q 225 111 225 86 q 233 160 225 136 q 258 202 240 185 q 299 226 275 219 q 347 233 322 233 q 396 226 372 233 q 437 202 419 219 q 462 160 454 185 q 469 111 469 136 q 462 63 469 86 q 437 22 454 39 q 396 -3 419 4 q 347 -11 372 -11 z "},"\"":{"ha":694,"x_min":124,"x_max":571,"o":"m 135 614 q 126 842 129 728 q 124 1072 124 957 l 293 1072 q 290 842 293 957 q 282 614 288 728 l 135 614 m 413 614 q 404 842 407 728 q 401 1072 401 957 l 571 1072 q 568 842 571 957 q 560 614 565 728 l 413 614 z "},"#":{"ha":694,"x_min":22,"x_max":672,"o":"m 133 25 l 133 250 l 22 250 l 22 383 l 133 383 l 133 638 l 22 638 l 22 771 l 133 771 l 133 996 l 274 996 l 274 771 l 421 771 l 421 996 l 561 996 l 561 771 l 672 771 l 672 638 l 561 638 l 561 383 l 672 383 l 672 250 l 561 250 l 561 25 l 421 25 l 421 250 l 274 250 l 274 25 l 133 25 m 274 383 l 421 383 l 421 638 l 274 638 l 274 383 z "},"$":{"ha":694,"x_min":68,"x_max":624,"o":"m 279 -149 l 279 44 q 194 74 235 51 q 124 131 153 96 q 82 211 96 167 q 68 300 68 256 l 68 314 l 222 314 l 222 307 q 227 268 222 288 q 241 231 232 249 q 265 201 250 214 q 299 181 281 188 l 299 453 q 216 501 256 474 q 147 565 176 528 q 99 647 117 601 q 82 739 82 692 q 95 823 82 782 q 135 896 108 864 q 201 948 163 928 q 279 975 239 968 l 279 1171 l 415 1171 l 415 976 q 498 945 458 968 q 564 887 538 922 q 603 808 590 851 q 615 721 615 765 l 615 707 l 461 707 l 461 714 q 458 751 461 732 q 446 786 454 769 q 425 817 438 803 q 396 839 413 831 l 396 572 q 481 526 440 553 q 554 461 522 499 q 605 378 586 424 q 624 282 624 332 q 609 197 624 239 q 566 123 594 156 q 497 71 538 90 q 415 44 457 51 l 415 -149 l 279 -149 m 299 624 l 299 839 q 272 823 285 833 q 252 799 260 813 q 240 769 244 785 q 236 738 236 754 q 254 674 236 704 q 299 624 272 643 m 396 181 q 426 195 411 185 q 450 219 440 206 q 465 250 460 233 q 469 283 469 267 q 464 321 469 303 q 448 354 458 339 q 424 383 438 369 q 396 406 411 396 l 396 181 z "},"%":{"ha":694,"x_min":29,"x_max":665,"o":"m 194 500 q 131 508 163 500 q 75 538 99 517 q 40 590 51 558 q 29 653 29 621 l 29 878 q 40 941 29 910 q 75 994 51 972 q 131 1024 99 1015 q 194 1032 163 1032 q 258 1024 226 1032 q 313 994 289 1015 q 348 941 338 972 q 358 878 358 910 l 358 653 q 348 590 358 621 q 313 538 338 558 q 258 508 289 517 q 194 500 226 500 m 400 599 l 504 1021 l 654 1021 l 528 599 l 400 599 m 194 607 q 211 610 203 607 q 224 621 219 614 q 231 636 229 628 q 233 653 233 644 l 233 878 q 231 896 233 888 q 224 911 229 904 q 211 922 219 918 q 194 925 203 925 q 178 922 186 925 q 164 911 169 918 q 156 896 158 904 q 154 878 154 888 l 154 653 q 156 636 154 644 q 164 621 158 628 q 178 610 169 614 q 194 607 186 607 m 500 -11 q 437 -3 468 -11 q 381 27 406 6 q 347 80 357 49 q 336 143 336 111 l 336 368 q 347 431 336 400 q 381 483 357 463 q 437 513 406 504 q 500 521 468 521 q 564 513 532 521 q 619 483 596 504 q 654 431 643 463 q 665 368 665 400 l 665 143 q 654 80 665 111 q 619 27 643 49 q 564 -3 596 6 q 500 -11 532 -11 m 42 0 l 167 422 l 294 422 l 190 0 l 42 0 m 500 96 q 517 99 508 96 q 531 110 525 103 q 538 125 536 117 q 540 143 540 133 l 540 368 q 538 385 540 376 q 531 400 536 393 q 517 410 525 407 q 500 414 508 414 q 483 410 492 414 q 470 400 475 407 q 463 385 465 393 q 461 368 461 376 l 461 143 q 463 125 461 133 q 470 110 465 117 q 483 99 475 103 q 500 96 492 96 z "},"&":{"ha":694,"x_min":71,"x_max":682,"o":"m 311 -11 q 242 -3 276 -11 q 180 25 208 6 q 131 72 151 44 q 97 132 110 100 q 77 198 83 164 q 71 267 71 232 q 81 344 71 306 q 108 418 90 383 q 152 483 126 453 q 208 539 178 513 q 172 600 189 569 q 140 663 154 631 q 117 731 125 696 q 108 800 108 765 q 122 889 108 844 q 166 967 136 933 q 239 1016 196 1000 q 328 1032 282 1032 q 416 1016 372 1032 q 490 967 460 1000 q 533 889 519 933 q 547 800 547 844 q 535 716 547 757 q 500 638 522 675 q 448 571 478 601 q 386 514 418 540 q 392 503 389 508 q 399 492 396 497 l 493 329 l 538 446 l 681 446 l 593 222 q 585 203 589 213 q 576 182 581 193 l 682 0 l 521 0 l 478 75 q 420 19 454 42 q 347 -8 386 -3 l 339 -10 l 319 -11 l 311 -11 m 314 629 q 348 665 332 646 q 376 705 364 683 q 395 750 389 726 q 401 799 401 774 q 398 835 401 817 q 386 870 394 854 q 362 897 378 886 q 328 907 346 907 q 293 897 308 907 q 269 869 278 886 q 256 835 260 853 q 253 797 253 817 q 258 753 253 775 q 272 709 264 731 q 292 668 281 688 q 314 629 303 649 m 331 114 q 383 130 358 114 q 424 169 407 146 l 279 419 q 233 349 250 388 q 215 267 215 310 q 218 231 215 249 q 226 197 221 214 q 242 164 232 179 q 265 137 251 149 q 295 119 278 125 q 331 114 313 114 z "},"'":{"ha":694,"x_min":263,"x_max":432,"o":"m 274 614 q 265 842 268 728 q 263 1072 263 957 l 432 1072 q 429 842 432 957 q 421 614 426 728 l 274 614 z "},"(":{"ha":694,"x_min":146,"x_max":582,"o":"m 506 -224 q 393 -145 446 -190 q 299 -45 340 -100 q 227 72 257 10 q 179 201 197 135 q 153 335 161 267 q 146 472 146 404 q 153 609 146 540 q 179 744 161 678 q 227 872 197 810 q 299 990 257 935 q 393 1090 340 1044 q 506 1168 446 1135 l 582 1053 q 453 944 510 1010 q 363 802 397 879 q 315 641 329 725 q 301 472 301 557 q 315 303 301 388 q 363 142 329 219 q 453 0 397 65 q 582 -108 510 -65 l 506 -224 z "},")":{"ha":694,"x_min":113,"x_max":549,"o":"m 189 -224 l 113 -108 q 241 0 185 -65 q 331 142 297 65 q 379 303 365 219 q 393 472 393 388 q 379 641 393 557 q 331 802 365 725 q 241 944 297 879 q 113 1053 185 1010 l 189 1168 q 301 1090 249 1135 q 396 990 354 1044 q 467 872 438 935 q 515 744 497 810 q 541 609 533 678 q 549 472 549 540 q 541 335 549 404 q 515 201 533 267 q 467 72 497 135 q 396 -45 438 10 q 301 -145 354 -100 q 189 -224 249 -190 z "},"*":{"ha":694,"x_min":46,"x_max":649,"o":"m 239 567 l 113 644 l 249 813 l 46 868 l 94 996 l 281 925 l 269 1133 l 425 1133 l 414 925 l 600 996 l 649 868 l 446 813 l 582 644 l 456 567 l 347 733 l 239 567 z "},"+":{"ha":694,"x_min":82,"x_max":613,"o":"m 278 196 l 278 413 l 82 413 l 82 532 l 278 532 l 278 749 l 417 749 l 417 532 l 613 532 l 613 413 l 417 413 l 417 196 l 278 196 z "},",":{"ha":694,"x_min":183,"x_max":482,"o":"m 285 -299 l 183 -211 q 271 -119 231 -168 q 338 -11 311 -69 q 286 -1 311 -10 q 244 28 261 8 q 219 73 226 47 q 213 124 213 99 q 220 178 213 151 q 247 224 228 204 q 293 251 267 243 q 347 260 319 260 q 402 251 375 260 q 448 222 429 242 q 474 176 467 203 q 482 121 482 149 q 466 3 482 61 q 424 -107 450 -54 q 362 -208 397 -160 q 285 -299 326 -256 z "},"-":{"ha":694,"x_min":82,"x_max":613,"o":"m 82 406 l 82 539 l 613 539 l 613 406 l 82 406 z "},".":{"ha":694,"x_min":213,"x_max":482,"o":"m 347 -11 q 293 -3 319 -11 q 247 24 267 6 q 220 70 228 43 q 213 124 213 97 q 220 178 213 151 q 247 224 228 204 q 293 251 267 243 q 347 260 319 260 q 401 251 375 260 q 447 224 428 243 q 474 178 467 204 q 482 124 482 151 q 474 70 482 97 q 447 24 467 43 q 401 -3 428 6 q 347 -11 375 -11 z "},"/":{"ha":694,"x_min":69,"x_max":625,"o":"m 69 -199 l 467 1143 l 625 1143 l 228 -199 l 69 -199 z "},":":{"ha":694,"x_min":213,"x_max":482,"o":"m 347 -11 q 293 -3 319 -11 q 247 24 267 6 q 220 70 228 43 q 213 124 213 97 q 220 178 213 151 q 247 224 228 204 q 293 251 267 243 q 347 260 319 260 q 401 251 375 260 q 447 224 428 243 q 474 178 467 204 q 482 124 482 151 q 474 70 482 97 q 447 24 467 43 q 401 -3 428 6 q 347 -11 375 -11 m 347 463 q 293 471 319 463 q 247 499 267 479 q 220 544 228 518 q 213 599 213 571 q 220 652 213 625 q 247 698 228 679 q 293 725 267 717 q 347 733 319 733 q 401 725 375 733 q 447 698 428 717 q 474 652 467 679 q 482 599 482 625 q 474 544 482 571 q 447 499 467 518 q 401 471 428 479 q 347 463 375 463 z "},";":{"ha":694,"x_min":183,"x_max":482,"o":"m 285 -299 l 183 -211 q 271 -119 231 -168 q 338 -11 311 -69 q 286 -1 311 -10 q 244 28 261 8 q 219 73 226 47 q 213 124 213 99 q 220 178 213 151 q 247 224 228 204 q 293 251 267 243 q 347 260 319 260 q 402 251 375 260 q 448 222 429 242 q 474 176 467 203 q 482 121 482 149 q 466 3 482 61 q 424 -107 450 -54 q 362 -208 397 -160 q 285 -299 326 -256 m 347 463 q 293 471 319 463 q 247 499 267 479 q 220 544 228 518 q 213 599 213 571 q 220 652 213 625 q 247 698 228 679 q 293 725 267 717 q 347 733 319 733 q 401 725 375 733 q 447 698 428 717 q 474 652 467 679 q 482 599 482 625 q 474 544 482 571 q 447 499 467 518 q 401 471 428 479 q 347 463 375 463 z "},"<":{"ha":694,"x_min":82,"x_max":649,"o":"m 576 94 l 82 401 l 82 543 l 576 850 l 649 747 l 199 472 l 649 197 l 576 94 z "},"=":{"ha":694,"x_min":82,"x_max":613,"o":"m 82 539 l 82 660 l 613 660 l 613 539 l 82 539 m 613 285 l 82 285 l 82 406 l 613 406 l 613 285 z "},">":{"ha":694,"x_min":46,"x_max":613,"o":"m 118 94 l 46 197 l 496 472 l 46 747 l 118 850 l 613 543 l 613 401 l 118 94 z "},"?":{"ha":694,"x_min":79,"x_max":613,"o":"m 269 333 q 272 396 269 365 q 282 456 274 426 q 304 514 290 486 q 337 567 318 542 q 376 616 356 593 q 415 664 397 639 q 446 717 433 689 q 458 778 458 746 q 451 824 458 801 q 429 864 444 846 q 392 890 414 882 q 346 899 369 899 q 298 888 321 899 q 260 858 275 878 q 240 813 246 838 q 233 765 233 789 l 233 758 l 79 758 l 79 771 q 87 842 79 807 q 111 907 94 876 q 153 963 128 938 q 209 1003 178 988 q 276 1026 240 1019 q 346 1032 311 1032 q 415 1026 381 1032 q 481 1006 450 1021 q 538 966 513 990 q 581 911 564 942 q 605 847 597 881 q 613 778 613 813 q 606 717 613 747 q 589 657 600 686 q 562 601 578 628 q 527 551 546 575 q 488 503 508 526 q 451 453 467 479 q 430 396 435 426 q 425 333 425 365 l 269 333 m 347 -11 q 299 -3 322 -11 q 258 22 275 4 q 233 63 240 39 q 225 111 225 86 q 233 160 225 136 q 258 202 240 185 q 299 226 275 219 q 347 233 322 233 q 396 226 372 233 q 437 202 419 219 q 462 160 454 185 q 469 111 469 136 q 462 63 469 86 q 437 22 454 39 q 396 -3 419 4 q 347 -11 372 -11 z "},"@":{"ha":694,"x_min":82,"x_max":613,"o":"m 546 -111 l 347 -111 q 272 -103 310 -111 q 203 -76 235 -96 q 147 -27 171 -57 q 108 38 122 3 q 88 110 93 72 q 82 185 82 147 l 82 760 q 88 835 82 797 q 108 907 93 872 q 147 972 122 942 q 203 1021 171 1001 q 272 1048 235 1040 q 347 1056 310 1056 q 421 1048 385 1056 q 489 1022 457 1040 q 545 975 521 1003 q 585 913 569 947 q 606 843 600 879 q 613 769 613 807 l 613 322 q 610 274 613 299 q 599 225 607 249 q 576 181 590 201 q 542 145 563 160 q 498 124 522 131 q 449 118 474 118 q 399 124 424 118 q 355 145 375 131 q 321 181 335 160 q 299 225 307 201 q 287 274 290 249 q 283 322 283 299 l 283 564 q 287 615 283 590 q 299 664 290 640 q 323 708 308 688 q 359 743 338 729 q 405 763 381 757 q 454 769 429 769 l 488 769 q 479 827 488 799 q 452 878 471 856 q 405 912 433 901 q 347 922 376 922 q 288 910 317 922 q 240 875 258 899 q 214 821 221 851 q 207 760 207 790 l 207 185 q 214 124 207 154 q 240 69 221 93 q 288 34 258 46 q 347 22 317 22 l 546 22 l 546 -111 m 449 225 q 465 232 458 225 q 476 248 472 239 q 483 266 481 257 q 485 285 485 275 q 487 304 486 294 q 488 322 488 314 l 488 663 l 454 663 q 431 650 440 663 q 416 623 421 638 q 410 594 411 608 q 408 564 408 579 l 408 322 q 409 304 408 314 q 411 285 410 294 q 415 266 413 275 q 421 248 417 257 q 432 232 425 239 q 449 225 439 225 z "},"A":{"ha":694,"x_min":51,"x_max":643,"o":"m 51 0 l 258 1021 l 436 1021 l 643 0 l 485 0 l 446 228 l 249 228 l 210 0 l 51 0 m 422 361 l 368 681 q 358 738 363 710 q 347 796 353 767 q 337 738 342 767 q 326 681 332 710 l 272 361 l 422 361 z "},"B":{"ha":694,"x_min":82,"x_max":635,"o":"m 326 0 l 82 0 l 82 1021 l 326 1021 q 399 1014 363 1021 q 469 990 436 1007 q 527 947 501 974 q 569 887 553 919 q 591 817 585 854 q 597 744 597 781 q 592 681 597 713 q 574 622 588 650 q 538 572 560 594 q 489 532 517 549 q 553 493 524 517 q 601 438 582 469 q 627 369 619 406 q 635 294 635 332 q 627 214 635 254 q 600 138 619 174 q 550 75 581 103 q 483 30 519 47 q 407 6 447 13 q 326 0 367 0 m 236 594 l 326 594 q 378 606 353 594 q 417 640 403 618 q 438 689 432 663 q 443 742 443 715 q 438 794 443 768 q 417 842 432 821 q 377 876 401 864 q 326 888 353 888 l 236 888 l 236 594 m 236 133 l 326 133 q 389 144 358 133 q 441 178 419 154 q 472 233 463 201 q 481 297 481 265 q 472 360 481 329 q 442 416 463 392 q 390 451 421 440 q 326 461 358 461 l 236 461 l 236 133 z "},"C":{"ha":694,"x_min":71,"x_max":615,"o":"m 343 -11 q 267 -3 306 -11 q 197 23 229 4 q 138 72 164 42 q 97 136 113 101 q 76 209 82 171 q 71 285 71 247 l 71 736 q 76 812 71 774 q 97 885 82 850 q 138 949 113 919 q 197 998 164 979 q 267 1024 229 1017 q 343 1032 306 1032 q 415 1026 379 1032 q 482 1003 450 1019 q 540 962 514 988 q 582 905 565 936 q 607 838 599 874 q 615 767 615 803 l 615 758 l 461 758 l 461 763 q 454 813 461 788 q 432 858 447 838 q 392 888 417 878 q 343 899 368 899 q 306 893 324 899 q 274 875 288 888 q 250 846 260 863 q 235 811 240 829 q 227 774 229 793 q 225 736 225 756 l 225 285 q 227 247 225 265 q 235 210 229 228 q 250 175 240 192 q 274 146 260 158 q 306 128 288 133 q 343 122 324 122 q 392 133 368 122 q 432 163 417 143 q 454 208 447 183 q 461 258 461 233 l 461 263 l 615 263 l 615 254 q 607 183 615 218 q 582 116 599 147 q 540 59 565 85 q 482 17 514 33 q 415 -5 450 1 q 343 -11 379 -11 z "},"D":{"ha":694,"x_min":82,"x_max":624,"o":"m 299 0 l 82 0 l 82 1021 l 299 1021 q 384 1014 342 1021 q 465 989 426 1007 q 536 941 504 971 q 588 873 568 911 q 616 792 608 835 q 624 707 624 750 l 624 314 q 616 228 624 271 q 588 148 608 186 q 536 80 568 110 q 465 32 504 50 q 384 7 426 14 q 299 0 342 0 m 236 133 l 299 133 q 346 138 322 133 q 390 154 369 143 q 426 183 410 165 q 451 222 442 200 q 465 267 461 243 q 469 314 469 290 l 469 707 q 465 754 469 731 q 451 799 461 778 q 426 838 442 821 q 390 867 410 856 q 346 883 369 878 q 299 888 322 888 l 236 888 l 236 133 z "},"E":{"ha":694,"x_min":93,"x_max":613,"o":"m 93 0 l 93 1021 l 613 1021 l 613 888 l 247 888 l 247 597 l 533 597 l 533 464 l 247 464 l 247 133 l 613 133 l 613 0 l 93 0 z "},"F":{"ha":694,"x_min":124,"x_max":613,"o":"m 124 0 l 124 1021 l 613 1021 l 613 888 l 278 888 l 278 597 l 533 597 l 533 464 l 278 464 l 278 0 l 124 0 z "},"G":{"ha":694,"x_min":71,"x_max":615,"o":"m 275 -11 q 209 0 242 -11 q 152 35 176 11 q 112 88 128 58 q 87 151 96 118 q 74 217 78 183 q 71 285 71 251 l 71 736 q 76 812 71 774 q 97 885 82 850 q 138 949 113 919 q 197 998 164 979 q 267 1024 229 1017 q 343 1032 306 1032 q 415 1026 379 1032 q 482 1003 450 1019 q 540 962 514 988 q 582 905 565 936 q 607 838 599 874 q 615 767 615 803 l 615 758 l 461 758 l 461 763 q 454 813 461 788 q 432 858 447 838 q 392 888 417 878 q 343 899 368 899 q 306 893 324 899 q 274 875 288 888 q 250 846 260 863 q 235 811 240 829 q 227 774 229 793 q 225 736 225 756 l 225 285 q 227 248 225 267 q 235 211 229 229 q 249 176 240 193 q 272 147 258 160 q 304 128 286 135 q 342 122 322 122 q 379 128 361 122 q 411 147 397 135 q 434 176 425 160 q 449 211 443 193 q 456 248 454 229 q 458 285 458 267 l 458 431 l 347 431 l 347 564 l 613 564 l 613 0 l 468 0 l 468 168 q 446 100 461 133 q 406 41 431 67 q 346 2 381 15 q 275 -11 311 -11 z "},"H":{"ha":694,"x_min":82,"x_max":613,"o":"m 82 0 l 82 1021 l 236 1021 l 236 590 l 458 590 l 458 1021 l 613 1021 l 613 0 l 458 0 l 458 457 l 236 457 l 236 0 l 82 0 z "},"I":{"ha":694,"x_min":104,"x_max":590,"o":"m 104 0 l 104 133 l 269 133 l 269 888 l 104 888 l 104 1021 l 590 1021 l 590 888 l 425 888 l 425 133 l 590 133 l 590 0 l 104 0 z "},"J":{"ha":694,"x_min":58,"x_max":569,"o":"m 314 -11 q 245 -4 279 -11 q 181 19 211 3 q 126 63 150 36 q 88 120 103 89 q 65 185 72 151 q 58 254 58 219 l 58 263 l 214 263 l 214 258 q 219 211 214 235 q 235 167 224 188 q 269 135 247 147 q 314 122 290 122 q 349 129 332 122 q 377 150 365 136 q 396 181 389 164 q 407 215 403 197 q 413 249 411 232 q 415 285 415 267 l 415 888 l 249 888 l 249 1021 l 569 1021 l 569 285 q 565 210 569 247 q 546 140 560 174 q 509 76 532 106 q 455 26 486 46 q 388 -3 424 6 q 314 -11 351 -11 z "},"K":{"ha":694,"x_min":104,"x_max":635,"o":"m 469 0 l 299 407 l 258 335 l 258 0 l 104 0 l 104 1021 l 258 1021 l 258 608 l 339 767 l 465 1021 l 635 1021 l 379 556 l 635 0 l 469 0 z "},"L":{"ha":694,"x_min":124,"x_max":621,"o":"m 124 0 l 124 1021 l 278 1021 l 278 133 l 621 133 l 621 0 l 124 0 z "},"M":{"ha":694,"x_min":58,"x_max":636,"o":"m 58 0 l 58 1021 l 222 1021 l 347 519 l 472 1021 l 636 1021 l 636 0 l 492 0 l 492 204 q 493 346 492 275 q 499 487 494 417 q 508 628 503 557 q 517 769 513 699 l 400 307 l 294 307 l 178 769 q 187 628 182 699 q 196 487 192 557 q 201 346 200 417 q 203 204 203 275 l 203 0 l 58 0 z "},"N":{"ha":694,"x_min":82,"x_max":613,"o":"m 82 0 l 82 1021 l 242 1021 l 479 288 q 470 368 475 328 q 463 449 465 408 q 459 531 460 490 q 458 613 458 572 l 458 1021 l 613 1021 l 613 0 l 453 0 l 215 733 q 224 653 219 693 q 232 572 229 613 q 235 490 235 531 q 236 408 236 449 l 236 0 l 82 0 z "},"O":{"ha":694,"x_min":71,"x_max":624,"o":"m 347 -11 q 270 -3 308 -11 q 199 23 232 4 q 140 71 165 42 q 99 135 114 100 q 77 208 83 171 q 71 285 71 246 l 71 736 q 77 813 71 775 q 99 885 83 850 q 140 950 114 921 q 199 998 165 979 q 270 1024 232 1017 q 347 1032 308 1032 q 424 1024 386 1032 q 496 998 463 1017 q 555 950 529 979 q 596 885 581 921 q 617 813 611 850 q 624 736 624 775 l 624 285 q 617 208 624 246 q 596 135 611 171 q 555 71 581 100 q 496 23 529 42 q 424 -3 463 4 q 347 -11 386 -11 m 347 122 q 385 128 367 122 q 419 146 404 133 q 443 175 433 158 q 459 210 453 192 q 467 247 465 228 q 469 285 469 265 l 469 736 q 467 774 469 756 q 459 811 465 793 q 443 846 453 829 q 419 875 433 863 q 385 893 404 888 q 347 899 367 899 q 309 893 328 899 q 276 875 290 888 q 251 846 261 863 q 235 811 242 829 q 227 774 229 793 q 225 736 225 756 l 225 285 q 227 247 225 265 q 235 210 229 228 q 251 175 242 192 q 276 146 261 158 q 309 128 290 133 q 347 122 328 122 z "},"P":{"ha":694,"x_min":103,"x_max":635,"o":"m 257 0 l 103 0 l 103 1021 l 354 1021 q 433 1013 393 1021 q 506 984 472 1004 q 566 933 540 964 q 608 865 592 901 q 629 790 624 829 q 635 710 635 750 q 629 630 635 669 q 608 554 624 590 q 566 487 592 518 q 506 435 540 456 q 433 407 472 415 q 354 399 393 399 l 257 399 l 257 0 m 257 532 l 354 532 q 394 538 375 532 q 429 558 414 544 q 454 590 444 572 q 470 628 464 608 q 478 669 476 649 q 481 710 481 689 q 478 751 481 731 q 470 791 476 771 q 454 829 464 811 q 429 861 444 847 q 394 881 414 875 q 354 888 375 888 l 257 888 l 257 532 z "},"Q":{"ha":694,"x_min":71,"x_max":624,"o":"m 546 -262 q 477 -257 511 -262 q 412 -236 443 -251 q 355 -196 381 -221 q 313 -140 329 -171 q 290 -76 297 -110 q 283 -6 283 -42 q 219 13 250 -1 q 164 47 189 26 q 120 96 139 68 q 90 155 101 124 q 75 219 79 186 q 71 285 71 251 l 71 736 q 77 813 71 775 q 99 885 83 850 q 140 950 114 921 q 199 998 165 979 q 270 1024 232 1017 q 347 1032 308 1032 q 424 1024 386 1032 q 496 998 463 1017 q 555 950 529 979 q 596 885 581 921 q 617 813 611 850 q 624 736 624 775 l 624 285 q 620 224 624 254 q 607 164 617 193 q 581 108 597 135 q 544 59 565 81 q 495 22 522 38 q 438 0 468 7 q 443 -49 438 -25 q 463 -91 449 -72 q 500 -119 478 -110 q 546 -129 522 -129 l 583 -129 l 583 -262 l 546 -262 m 347 122 q 385 128 367 122 q 419 146 404 133 q 443 175 433 158 q 459 210 453 192 q 467 247 465 228 q 469 285 469 265 l 469 736 q 467 774 469 756 q 459 811 465 793 q 443 846 453 829 q 419 875 433 863 q 385 893 404 888 q 347 899 367 899 q 309 893 328 899 q 276 875 290 888 q 251 846 261 863 q 235 811 242 829 q 227 774 229 793 q 225 736 225 756 l 225 285 q 227 247 225 265 q 235 210 229 228 q 251 175 242 192 q 276 146 261 158 q 309 128 290 133 q 347 122 328 122 z "},"R":{"ha":694,"x_min":82,"x_max":646,"o":"m 481 0 l 300 399 l 236 399 l 236 0 l 82 0 l 82 1021 l 354 1021 q 431 1012 393 1021 q 503 982 469 1003 q 560 930 536 961 q 599 863 585 899 q 618 788 613 826 q 624 710 624 749 q 616 619 624 664 q 588 535 608 575 q 534 463 568 494 q 458 415 500 431 l 646 0 l 481 0 m 236 532 l 354 532 q 392 540 374 532 q 425 561 411 547 q 447 594 439 575 q 460 631 456 613 q 467 670 465 650 q 469 710 469 690 q 467 749 469 729 q 460 788 465 769 q 447 826 456 807 q 425 858 439 844 q 392 880 411 872 q 354 888 374 888 l 236 888 l 236 532 z "},"S":{"ha":694,"x_min":68,"x_max":624,"o":"m 346 -11 q 274 -6 310 -11 q 206 16 239 0 q 147 56 174 32 q 102 112 119 81 q 76 178 85 143 q 68 250 68 214 l 68 263 l 222 263 l 222 257 q 230 206 222 231 q 254 160 238 181 q 295 131 271 140 q 346 122 319 122 q 396 131 371 122 q 438 160 421 140 q 462 204 454 179 q 469 254 469 229 q 456 321 469 289 q 418 377 442 353 q 365 418 394 401 q 304 451 335 435 q 245 485 274 467 q 192 528 217 504 q 146 578 167 551 q 111 637 125 606 q 90 701 97 668 q 82 768 82 735 q 90 839 82 804 q 113 905 97 874 q 155 962 129 936 q 212 1003 181 988 q 278 1026 243 1019 q 349 1032 314 1032 q 419 1026 383 1032 q 485 1003 454 1019 q 542 963 517 988 q 583 906 567 938 q 608 840 600 875 q 615 771 615 806 l 615 758 l 461 758 l 461 764 q 455 813 461 789 q 434 858 449 838 q 397 888 419 878 q 349 899 374 899 q 301 889 324 899 q 263 860 278 879 q 242 816 249 840 q 236 767 236 792 q 250 701 236 733 q 288 644 264 669 q 341 603 311 619 q 401 570 371 586 q 459 535 431 554 q 513 494 488 517 q 559 443 539 471 q 594 385 579 415 q 616 321 608 354 q 624 253 624 288 q 615 181 624 217 q 590 114 607 146 q 546 57 572 82 q 487 17 519 32 q 418 -5 454 1 q 346 -11 382 -11 z "},"T":{"ha":694,"x_min":74,"x_max":621,"o":"m 269 0 l 269 888 l 74 888 l 74 1021 l 621 1021 l 621 888 l 425 888 l 425 0 l 269 0 z "},"U":{"ha":694,"x_min":82,"x_max":613,"o":"m 347 -11 q 272 -3 310 -11 q 203 24 235 4 q 147 73 171 43 q 108 138 122 103 q 88 210 93 172 q 82 285 82 247 l 82 1021 l 236 1021 l 236 285 q 238 248 236 267 q 245 212 240 229 q 258 178 250 194 q 280 148 267 161 q 311 128 293 135 q 347 122 329 122 q 383 128 365 122 q 415 148 401 135 q 436 178 428 161 q 449 212 444 194 q 456 248 454 229 q 458 285 458 267 l 458 1021 l 613 1021 l 613 285 q 607 210 613 247 q 587 138 601 172 q 548 73 572 103 q 492 24 524 43 q 422 -3 460 4 q 347 -11 385 -11 z "},"V":{"ha":694,"x_min":51,"x_max":643,"o":"m 258 0 l 51 1021 l 210 1021 l 326 340 q 337 283 332 311 q 347 225 342 254 q 358 283 353 254 q 368 340 363 311 l 485 1021 l 643 1021 l 436 0 l 258 0 z "},"W":{"ha":694,"x_min":36,"x_max":658,"o":"m 153 0 l 36 1021 l 181 1021 l 226 299 l 285 735 l 410 735 l 468 299 l 514 1021 l 658 1021 l 542 0 l 417 0 l 347 506 l 278 0 l 153 0 z "},"X":{"ha":694,"x_min":53,"x_max":642,"o":"m 53 0 l 275 511 l 53 1021 l 221 1021 l 347 693 l 474 1021 l 642 1021 l 419 510 l 642 0 l 474 0 l 347 328 l 221 0 l 53 0 z "},"Y":{"ha":694,"x_min":46,"x_max":649,"o":"m 269 0 l 269 426 l 46 1021 l 211 1021 l 347 617 l 483 1021 l 649 1021 l 425 426 l 425 0 l 269 0 z "},"Z":{"ha":694,"x_min":82,"x_max":613,"o":"m 82 0 l 82 133 l 435 888 l 82 888 l 82 1021 l 613 1021 l 613 888 l 260 133 l 613 133 l 613 0 l 82 0 z "},"[":{"ha":694,"x_min":157,"x_max":560,"o":"m 560 -199 l 157 -199 l 157 1143 l 560 1143 l 560 1010 l 313 1010 l 313 -65 l 560 -65 l 560 -199 z "},"\\":{"ha":694,"x_min":69,"x_max":625,"o":"m 467 -199 l 69 1143 l 228 1143 l 625 -199 l 467 -199 z "},"]":{"ha":694,"x_min":135,"x_max":538,"o":"m 135 -199 l 135 -65 l 382 -65 l 382 1010 l 135 1010 l 135 1143 l 538 1143 l 538 -199 l 135 -199 z "},"^":{"ha":694,"x_min":31,"x_max":664,"o":"m 167 613 l 31 689 l 267 1026 l 428 1026 l 664 689 l 528 613 l 347 900 l 167 613 z "},"_":{"ha":694,"x_min":82,"x_max":613,"o":"m 82 -133 l 82 0 l 613 0 l 613 -133 l 82 -133 z "},"`":{"ha":694,"x_min":106,"x_max":493,"o":"m 388 736 l 106 1038 l 235 1133 l 493 815 l 388 736 z "},"a":{"ha":694,"x_min":71,"x_max":613,"o":"m 275 -11 q 192 2 233 -11 q 123 46 151 15 q 83 117 94 76 q 71 200 71 158 q 80 273 71 238 q 111 338 89 308 q 164 388 133 367 q 229 420 194 408 q 301 436 264 432 q 374 440 338 440 l 458 440 l 458 488 q 451 533 458 511 q 428 570 444 554 q 390 593 413 586 q 346 600 368 600 q 306 596 325 600 q 269 580 286 592 q 243 549 253 568 q 233 511 233 531 l 233 508 l 79 508 l 79 515 q 89 578 79 547 q 117 637 99 610 q 162 683 135 664 q 219 713 189 701 q 281 729 249 725 q 346 733 314 733 q 415 728 381 733 q 480 710 449 724 q 538 673 511 696 q 581 620 564 650 q 606 556 599 590 q 613 488 613 522 l 613 0 l 458 0 l 458 114 q 429 62 447 86 q 387 21 411 38 q 333 -3 363 4 q 275 -11 304 -11 m 342 122 q 389 131 365 122 q 429 158 413 139 q 452 201 446 176 q 458 250 458 225 l 458 307 l 374 307 q 341 306 357 307 q 309 300 325 304 q 278 290 293 296 q 250 273 263 283 q 231 247 238 263 q 225 215 225 232 q 235 175 225 194 q 262 143 244 156 q 300 126 279 131 q 342 122 321 122 z "},"b":{"ha":694,"x_min":82,"x_max":624,"o":"m 419 -11 q 358 -2 389 -11 q 304 26 328 7 q 264 72 281 46 q 236 126 247 97 l 236 0 l 82 0 l 82 1021 l 236 1021 l 236 596 q 264 651 247 625 q 304 696 281 676 q 358 724 328 715 q 419 733 389 733 q 485 723 453 733 q 542 690 517 713 q 583 638 567 667 q 608 576 599 608 q 620 511 617 544 q 624 444 624 478 l 624 278 q 620 211 624 244 q 608 146 617 178 q 583 85 599 114 q 542 33 567 56 q 485 -1 517 10 q 419 -11 453 -11 m 353 122 q 406 135 381 122 q 444 172 431 149 q 464 223 458 196 q 469 278 469 250 l 469 444 q 464 499 469 472 q 444 550 458 526 q 406 587 431 574 q 353 600 381 600 q 300 587 325 600 q 261 550 275 574 q 242 499 247 526 q 236 444 236 472 l 236 278 q 242 223 236 250 q 261 172 247 196 q 300 135 275 149 q 353 122 325 122 z "},"c":{"ha":694,"x_min":71,"x_max":615,"o":"m 343 -11 q 268 -4 306 -11 q 198 22 231 3 q 140 69 165 40 q 98 131 114 97 q 76 203 82 165 q 71 278 71 240 l 71 444 q 76 519 71 482 q 98 591 82 557 q 140 653 114 625 q 198 701 165 682 q 268 726 231 719 q 343 733 306 733 q 415 727 379 733 q 482 705 450 721 q 540 664 514 689 q 582 607 565 639 q 607 540 599 575 q 615 469 615 506 l 615 460 l 461 460 l 461 464 q 454 515 461 490 q 432 560 447 540 q 392 590 417 579 q 343 600 368 600 q 290 587 315 600 q 251 550 265 574 q 231 499 236 526 q 225 444 225 472 l 225 278 q 231 223 225 250 q 251 172 236 196 q 290 135 265 149 q 343 122 315 122 q 392 133 368 122 q 432 163 417 143 q 454 207 447 182 q 461 258 461 232 l 461 263 l 615 263 l 615 253 q 607 182 615 217 q 582 115 599 147 q 540 58 565 83 q 482 17 514 33 q 415 -5 450 1 q 343 -11 379 -11 z "},"d":{"ha":694,"x_min":71,"x_max":613,"o":"m 275 -11 q 210 -1 242 -11 q 153 33 178 10 q 112 85 128 56 q 87 146 96 114 q 74 211 78 178 q 71 278 71 244 l 71 444 q 74 511 71 478 q 87 576 78 544 q 112 638 96 608 q 153 690 128 667 q 210 723 178 713 q 275 733 242 733 q 336 724 306 733 q 390 696 367 715 q 431 651 414 676 q 458 596 447 625 l 458 1021 l 613 1021 l 613 0 l 458 0 l 458 126 q 431 72 447 97 q 390 26 414 46 q 336 -2 367 7 q 275 -11 306 -11 m 342 122 q 394 135 369 122 q 433 172 419 149 q 453 223 447 196 q 458 278 458 250 l 458 444 q 453 499 458 472 q 433 550 447 526 q 394 587 419 574 q 342 600 369 600 q 289 587 314 600 q 250 550 264 574 q 231 499 236 526 q 225 444 225 472 l 225 278 q 231 223 225 250 q 250 172 236 196 q 289 135 264 149 q 342 122 314 122 z "},"e":{"ha":694,"x_min":71,"x_max":624,"o":"m 347 -11 q 271 -4 308 -11 q 200 21 233 3 q 141 67 167 39 q 99 131 115 96 q 77 203 83 165 q 71 278 71 240 l 71 444 q 77 520 71 482 q 99 592 83 558 q 141 655 115 626 q 200 701 167 683 q 272 726 233 719 q 347 733 310 733 q 423 726 385 733 q 494 701 461 719 q 553 655 528 683 q 595 592 579 626 q 617 520 611 558 q 624 444 624 482 l 624 294 l 225 294 l 225 278 q 231 222 225 250 q 251 171 236 194 q 293 135 267 147 q 347 122 319 122 q 389 126 368 122 q 427 142 410 131 q 455 174 444 154 q 467 214 465 193 l 621 214 q 611 149 621 181 q 582 89 601 117 q 535 42 563 61 q 477 10 508 22 q 413 -7 446 -3 q 347 -11 381 -11 m 225 428 l 469 428 l 469 444 q 464 500 469 472 q 442 551 458 528 q 401 588 426 575 q 347 600 375 600 q 294 588 319 600 q 252 551 268 575 q 231 500 236 528 q 225 444 225 472 l 225 428 z "},"f":{"ha":694,"x_min":82,"x_max":642,"o":"m 229 0 l 229 532 l 82 532 l 82 665 l 229 665 l 229 793 q 233 852 229 822 q 249 910 238 882 q 278 962 260 938 q 321 1002 296 986 q 376 1025 346 1018 q 435 1032 406 1032 q 517 1019 476 1032 q 585 978 557 1007 q 628 908 614 949 q 642 828 642 868 l 642 824 l 486 824 l 486 825 q 484 850 486 838 q 476 874 482 863 q 459 892 469 885 q 435 899 449 899 q 408 885 419 899 q 392 857 397 872 q 385 826 388 842 q 383 793 383 810 l 383 665 l 586 665 l 586 532 l 383 532 l 383 0 l 229 0 z "},"g":{"ha":694,"x_min":71,"x_max":613,"o":"m 344 -310 q 281 -306 313 -310 q 220 -290 250 -301 q 164 -261 190 -279 q 119 -217 138 -243 q 90 -160 100 -192 q 79 -99 79 -129 l 233 -99 q 245 -133 235 -117 q 272 -160 256 -150 q 306 -173 288 -169 q 344 -176 325 -176 q 397 -162 372 -176 q 435 -126 421 -149 q 453 -76 449 -103 q 458 -21 458 -49 l 458 126 q 431 72 447 97 q 390 26 414 46 q 336 -2 367 7 q 275 -11 306 -11 q 210 -1 242 -11 q 153 33 178 10 q 112 85 128 56 q 87 146 96 114 q 74 211 78 178 q 71 278 71 244 l 71 444 q 74 511 71 478 q 87 576 78 544 q 112 638 96 608 q 153 690 128 667 q 210 723 178 713 q 275 733 242 733 q 336 724 306 733 q 390 696 367 715 q 431 651 414 676 q 458 596 447 625 l 458 722 l 613 722 l 613 -21 q 607 -95 613 -58 q 586 -167 601 -132 q 546 -230 571 -201 q 488 -276 521 -258 q 419 -302 456 -294 q 344 -310 382 -310 m 342 122 q 394 135 369 122 q 433 172 419 149 q 453 223 447 196 q 458 278 458 250 l 458 444 q 453 499 458 472 q 433 550 447 526 q 394 587 419 574 q 342 600 369 600 q 289 587 314 600 q 250 550 264 574 q 231 499 236 526 q 225 444 225 472 l 225 278 q 231 223 225 250 q 250 172 236 196 q 289 135 264 149 q 342 122 314 122 z "},"h":{"ha":694,"x_min":82,"x_max":613,"o":"m 82 0 l 82 1021 l 236 1021 l 236 597 q 263 651 247 625 q 302 697 279 678 q 354 724 325 715 q 414 733 383 733 q 478 722 447 733 q 534 688 510 711 q 574 636 558 665 q 598 575 589 607 q 610 510 607 543 q 613 444 613 478 l 613 0 l 458 0 l 458 444 q 456 481 458 463 q 449 516 454 499 q 435 549 444 533 q 413 576 426 564 q 383 594 400 589 q 347 600 365 600 q 312 594 329 600 q 281 576 294 589 q 259 549 268 564 q 245 516 250 533 q 238 481 240 499 q 236 444 236 463 l 236 0 l 82 0 z "},"i":{"ha":694,"x_min":104,"x_max":590,"o":"m 104 0 l 104 133 l 279 133 l 279 589 l 124 589 l 124 722 l 435 722 l 435 133 l 590 133 l 590 0 l 104 0 m 354 819 q 310 826 332 819 q 272 849 288 833 q 250 886 257 864 q 243 931 243 908 q 250 975 243 953 q 272 1013 257 997 q 310 1035 288 1028 q 354 1042 332 1042 q 399 1035 376 1042 q 436 1013 421 1028 q 458 975 451 997 q 465 931 465 953 q 458 886 465 908 q 436 849 451 864 q 399 826 421 833 q 354 819 376 819 z "},"j":{"ha":694,"x_min":4,"x_max":536,"o":"m 257 -310 q 193 -305 225 -310 q 132 -286 161 -300 q 78 -251 103 -272 q 37 -201 53 -229 q 13 -141 21 -172 q 4 -78 4 -110 l 160 -78 q 166 -116 160 -97 q 186 -149 172 -135 q 219 -170 200 -164 q 257 -176 238 -176 q 292 -169 275 -176 q 320 -149 308 -162 q 339 -118 332 -135 q 350 -84 346 -101 q 356 -49 354 -67 q 357 -14 357 -32 l 357 589 l 192 589 l 192 722 l 513 722 l 513 -14 q 508 -88 513 -51 q 489 -159 503 -125 q 452 -223 475 -193 q 399 -273 429 -253 q 331 -301 368 -293 q 257 -310 294 -310 m 424 819 q 379 826 401 819 q 342 849 357 833 q 319 886 326 864 q 313 931 313 908 q 319 975 313 953 q 342 1013 326 997 q 379 1035 357 1028 q 424 1042 401 1042 q 468 1035 446 1042 q 506 1013 490 1028 q 528 975 521 997 q 535 931 535 953 q 528 886 535 908 q 506 849 521 864 q 468 826 490 833 q 424 819 446 819 z "},"k":{"ha":694,"x_min":104,"x_max":635,"o":"m 104 0 l 104 1021 l 258 1021 l 258 421 l 457 722 l 635 722 l 396 392 l 635 0 l 463 0 l 311 272 l 258 200 l 258 0 l 104 0 z "},"l":{"ha":694,"x_min":104,"x_max":590,"o":"m 104 0 l 104 133 l 279 133 l 279 888 l 124 888 l 124 1021 l 435 1021 l 435 133 l 590 133 l 590 0 l 104 0 z "},"m":{"ha":694,"x_min":58,"x_max":636,"o":"m 58 0 l 58 722 l 193 722 l 193 650 q 208 682 199 667 q 230 709 217 697 q 260 727 243 721 q 294 733 276 733 q 336 724 315 733 q 371 699 357 715 q 393 662 385 682 q 407 621 401 642 q 419 662 411 642 q 441 699 428 682 q 474 724 454 715 q 517 733 494 733 q 558 724 538 733 q 593 699 579 715 q 615 662 607 682 q 628 620 624 642 q 635 577 633 599 q 636 533 636 556 l 636 0 l 501 0 l 501 533 q 500 559 501 546 q 494 585 499 572 q 481 607 490 597 q 458 617 471 617 q 436 607 446 617 q 422 585 426 597 q 417 559 418 572 q 415 533 415 546 l 415 0 l 279 0 l 279 533 q 278 559 279 546 q 272 585 276 572 q 258 607 268 597 q 236 617 249 617 q 214 607 224 617 q 200 585 204 597 q 194 559 196 572 q 193 533 193 546 l 193 0 l 58 0 z "},"n":{"ha":694,"x_min":82,"x_max":613,"o":"m 82 0 l 82 722 l 236 722 l 236 597 q 263 651 247 625 q 302 697 279 678 q 354 724 325 715 q 414 733 383 733 q 478 722 447 733 q 534 688 510 711 q 574 636 558 665 q 598 575 589 607 q 610 510 607 543 q 613 444 613 478 l 613 0 l 458 0 l 458 444 q 456 481 458 463 q 449 516 454 499 q 435 549 444 533 q 413 576 426 564 q 383 594 400 589 q 347 600 365 600 q 312 594 329 600 q 281 576 294 589 q 259 549 268 564 q 245 516 250 533 q 238 481 240 499 q 236 444 236 463 l 236 0 l 82 0 z "},"o":{"ha":694,"x_min":71,"x_max":624,"o":"m 347 -11 q 272 -4 310 -11 q 200 21 233 3 q 141 67 167 39 q 99 130 115 96 q 77 202 83 164 q 71 278 71 240 l 71 444 q 77 520 71 482 q 99 592 83 558 q 141 655 115 626 q 200 701 167 683 q 272 726 233 719 q 347 733 310 733 q 423 726 385 733 q 494 701 461 719 q 553 655 528 683 q 595 592 579 626 q 617 520 611 558 q 624 444 624 482 l 624 278 q 617 202 624 240 q 595 130 611 164 q 553 67 579 96 q 494 21 528 39 q 423 -4 461 3 q 347 -11 385 -11 m 347 122 q 401 135 375 122 q 442 171 426 147 q 464 222 458 194 q 469 278 469 250 l 469 444 q 464 500 469 472 q 442 551 458 528 q 401 588 426 575 q 347 600 375 600 q 294 588 319 600 q 252 551 268 575 q 231 500 236 528 q 225 444 225 472 l 225 278 q 231 222 225 250 q 252 171 236 194 q 294 135 268 147 q 347 122 319 122 z "},"p":{"ha":694,"x_min":82,"x_max":624,"o":"m 82 -299 l 82 722 l 236 722 l 236 596 q 264 651 247 625 q 304 696 281 676 q 358 724 328 715 q 419 733 389 733 q 485 723 453 733 q 542 690 517 713 q 583 638 567 667 q 608 576 599 608 q 620 511 617 544 q 624 444 624 478 l 624 278 q 620 211 624 244 q 608 146 617 178 q 583 85 599 114 q 542 33 567 56 q 485 -1 517 10 q 419 -11 453 -11 q 358 -2 389 -11 q 304 26 328 7 q 264 72 281 46 q 236 126 247 97 l 236 -299 l 82 -299 m 353 122 q 406 135 381 122 q 444 172 431 149 q 464 223 458 196 q 469 278 469 250 l 469 444 q 464 499 469 472 q 444 550 458 526 q 406 587 431 574 q 353 600 381 600 q 300 587 325 600 q 261 550 275 574 q 242 499 247 526 q 236 444 236 472 l 236 278 q 242 223 236 250 q 261 172 247 196 q 300 135 275 149 q 353 122 325 122 z "},"q":{"ha":694,"x_min":71,"x_max":613,"o":"m 458 -299 l 458 126 q 431 72 447 97 q 390 26 414 46 q 336 -2 367 7 q 275 -11 306 -11 q 210 -1 242 -11 q 153 33 178 10 q 112 85 128 56 q 87 146 96 114 q 74 211 78 178 q 71 278 71 244 l 71 444 q 74 511 71 478 q 87 576 78 544 q 112 638 96 608 q 153 690 128 667 q 210 723 178 713 q 275 733 242 733 q 336 724 306 733 q 390 696 367 715 q 431 651 414 676 q 458 596 447 625 l 458 722 l 613 722 l 613 -299 l 458 -299 m 342 122 q 394 135 369 122 q 433 172 419 149 q 453 223 447 196 q 458 278 458 250 l 458 444 q 453 499 458 472 q 433 550 447 526 q 394 587 419 574 q 342 600 369 600 q 289 587 314 600 q 250 550 264 574 q 231 499 236 526 q 225 444 225 472 l 225 278 q 231 223 225 250 q 250 172 236 196 q 289 135 264 149 q 342 122 314 122 z "},"r":{"ha":694,"x_min":160,"x_max":639,"o":"m 160 0 l 160 722 l 315 722 l 315 572 q 337 631 324 603 q 371 683 350 660 q 421 720 392 707 q 481 733 450 733 q 533 725 507 733 q 578 699 558 717 q 609 657 597 681 q 628 608 621 633 q 637 556 635 582 q 639 503 639 529 l 483 503 q 481 536 483 519 q 472 567 479 553 q 451 591 465 582 q 419 600 436 600 q 378 587 397 600 q 349 555 360 574 q 331 515 338 536 q 322 471 325 493 q 317 427 318 449 q 315 383 315 406 l 315 0 l 160 0 z "},"s":{"ha":694,"x_min":79,"x_max":613,"o":"m 346 -11 q 283 -8 314 -11 q 222 6 251 -4 q 166 33 193 15 q 119 74 139 50 q 90 129 100 99 q 79 190 79 160 l 79 200 l 233 200 l 233 197 q 244 162 233 178 q 272 137 256 146 q 308 125 289 128 q 346 122 326 122 q 383 125 364 122 q 418 135 401 128 q 447 158 435 143 q 458 192 458 174 q 444 233 458 214 q 410 262 429 251 q 369 279 390 272 q 326 293 347 286 q 283 308 304 300 q 242 326 263 315 q 203 349 222 336 q 168 376 185 361 q 138 408 151 390 q 114 447 124 426 q 99 488 104 467 q 93 532 93 510 q 103 592 93 563 q 131 647 113 622 q 174 688 149 671 q 228 716 200 706 q 288 730 257 726 q 349 733 318 733 q 410 730 379 733 q 469 716 440 726 q 523 688 497 706 q 567 646 549 671 q 595 592 586 621 q 604 532 604 563 l 604 522 l 450 522 l 450 525 q 440 559 450 543 q 416 584 431 575 q 384 597 401 593 q 349 600 367 600 q 315 597 332 600 q 282 586 297 594 q 257 563 267 578 q 247 531 247 549 q 262 490 247 508 q 296 461 276 472 q 337 443 315 450 q 380 430 358 436 q 422 415 401 424 q 463 397 443 407 q 502 374 483 386 q 538 347 521 361 q 568 315 554 332 q 592 277 582 297 q 607 235 601 257 q 613 190 613 213 q 602 129 613 160 q 572 74 592 99 q 526 33 553 50 q 469 6 499 15 q 409 -8 440 -4 q 346 -11 378 -11 z "},"t":{"ha":694,"x_min":97,"x_max":647,"o":"m 426 -11 q 362 -3 394 -11 q 302 25 329 6 q 256 72 275 44 q 226 131 238 100 q 211 196 215 163 q 207 263 207 229 l 207 589 l 97 589 l 97 722 l 207 722 l 207 1021 l 363 1021 l 363 722 l 583 722 l 583 589 l 363 589 l 363 263 q 363 233 363 247 q 366 206 364 219 q 372 178 368 192 q 383 152 376 164 q 401 131 389 140 q 426 122 413 122 q 452 131 440 122 q 471 151 464 139 q 481 176 478 163 q 488 202 485 189 q 491 229 490 215 q 492 256 492 243 l 492 263 l 647 263 l 647 250 q 642 186 647 218 q 624 124 636 154 q 594 68 613 94 q 549 23 575 42 q 491 -3 522 4 q 426 -11 460 -11 z "},"u":{"ha":694,"x_min":82,"x_max":613,"o":"m 281 -11 q 216 0 247 -11 q 160 34 185 11 q 121 86 136 57 q 97 147 106 115 q 85 212 88 179 q 82 278 82 244 l 82 722 l 236 722 l 236 278 q 238 242 236 260 q 245 206 240 224 q 259 174 250 189 q 281 146 268 158 q 312 128 294 133 q 347 122 329 122 q 383 128 365 122 q 413 146 400 133 q 435 174 426 158 q 449 206 444 189 q 456 242 454 224 q 458 278 458 260 l 458 722 l 613 722 l 613 0 l 458 0 l 458 125 q 431 71 447 97 q 392 26 415 44 q 340 -2 369 7 q 281 -11 311 -11 z "},"v":{"ha":694,"x_min":51,"x_max":643,"o":"m 258 0 l 51 722 l 213 722 l 331 240 q 339 206 335 224 q 347 171 343 188 q 356 206 351 188 q 364 240 360 224 l 482 722 l 643 722 l 436 0 l 258 0 z "},"w":{"ha":694,"x_min":36,"x_max":658,"o":"m 153 0 l 36 722 l 182 722 l 226 214 l 285 519 l 410 519 l 468 214 l 513 722 l 658 722 l 542 0 l 417 0 l 347 358 l 278 0 l 153 0 z "},"x":{"ha":694,"x_min":61,"x_max":633,"o":"m 240 0 l 61 0 l 272 361 l 61 722 l 240 722 l 347 507 l 454 722 l 633 722 l 422 361 l 633 0 l 454 0 l 347 215 l 240 0 z "},"y":{"ha":694,"x_min":65,"x_max":629,"o":"m 188 -299 q 217 -198 203 -249 q 244 -97 231 -147 l 269 -4 l 65 722 l 225 722 l 351 192 l 469 722 l 629 722 l 347 -299 l 188 -299 z "},"z":{"ha":694,"x_min":82,"x_max":613,"o":"m 82 0 l 82 133 l 450 589 l 82 589 l 82 722 l 613 722 l 613 589 l 244 133 l 613 133 l 613 0 l 82 0 z "},"{":{"ha":694,"x_min":108,"x_max":560,"o":"m 560 -212 q 479 -208 519 -212 q 400 -190 439 -203 q 326 -157 361 -178 q 265 -106 292 -136 q 224 -37 238 -76 q 211 42 211 1 q 222 119 211 82 q 251 192 233 157 l 251 193 q 271 238 263 215 q 279 285 279 261 q 273 324 279 304 q 253 358 267 343 q 223 381 240 372 q 187 396 206 390 q 148 403 168 401 q 108 406 128 406 l 108 539 q 148 541 128 539 q 187 549 168 543 q 223 563 206 554 q 253 587 240 572 q 273 621 267 601 q 279 660 279 640 q 271 706 279 683 q 251 751 263 729 l 251 753 q 222 825 233 788 q 211 903 211 863 q 224 982 211 943 q 265 1051 238 1021 q 326 1101 292 1081 q 400 1135 361 1122 q 479 1152 439 1147 q 560 1157 519 1157 l 560 1024 q 517 1022 538 1024 q 476 1014 496 1019 q 436 999 456 1008 q 401 976 417 990 q 376 943 385 963 q 367 903 367 924 q 374 860 367 881 q 389 822 381 840 q 406 783 397 803 q 422 743 415 764 q 431 701 428 722 q 433 660 433 681 q 426 599 433 629 q 400 545 418 569 q 356 503 382 521 q 303 472 331 485 q 356 442 331 460 q 400 399 382 424 q 426 345 418 375 q 433 285 433 315 q 431 243 433 264 q 422 201 428 222 q 406 161 415 181 q 389 123 397 142 q 374 84 381 104 q 367 42 367 64 q 376 1 367 21 q 401 -32 385 -18 q 436 -55 417 -46 q 476 -69 456 -64 q 517 -77 496 -75 q 560 -79 538 -79 l 560 -212 z "},"|":{"ha":694,"x_min":269,"x_max":425,"o":"m 269 -199 l 269 1143 l 425 1143 l 425 -199 l 269 -199 z "},"}":{"ha":694,"x_min":135,"x_max":586,"o":"m 135 -212 l 135 -79 q 178 -77 157 -79 q 219 -69 199 -75 q 258 -55 239 -64 q 294 -32 278 -46 q 319 1 310 -18 q 328 42 328 21 q 321 84 328 64 q 306 123 314 104 q 288 161 297 142 q 273 201 279 181 q 264 243 267 222 q 261 285 261 264 q 269 345 261 315 q 294 399 276 375 q 338 442 313 424 q 392 472 364 460 q 338 503 364 485 q 294 545 313 521 q 269 599 276 569 q 261 660 261 629 q 264 701 261 681 q 273 743 267 722 q 288 783 279 764 q 306 822 297 803 q 321 860 314 840 q 328 903 328 881 q 319 943 328 924 q 294 976 310 963 q 258 999 278 990 q 219 1014 239 1008 q 178 1022 199 1019 q 135 1024 157 1024 l 135 1157 q 215 1152 175 1157 q 294 1135 256 1147 q 368 1101 333 1122 q 430 1051 403 1081 q 470 982 457 1021 q 483 903 483 943 q 472 825 483 863 q 443 753 461 788 l 443 751 q 424 706 432 729 q 415 660 415 683 q 422 621 415 640 q 441 587 428 601 q 472 563 454 572 q 508 549 489 554 q 547 541 526 543 q 586 539 567 539 l 586 406 q 547 403 567 406 q 508 396 526 401 q 472 381 489 390 q 441 358 454 372 q 422 324 428 343 q 415 285 415 304 q 424 238 415 261 q 443 193 432 215 l 443 192 q 472 119 461 157 q 483 42 483 82 q 470 -37 483 1 q 430 -106 457 -76 q 368 -157 403 -136 q 294 -190 333 -178 q 215 -208 256 -203 q 135 -212 175 -212 z "},"~":{"ha":694,"x_min":17,"x_max":678,"o":"m 450 253 q 430 255 440 253 q 410 260 419 257 q 393 267 401 263 q 376 276 385 271 q 361 288 368 282 q 348 301 354 294 q 335 315 342 307 q 322 331 328 324 q 311 347 317 339 q 301 363 306 356 q 291 379 296 371 q 280 397 286 388 q 268 415 274 407 q 257 431 263 424 q 244 448 251 439 q 236 458 236 457 q 240 458 238 458 q 246 457 243 457 q 249 458 247 457 q 253 458 251 458 l 253 457 q 247 451 253 456 q 237 439 242 446 q 228 427 232 432 q 222 418 225 422 q 217 410 219 414 q 213 401 215 406 q 207 390 210 396 q 201 379 204 385 q 194 367 197 374 q 188 355 192 361 q 182 342 185 349 q 176 327 179 335 q 169 311 172 319 q 162 294 165 303 q 155 277 158 286 q 147 258 151 268 l 17 303 q 39 356 28 331 q 60 403 50 382 q 81 444 71 425 q 101 478 92 463 q 126 513 111 494 q 158 545 140 531 q 199 569 176 560 q 244 578 221 578 q 265 576 254 578 q 284 572 275 575 q 301 565 293 568 q 318 555 310 561 q 333 543 326 549 q 347 531 340 538 q 360 516 353 524 q 372 500 367 508 q 383 484 378 492 q 394 468 389 476 q 403 451 399 460 q 415 433 408 443 q 426 415 421 424 q 438 399 432 407 q 451 383 443 392 q 458 374 458 375 l 442 374 q 447 380 442 375 q 458 392 453 385 q 466 403 463 399 q 472 413 469 408 q 477 421 475 417 q 482 430 479 425 q 488 440 485 435 q 494 451 490 446 q 500 463 497 457 q 506 476 503 469 q 513 490 510 483 q 519 505 515 497 q 526 520 522 513 q 533 536 529 528 q 540 553 536 544 q 547 572 543 563 l 678 529 q 656 475 667 500 q 634 428 644 450 q 613 387 624 406 q 593 352 603 368 q 569 318 583 336 q 536 286 554 300 q 496 263 518 272 q 450 253 474 253 z "},"":{"ha":694,"x_min":0,"x_max":0,"o":""},"":{"ha":694,"x_min":225,"x_max":469,"o":"m 347 489 q 299 496 322 489 q 258 520 275 503 q 233 562 240 538 q 225 611 225 586 q 233 660 225 636 q 258 701 240 683 q 299 726 275 718 q 347 733 322 733 q 396 726 372 733 q 437 701 419 718 q 462 660 454 683 q 469 611 469 636 q 462 562 469 586 q 437 520 454 538 q 396 496 419 503 q 347 489 372 489 m 269 -299 l 269 328 l 425 328 l 425 -299 l 269 -299 z "},"":{"ha":694,"x_min":71,"x_max":615,"o":"m 279 -149 l 279 -7 q 217 12 247 -1 q 163 46 188 25 q 119 94 138 67 q 90 151 101 121 q 75 213 79 181 q 71 278 71 246 l 71 444 q 75 509 71 476 q 90 572 79 542 q 119 628 101 601 q 163 676 138 656 q 217 710 188 697 q 279 729 247 724 l 279 872 l 415 872 l 415 728 q 498 696 458 719 q 564 637 538 672 q 603 558 590 601 q 615 469 615 514 l 615 460 l 461 460 l 461 464 q 457 501 461 483 q 445 537 453 519 q 425 568 438 554 q 396 589 413 582 l 396 133 q 425 154 413 140 q 445 185 438 168 q 457 221 453 203 q 461 258 461 239 l 461 263 l 615 263 l 615 253 q 603 165 615 208 q 564 85 590 121 q 498 26 538 50 q 415 -6 458 3 l 415 -149 l 279 -149 m 299 129 l 299 593 q 264 567 279 585 q 240 530 249 550 q 228 488 232 510 q 225 444 225 467 l 225 278 q 228 234 225 256 q 240 192 232 213 q 264 155 249 172 q 299 129 279 138 z "},"":{"ha":694,"x_min":82,"x_max":613,"o":"m 82 0 l 82 133 q 129 190 110 158 q 159 256 149 221 q 172 326 169 290 q 175 400 175 363 l 175 458 l 83 458 l 83 563 l 175 563 l 175 807 q 179 865 175 836 q 195 921 183 894 q 226 969 207 947 q 271 1006 246 992 q 324 1026 296 1021 q 382 1032 353 1032 q 466 1017 425 1032 q 535 969 507 1001 q 576 894 564 936 q 589 808 589 851 l 589 797 l 433 797 l 433 803 q 432 832 433 817 q 425 862 431 847 q 408 888 419 876 q 382 899 397 899 q 356 888 367 899 q 339 865 344 878 q 331 837 333 851 q 329 807 329 822 l 329 563 l 449 563 l 449 458 l 329 458 l 329 400 q 328 331 329 365 q 322 262 328 296 q 304 195 315 228 q 276 133 293 163 l 613 133 l 613 0 l 82 0 z "},"":{"ha":694,"x_min":38,"x_max":657,"o":"m 568 169 l 485 253 q 418 229 453 236 q 347 222 383 222 q 276 229 311 222 q 210 253 242 236 l 126 169 l 38 244 l 128 335 q 104 401 111 367 q 97 472 97 436 q 104 543 97 508 q 128 610 111 578 l 38 700 l 126 775 l 210 692 q 276 715 242 708 q 347 722 311 722 q 418 715 383 722 q 485 692 453 708 l 568 775 l 657 700 l 567 610 q 590 543 583 578 q 597 472 597 508 q 590 401 597 436 q 567 335 583 367 l 657 244 l 568 169 m 347 331 q 399 340 374 331 q 442 371 425 350 q 466 419 460 392 q 472 472 472 446 q 466 526 472 499 q 442 574 460 553 q 399 604 425 594 q 347 614 374 614 q 295 604 321 614 q 252 574 269 594 q 228 526 235 553 q 222 472 222 499 q 228 419 222 446 q 252 371 235 392 q 295 340 269 350 q 347 331 321 331 z "},"":{"ha":694,"x_min":46,"x_max":649,"o":"m 269 0 l 269 153 l 82 153 l 82 256 l 269 256 l 269 357 l 82 357 l 82 460 l 257 460 l 46 1021 l 211 1021 l 347 617 l 483 1021 l 649 1021 l 438 460 l 613 460 l 613 357 l 425 357 l 425 256 l 613 256 l 613 153 l 425 153 l 425 0 l 269 0 z "},"":{"ha":694,"x_min":269,"x_max":425,"o":"m 269 539 l 269 1143 l 425 1143 l 425 539 l 269 539 m 269 -199 l 269 406 l 425 406 l 425 -199 l 269 -199 z "},"":{"ha":694,"x_min":79,"x_max":615,"o":"m 346 -210 q 275 -203 310 -210 q 208 -181 240 -197 q 151 -138 176 -164 q 110 -81 126 -112 q 87 -15 94 -50 q 79 56 79 19 l 79 64 l 233 64 l 233 60 q 240 10 233 35 q 260 -34 246 -14 q 298 -65 275 -54 q 346 -76 321 -76 q 394 -65 371 -76 q 432 -32 418 -53 q 452 14 446 -11 q 458 64 458 39 q 444 122 458 94 q 407 169 431 150 q 354 199 383 189 q 296 219 325 210 q 239 242 267 229 q 186 272 211 254 q 141 313 161 289 q 108 364 121 336 q 88 422 94 392 q 82 482 82 451 q 87 539 82 511 q 101 594 92 567 q 126 645 111 621 q 161 690 140 669 q 126 729 142 707 q 101 775 111 751 q 86 825 90 799 q 82 876 82 851 q 90 949 82 914 q 113 1017 97 985 q 153 1077 128 1050 q 209 1122 178 1104 q 276 1147 240 1140 q 349 1154 313 1154 q 419 1148 385 1154 q 486 1125 454 1142 q 543 1083 518 1108 q 584 1026 568 1057 q 608 960 600 994 q 615 889 615 925 l 615 881 l 461 881 l 461 885 q 455 934 461 910 q 434 978 449 958 q 397 1010 419 999 q 349 1021 374 1021 q 300 1009 324 1021 q 263 976 276 997 q 242 931 249 956 q 236 881 236 906 q 250 822 236 850 q 288 775 264 794 q 340 745 311 756 q 399 725 369 735 q 456 703 428 715 q 508 673 483 690 q 553 632 533 656 q 587 581 574 608 q 606 523 600 553 q 613 463 613 493 q 608 406 613 433 q 593 351 603 378 q 569 299 583 324 q 533 254 554 275 q 568 215 553 238 q 594 169 583 193 q 608 119 604 146 q 613 68 613 93 q 605 -5 613 31 q 582 -73 597 -40 q 542 -133 567 -106 q 485 -178 517 -160 q 418 -203 454 -196 q 346 -210 382 -210 m 394 329 q 424 352 411 338 q 444 384 436 367 q 455 420 451 401 q 458 457 458 439 q 444 515 458 488 q 408 563 431 543 q 356 593 385 582 q 300 615 328 604 q 271 592 283 607 q 251 560 258 578 q 240 524 243 543 q 236 488 236 506 q 250 429 236 457 q 287 382 264 401 q 338 351 310 363 q 394 329 367 340 z "},"":{"ha":694,"x_min":108,"x_max":586,"o":"m 486 831 q 446 836 465 831 q 412 856 426 842 q 392 890 397 871 q 386 931 386 910 q 392 971 386 951 q 412 1005 397 990 q 446 1025 426 1019 q 486 1031 465 1031 q 526 1025 507 1031 q 560 1005 546 1019 q 581 971 575 990 q 586 931 586 951 q 581 890 586 910 q 560 856 575 871 q 526 836 546 842 q 486 831 507 831 m 208 831 q 168 836 188 831 q 134 856 149 842 q 114 890 119 871 q 108 931 108 910 q 114 971 108 951 q 134 1005 119 990 q 168 1025 149 1019 q 208 1031 188 1031 q 249 1025 229 1031 q 283 1005 268 1019 q 303 971 297 990 q 308 931 308 951 q 303 890 308 910 q 283 856 297 871 q 249 836 268 842 q 208 831 229 831 z "},"":{"ha":694,"x_min":139,"x_max":547,"o":"m 289 440 q 230 449 260 440 q 179 480 200 458 q 149 531 158 501 q 139 590 139 560 q 147 643 139 617 q 171 691 154 669 q 211 726 188 713 q 260 749 235 740 q 313 760 286 757 q 367 763 340 763 l 424 763 l 424 793 q 417 820 424 807 q 400 842 411 833 q 374 853 389 850 q 346 856 360 856 q 321 853 333 856 q 297 846 308 851 q 277 829 285 840 q 269 806 269 818 l 269 804 l 144 804 l 144 810 q 163 877 144 844 q 210 929 181 910 q 276 956 240 949 q 346 963 311 963 q 396 959 371 963 q 444 947 421 956 q 488 923 467 938 q 522 888 508 908 q 542 842 536 867 q 547 793 547 818 l 547 449 l 424 449 l 424 528 q 402 490 415 507 q 371 462 389 474 q 332 445 353 450 q 289 440 311 440 m 343 547 q 374 551 358 547 q 401 567 390 556 q 418 593 413 578 q 424 624 424 608 l 424 656 l 367 656 q 335 653 351 656 q 303 647 318 651 q 276 630 288 642 q 264 601 264 618 q 272 577 264 589 q 291 558 279 565 q 316 549 303 551 q 343 547 329 547 m 147 260 l 147 346 l 547 346 l 547 260 l 147 260 z "},"":{"ha":694,"x_min":42,"x_max":654,"o":"m 546 118 q 503 210 526 165 q 450 298 479 256 q 385 377 421 340 q 308 443 350 414 l 308 501 q 385 567 350 531 q 450 647 421 604 q 503 734 479 689 q 546 826 526 779 l 654 789 q 574 621 621 703 q 461 472 526 539 q 574 324 526 406 q 654 156 621 242 l 546 118 m 281 118 q 238 210 261 165 q 185 298 214 256 q 120 377 156 340 q 43 443 85 414 l 43 501 q 120 567 85 531 q 185 647 156 604 q 238 734 214 689 q 281 826 261 779 l 389 789 q 308 621 356 703 q 196 472 261 539 q 308 324 261 406 q 389 156 356 242 l 281 118 z "},"":{"ha":694,"x_min":82,"x_max":613,"o":"m 472 181 l 472 413 l 82 413 l 82 532 l 613 532 l 613 181 l 472 181 z "},"":{"ha":694,"x_min":82,"x_max":613,"o":"m 82 406 l 82 539 l 613 539 l 613 406 l 82 406 z "},"":{"ha":694,"x_min":18,"x_max":676,"o":"m 225 714 l 225 1122 l 356 1122 q 405 1113 381 1122 q 445 1085 429 1104 q 467 1041 461 1065 q 474 992 474 1017 q 471 954 474 972 q 460 920 468 936 q 439 891 451 904 q 410 869 426 878 l 483 714 l 390 714 l 322 860 l 310 860 l 310 714 l 225 714 m 310 933 l 356 933 q 372 940 365 933 q 383 955 379 946 q 388 973 386 964 q 389 992 389 982 q 388 1010 389 1000 q 383 1028 386 1019 q 372 1042 379 1036 q 356 1049 365 1049 l 310 1049 l 310 933 m 347 589 q 259 597 303 589 q 176 624 215 604 q 105 676 136 644 q 53 747 74 707 q 26 830 33 786 q 18 918 18 874 q 26 1006 18 963 q 53 1090 33 1050 q 105 1160 74 1129 q 176 1212 136 1192 q 259 1240 215 1232 q 347 1247 303 1247 q 435 1240 392 1247 q 519 1212 479 1232 q 590 1160 558 1192 q 641 1090 621 1129 q 669 1006 661 1050 q 676 918 676 963 q 669 830 676 874 q 641 747 661 786 q 590 676 621 707 q 519 624 558 644 q 435 597 479 604 q 347 589 392 589 m 347 663 q 414 669 381 663 q 476 691 447 675 q 528 732 506 707 q 566 788 551 757 q 585 851 581 818 q 590 918 590 885 q 585 985 590 951 q 566 1049 581 1018 q 528 1104 551 1079 q 476 1145 506 1129 q 414 1167 447 1161 q 347 1174 381 1174 q 281 1167 314 1174 q 218 1145 247 1161 q 166 1104 189 1129 q 128 1049 143 1079 q 109 985 114 1018 q 104 918 104 951 q 109 851 104 885 q 128 788 114 818 q 166 732 143 757 q 218 691 189 707 q 281 669 247 675 q 347 663 314 663 z "},"":{"ha":694,"x_min":82,"x_max":613,"o":"m 613 876 l 82 876 l 82 985 l 613 985 l 613 876 z "},"":{"ha":694,"x_min":171,"x_max":524,"o":"m 347 733 q 276 744 311 733 q 217 779 242 754 q 181 839 192 804 q 171 910 171 874 q 181 981 171 946 q 217 1040 192 1015 q 276 1076 242 1065 q 347 1086 311 1086 q 418 1076 383 1086 q 478 1040 453 1065 q 513 981 503 1015 q 524 910 524 946 q 513 839 524 874 q 478 779 503 804 q 418 744 453 754 q 347 733 383 733 m 347 846 q 372 849 360 846 q 394 862 385 853 q 408 884 404 871 q 411 910 411 897 q 408 935 411 922 q 394 957 404 947 q 372 970 385 967 q 347 974 360 974 q 322 970 335 974 q 300 957 310 967 q 287 935 290 947 q 283 910 283 922 q 287 884 283 897 q 300 862 290 871 q 322 849 310 853 q 347 846 335 846 z "},"":{"ha":694,"x_min":82,"x_max":613,"o":"m 278 196 l 278 413 l 82 413 l 82 532 l 278 532 l 278 749 l 417 749 l 417 532 l 613 532 l 613 413 l 417 413 l 417 196 l 278 196 m 82 0 l 82 121 l 613 121 l 613 0 l 82 0 z "},"":{"ha":694,"x_min":144,"x_max":551,"o":"m 147 449 l 147 450 q 149 511 147 481 q 156 572 150 542 q 172 631 161 603 q 200 686 183 660 q 238 735 217 713 q 282 778 258 758 q 332 813 306 797 q 380 851 358 829 q 414 901 401 872 q 426 961 426 931 q 423 997 426 979 q 410 1031 419 1015 q 383 1055 400 1046 q 349 1064 367 1064 q 317 1058 332 1064 q 290 1041 301 1053 q 274 1013 279 1029 q 269 982 269 997 l 269 979 l 144 979 l 144 985 q 160 1061 144 1024 q 203 1124 175 1099 q 271 1160 232 1150 q 349 1171 310 1171 q 431 1158 390 1171 q 499 1115 471 1144 q 540 1044 528 1085 q 551 961 551 1003 q 544 899 551 929 q 519 841 536 868 q 480 792 503 814 q 433 750 457 769 q 384 710 408 731 q 339 667 360 690 q 303 615 318 643 q 282 556 289 586 l 547 556 l 547 449 l 147 449 z "},"":{"ha":694,"x_min":138,"x_max":564,"o":"m 350 440 q 270 451 310 440 q 200 487 231 461 q 153 550 169 513 q 138 628 138 588 l 138 633 l 263 633 l 263 631 q 269 597 263 614 q 288 569 275 581 q 317 553 300 558 q 350 549 333 549 q 386 555 368 549 q 416 576 404 561 q 433 608 428 590 q 439 644 439 626 q 429 693 439 669 q 401 733 419 717 q 357 755 382 750 q 307 760 332 760 l 307 868 q 352 873 329 868 q 391 893 375 878 q 415 931 407 908 q 422 975 422 953 q 419 1008 422 992 q 406 1037 415 1024 q 381 1057 396 1050 q 350 1064 367 1064 q 320 1058 335 1064 q 296 1040 306 1051 q 282 1013 286 1028 q 278 982 278 997 l 278 979 l 153 979 l 153 986 q 167 1060 153 1024 q 208 1124 181 1097 q 274 1160 236 1150 q 350 1171 313 1171 q 427 1159 389 1171 q 493 1119 465 1147 q 534 1054 521 1092 q 547 978 547 1017 q 542 929 547 953 q 524 884 536 906 q 495 845 513 863 q 457 817 478 828 q 501 786 481 804 q 536 745 522 768 q 557 696 550 722 q 564 642 564 669 q 549 561 564 601 q 503 492 533 521 q 432 452 472 464 q 350 440 392 440 z "},"":{"ha":694,"x_min":201,"x_max":589,"o":"m 307 736 l 201 815 l 460 1133 l 589 1038 l 307 736 z "},"":{"ha":694,"x_min":82,"x_max":613,"o":"m 82 -299 l 82 722 l 236 722 l 236 278 q 238 242 236 260 q 245 206 240 224 q 259 174 250 189 q 281 146 268 158 q 312 128 294 133 q 347 122 329 122 q 397 135 374 122 q 433 170 419 149 q 452 217 447 192 q 457 269 457 243 l 457 722 l 613 722 l 613 0 l 458 0 l 458 125 q 431 71 447 97 q 392 26 415 44 q 340 -2 369 7 q 281 -11 311 -11 q 255 -10 268 -11 q 228 -4 242 -8 q 235 -76 233 -40 q 236 -149 236 -112 l 236 -299 l 82 -299 z "},"":{"ha":694,"x_min":82,"x_max":613,"o":"m 319 0 l 319 464 q 251 472 285 464 q 188 498 217 479 q 138 545 158 517 q 104 606 117 574 q 87 672 92 638 q 82 742 82 707 q 87 811 82 776 q 104 878 92 846 q 138 939 117 911 q 188 985 158 967 q 251 1013 217 1004 q 319 1021 285 1021 l 613 1021 l 613 0 l 503 0 l 503 926 l 429 926 l 429 0 l 319 0 z "},"":{"ha":694,"x_min":213,"x_max":482,"o":"m 347 338 q 293 345 319 338 q 247 372 267 353 q 220 418 228 392 q 213 472 213 444 q 220 526 213 500 q 247 572 228 553 q 293 599 267 592 q 347 607 319 607 q 401 599 375 607 q 447 572 428 592 q 474 526 467 553 q 482 472 482 500 q 474 418 482 444 q 447 372 467 392 q 401 345 428 353 q 347 338 375 338 z "},"":{"ha":694,"x_min":208,"x_max":497,"o":"m 208 -306 l 208 -196 l 347 -196 q 364 -194 356 -196 q 380 -189 372 -193 q 392 -177 388 -185 q 397 -161 397 -169 q 393 -143 397 -151 q 382 -129 389 -135 q 366 -122 375 -124 q 347 -119 357 -119 l 283 -119 l 283 0 l 411 0 l 411 -64 q 447 -80 429 -69 q 476 -106 464 -90 q 492 -142 488 -122 q 497 -181 497 -161 q 486 -235 497 -208 q 453 -277 475 -261 q 403 -299 431 -293 q 347 -306 375 -306 l 208 -306 z "},"":{"ha":694,"x_min":154,"x_max":439,"o":"m 314 449 l 314 1038 l 222 950 l 154 1011 l 314 1164 l 439 1164 l 439 449 l 314 449 z "},"":{"ha":694,"x_min":139,"x_max":556,"o":"m 347 440 q 292 445 319 440 q 240 462 265 450 q 195 493 215 474 q 162 537 175 513 q 144 588 149 561 q 139 643 139 615 l 139 760 q 144 815 139 788 q 162 866 149 842 q 195 910 175 890 q 240 941 215 929 q 292 958 265 953 q 347 963 319 963 q 402 958 375 963 q 454 941 429 953 q 499 910 479 929 q 533 866 519 890 q 551 815 546 842 q 556 760 556 788 l 556 643 q 551 588 556 615 q 533 537 546 561 q 499 493 519 513 q 454 462 479 474 q 402 445 429 450 q 347 440 375 440 m 347 549 q 383 555 365 549 q 411 576 400 561 q 426 608 422 590 q 431 643 431 625 l 431 760 q 426 795 431 778 q 411 827 422 813 q 383 848 400 842 q 347 854 365 854 q 312 848 329 854 q 283 827 294 842 q 268 795 272 813 q 264 760 264 778 l 264 643 q 268 608 264 625 q 283 576 272 590 q 312 555 294 561 q 347 549 329 549 m 147 260 l 147 346 l 547 346 l 547 260 l 147 260 z "},"":{"ha":694,"x_min":42,"x_max":653,"o":"m 414 118 l 307 156 q 387 324 340 242 q 499 472 433 406 q 387 621 433 539 q 307 789 340 703 l 414 826 q 458 734 433 779 q 510 647 482 689 q 575 567 539 604 q 653 501 611 531 l 653 443 q 575 377 611 414 q 510 298 539 340 q 458 210 482 256 q 414 118 433 165 m 149 118 l 42 156 q 122 324 75 242 q 233 472 168 406 q 122 621 168 539 q 42 789 75 703 l 149 826 q 192 734 168 779 q 245 647 217 689 q 310 567 274 604 q 388 501 346 531 l 388 443 q 310 377 346 414 q 245 298 274 340 q 192 210 217 256 q 149 118 168 165 z "},"":{"ha":694,"x_min":82,"x_max":613,"o":"m 82 429 l 82 515 l 613 515 l 613 429 l 82 429 m 314 617 l 314 1064 l 256 1006 l 194 1057 l 314 1178 l 428 1178 l 428 617 l 314 617 m 360 -233 l 360 -101 l 174 -101 l 174 -3 l 354 328 l 464 328 l 283 -3 l 360 -3 l 360 83 l 475 83 l 475 -3 l 517 -3 l 517 -101 l 475 -101 l 475 -233 l 360 -233 z "},"":{"ha":694,"x_min":82,"x_max":613,"o":"m 82 429 l 82 515 l 613 515 l 613 429 l 82 429 m 314 617 l 314 1064 l 256 1006 l 194 1057 l 314 1178 l 428 1178 l 428 617 l 314 617 m 181 -233 l 181 -232 q 181 -184 181 -208 q 186 -136 182 -160 q 199 -90 190 -112 q 221 -47 208 -67 q 249 -8 233 -26 q 284 25 265 10 q 324 52 303 40 q 365 80 346 64 q 394 118 383 96 q 404 164 404 140 q 402 190 404 176 q 392 213 400 203 q 373 230 385 224 q 349 236 361 236 q 327 233 338 236 q 309 223 317 231 q 297 206 301 215 q 293 185 293 196 l 293 183 l 178 183 l 178 188 q 191 249 178 218 q 229 299 204 279 q 285 326 254 318 q 349 335 317 335 q 417 324 383 335 q 474 290 450 314 q 509 232 499 265 q 519 164 519 199 q 508 102 519 132 q 477 48 497 72 q 431 5 457 24 q 381 -34 406 -14 q 337 -79 357 -54 q 307 -135 317 -104 l 517 -135 l 517 -233 l 181 -233 z "},"":{"ha":694,"x_min":82,"x_max":613,"o":"m 82 429 l 82 515 l 613 515 l 613 429 l 82 429 m 350 611 q 285 618 318 611 q 227 644 253 625 q 187 694 201 664 q 172 758 172 725 l 172 761 l 286 761 l 286 760 q 292 738 286 749 q 306 721 297 728 q 327 712 315 714 q 350 710 339 710 q 375 713 363 710 q 397 726 388 717 q 410 747 406 735 q 414 772 414 760 q 406 808 414 792 q 383 836 397 825 q 351 850 369 847 q 314 853 332 853 l 314 951 q 347 955 331 951 q 376 969 364 958 q 395 995 389 979 q 401 1026 401 1011 q 399 1049 401 1038 q 389 1068 396 1060 q 372 1081 382 1076 q 350 1086 361 1086 q 330 1083 340 1086 q 313 1072 319 1079 q 302 1056 306 1065 q 299 1035 299 1046 l 299 1033 l 185 1033 l 185 1038 q 197 1099 185 1069 q 233 1148 210 1128 q 288 1176 257 1168 q 350 1185 319 1185 q 414 1176 382 1185 q 469 1144 446 1167 q 505 1092 493 1122 q 517 1029 517 1061 q 512 992 517 1010 q 498 957 507 974 q 476 927 489 940 q 447 904 463 914 q 481 881 465 894 q 507 849 496 867 q 524 812 518 832 q 529 771 529 792 q 515 705 529 738 q 476 650 501 672 q 417 619 450 628 q 350 611 383 611 m 360 -233 l 360 -101 l 174 -101 l 174 -3 l 354 328 l 464 328 l 283 -3 l 360 -3 l 360 83 l 475 83 l 475 -3 l 517 -3 l 517 -101 l 475 -101 l 475 -233 l 360 -233 z "},"":{"ha":694,"x_min":82,"x_max":615,"o":"m 347 489 q 299 496 322 489 q 258 520 275 503 q 233 562 240 538 q 225 611 225 586 q 233 660 225 636 q 258 701 240 683 q 299 726 275 718 q 347 733 322 733 q 396 726 372 733 q 437 701 419 718 q 462 660 454 683 q 469 611 469 636 q 462 562 469 586 q 437 520 454 538 q 396 496 419 503 q 347 489 372 489 m 349 -310 q 279 -304 314 -310 q 213 -283 244 -299 q 156 -244 182 -268 q 114 -189 131 -219 q 90 -124 97 -158 q 82 -56 82 -90 q 88 6 82 -25 q 106 65 94 36 q 133 121 117 94 q 167 172 149 147 q 207 219 186 196 q 244 269 228 243 q 265 326 260 296 q 269 389 269 357 l 425 389 q 423 326 425 357 q 413 266 421 296 q 390 208 404 236 q 358 155 376 181 q 318 106 339 129 q 279 58 297 83 q 249 5 261 33 q 236 -56 236 -24 q 243 -101 236 -79 q 265 -142 250 -124 q 303 -168 281 -160 q 349 -176 325 -176 q 397 -166 374 -176 q 434 -135 419 -156 q 455 -91 449 -115 q 461 -43 461 -67 l 461 -36 l 615 -36 l 615 -49 q 608 -119 615 -85 q 583 -185 600 -154 q 542 -240 567 -215 q 485 -281 517 -265 q 419 -303 454 -297 q 349 -310 383 -310 z "},"":{"ha":694,"x_min":51,"x_max":643,"o":"m 51 0 l 258 1021 l 436 1021 l 643 0 l 485 0 l 446 228 l 249 228 l 210 0 l 51 0 m 422 361 l 368 681 q 358 738 363 710 q 347 796 353 767 q 337 738 342 767 q 326 681 332 710 l 272 361 l 422 361 m 365 1099 l 175 1285 l 276 1368 l 450 1165 l 365 1099 z "},"":{"ha":694,"x_min":51,"x_max":643,"o":"m 51 0 l 258 1021 l 436 1021 l 643 0 l 485 0 l 446 228 l 249 228 l 210 0 l 51 0 m 422 361 l 368 681 q 358 738 363 710 q 347 796 353 767 q 337 738 342 767 q 326 681 332 710 l 272 361 l 422 361 m 329 1099 l 244 1165 l 418 1368 l 519 1285 l 329 1099 z "},"":{"ha":694,"x_min":51,"x_max":643,"o":"m 51 0 l 258 1021 l 436 1021 l 643 0 l 485 0 l 446 228 l 249 228 l 210 0 l 51 0 m 422 361 l 368 681 q 358 738 363 710 q 347 796 353 767 q 337 738 342 767 q 326 681 332 710 l 272 361 l 422 361 m 217 1117 l 139 1169 l 267 1361 l 428 1361 l 513 1233 l 556 1169 l 478 1117 l 347 1268 l 217 1117 z "},"":{"ha":694,"x_min":51,"x_max":643,"o":"m 51 0 l 258 1021 l 436 1021 l 643 0 l 485 0 l 446 228 l 249 228 l 210 0 l 51 0 m 422 361 l 368 681 q 358 738 363 710 q 347 796 353 767 q 337 738 342 767 q 326 681 332 710 l 272 361 l 422 361 m 426 1128 q 413 1128 419 1128 q 401 1131 407 1129 q 388 1134 394 1132 q 376 1139 382 1136 q 364 1145 369 1142 q 353 1152 358 1149 q 342 1160 347 1156 q 332 1169 338 1164 q 322 1178 326 1174 q 314 1188 318 1183 q 306 1197 310 1193 q 298 1207 303 1200 q 288 1219 293 1214 q 278 1230 282 1225 q 268 1240 274 1235 q 263 1246 263 1244 l 272 1246 q 268 1241 272 1244 q 259 1233 264 1238 q 253 1226 254 1228 q 249 1221 251 1224 q 245 1215 247 1218 q 241 1209 243 1213 q 236 1202 239 1206 q 231 1194 233 1199 q 225 1185 228 1190 q 219 1176 222 1181 q 214 1166 217 1171 q 208 1156 211 1161 q 202 1144 206 1150 q 196 1132 199 1138 l 82 1182 q 107 1228 94 1207 q 131 1265 119 1249 q 156 1297 143 1282 q 185 1325 168 1311 q 224 1347 203 1339 q 268 1356 246 1356 q 281 1355 275 1356 q 294 1353 288 1354 q 306 1349 300 1351 q 319 1344 313 1347 q 331 1338 325 1342 q 342 1331 336 1335 q 352 1323 347 1328 q 363 1313 357 1318 q 372 1304 368 1308 q 381 1295 376 1300 q 388 1287 385 1290 q 397 1276 392 1283 q 407 1264 401 1269 q 417 1253 413 1258 q 426 1244 421 1249 q 432 1238 432 1239 l 422 1238 q 426 1242 422 1239 q 435 1250 431 1244 q 442 1258 440 1256 q 445 1262 443 1260 q 449 1267 447 1264 q 453 1274 451 1271 q 458 1281 456 1278 q 464 1289 461 1285 q 469 1297 467 1293 q 475 1306 472 1301 q 481 1317 478 1311 q 486 1328 483 1322 q 492 1339 489 1333 q 499 1351 496 1344 l 613 1301 q 588 1256 600 1276 q 563 1218 575 1235 q 539 1186 551 1201 q 509 1158 526 1171 q 470 1136 492 1144 q 426 1128 449 1128 z "},"":{"ha":694,"x_min":51,"x_max":643,"o":"m 51 0 l 258 1021 l 436 1021 l 643 0 l 485 0 l 446 228 l 249 228 l 210 0 l 51 0 m 422 361 l 368 681 q 358 738 363 710 q 347 796 353 767 q 337 738 342 767 q 326 681 332 710 l 272 361 l 422 361 m 486 1129 q 446 1135 465 1129 q 412 1155 426 1140 q 392 1189 397 1169 q 386 1229 386 1208 q 392 1269 386 1250 q 412 1303 397 1289 q 446 1324 426 1318 q 486 1329 465 1329 q 526 1324 507 1329 q 560 1303 546 1318 q 581 1269 575 1289 q 586 1229 586 1250 q 581 1189 586 1208 q 560 1155 575 1169 q 526 1135 546 1140 q 486 1129 507 1129 m 208 1129 q 168 1135 188 1129 q 134 1155 149 1140 q 114 1189 119 1169 q 108 1229 108 1208 q 114 1269 108 1250 q 134 1303 119 1289 q 168 1324 149 1318 q 208 1329 188 1329 q 249 1324 229 1329 q 283 1303 268 1318 q 303 1269 297 1289 q 308 1229 308 1250 q 303 1189 308 1208 q 283 1155 297 1169 q 249 1135 268 1140 q 208 1129 229 1129 z "},"":{"ha":694,"x_min":51,"x_max":643,"o":"m 51 0 l 258 1021 l 436 1021 l 643 0 l 485 0 l 446 228 l 249 228 l 210 0 l 51 0 m 422 361 l 368 681 q 358 738 363 710 q 347 796 353 767 q 337 738 342 767 q 326 681 332 710 l 272 361 l 422 361 m 347 1090 q 292 1099 319 1090 q 245 1127 265 1107 q 217 1174 225 1147 q 208 1229 208 1201 q 217 1284 208 1257 q 245 1331 225 1311 q 292 1360 265 1351 q 347 1368 319 1368 q 402 1360 375 1368 q 449 1331 429 1351 q 478 1284 469 1311 q 486 1229 486 1257 q 478 1174 486 1201 q 449 1127 469 1147 q 402 1099 429 1107 q 347 1090 375 1090 m 347 1179 q 367 1182 357 1179 q 385 1192 378 1185 q 394 1209 392 1199 q 397 1229 397 1219 q 394 1249 397 1239 q 385 1267 392 1260 q 367 1276 378 1274 q 347 1279 357 1279 q 327 1276 338 1279 q 310 1267 317 1274 q 300 1249 303 1260 q 297 1229 297 1239 q 300 1209 297 1219 q 310 1192 303 1199 q 327 1182 317 1185 q 347 1179 338 1179 z "},"":{"ha":694,"x_min":36,"x_max":636,"o":"m 36 0 l 246 1021 l 636 1021 l 636 888 l 449 888 l 449 597 l 608 597 l 608 464 l 449 464 l 449 133 l 636 133 l 636 0 l 314 0 l 314 244 l 218 244 l 172 0 l 36 0 m 239 361 l 314 361 l 314 756 q 306 719 310 738 q 300 681 303 700 l 239 361 z "},"":{"ha":694,"x_min":71,"x_max":615,"o":"m 343 -11 q 267 -3 306 -11 q 197 23 229 4 q 138 72 164 42 q 97 136 113 101 q 76 209 82 171 q 71 285 71 247 l 71 736 q 76 812 71 774 q 97 885 82 850 q 138 949 113 919 q 197 998 164 979 q 267 1024 229 1017 q 343 1032 306 1032 q 415 1026 379 1032 q 482 1003 450 1019 q 540 962 514 988 q 582 905 565 936 q 607 838 599 874 q 615 767 615 803 l 615 758 l 461 758 l 461 763 q 454 813 461 788 q 432 858 447 838 q 392 888 417 878 q 343 899 368 899 q 306 893 324 899 q 274 875 288 888 q 250 846 260 863 q 235 811 240 829 q 227 774 229 793 q 225 736 225 756 l 225 285 q 227 247 225 265 q 235 210 229 228 q 250 175 240 192 q 274 146 260 158 q 306 128 288 133 q 343 122 324 122 q 392 133 368 122 q 432 163 417 143 q 454 208 447 183 q 461 258 461 233 l 461 263 l 615 263 l 615 254 q 607 183 615 218 q 582 116 599 147 q 540 59 565 85 q 482 17 514 33 q 415 -5 450 1 q 343 -11 379 -11 m 208 -306 l 208 -196 l 347 -196 q 364 -194 356 -196 q 380 -189 372 -193 q 392 -177 388 -185 q 397 -161 397 -169 q 393 -143 397 -151 q 382 -129 389 -135 q 366 -122 375 -124 q 347 -119 357 -119 l 283 -119 l 283 122 l 411 122 l 411 -64 q 447 -80 429 -69 q 476 -106 464 -90 q 492 -142 488 -122 q 497 -181 497 -161 q 486 -235 497 -208 q 453 -277 475 -261 q 403 -299 431 -293 q 347 -306 375 -306 l 208 -306 z "},"":{"ha":694,"x_min":93,"x_max":613,"o":"m 93 0 l 93 1021 l 613 1021 l 613 888 l 247 888 l 247 597 l 533 597 l 533 464 l 247 464 l 247 133 l 613 133 l 613 0 l 93 0 m 365 1099 l 175 1285 l 276 1368 l 450 1165 l 365 1099 z "},"":{"ha":694,"x_min":93,"x_max":613,"o":"m 93 0 l 93 1021 l 613 1021 l 613 888 l 247 888 l 247 597 l 533 597 l 533 464 l 247 464 l 247 133 l 613 133 l 613 0 l 93 0 m 329 1099 l 244 1165 l 418 1368 l 519 1285 l 329 1099 z "},"":{"ha":694,"x_min":93,"x_max":613,"o":"m 93 0 l 93 1021 l 613 1021 l 613 888 l 247 888 l 247 597 l 533 597 l 533 464 l 247 464 l 247 133 l 613 133 l 613 0 l 93 0 m 217 1117 l 139 1169 l 267 1361 l 428 1361 l 513 1233 l 556 1169 l 478 1117 l 347 1268 l 217 1117 z "},"":{"ha":694,"x_min":93,"x_max":613,"o":"m 93 0 l 93 1021 l 613 1021 l 613 888 l 247 888 l 247 597 l 533 597 l 533 464 l 247 464 l 247 133 l 613 133 l 613 0 l 93 0 m 486 1129 q 446 1135 465 1129 q 412 1155 426 1140 q 392 1189 397 1169 q 386 1229 386 1208 q 392 1269 386 1250 q 412 1303 397 1289 q 446 1324 426 1318 q 486 1329 465 1329 q 526 1324 507 1329 q 560 1303 546 1318 q 581 1269 575 1289 q 586 1229 586 1250 q 581 1189 586 1208 q 560 1155 575 1169 q 526 1135 546 1140 q 486 1129 507 1129 m 208 1129 q 168 1135 188 1129 q 134 1155 149 1140 q 114 1189 119 1169 q 108 1229 108 1208 q 114 1269 108 1250 q 134 1303 119 1289 q 168 1324 149 1318 q 208 1329 188 1329 q 249 1324 229 1329 q 283 1303 268 1318 q 303 1269 297 1289 q 308 1229 308 1250 q 303 1189 308 1208 q 283 1155 297 1169 q 249 1135 268 1140 q 208 1129 229 1129 z "},"":{"ha":694,"x_min":104,"x_max":590,"o":"m 104 0 l 104 133 l 269 133 l 269 888 l 104 888 l 104 1021 l 590 1021 l 590 888 l 425 888 l 425 133 l 590 133 l 590 0 l 104 0 m 365 1099 l 175 1285 l 276 1368 l 450 1165 l 365 1099 z "},"":{"ha":694,"x_min":104,"x_max":590,"o":"m 104 0 l 104 133 l 269 133 l 269 888 l 104 888 l 104 1021 l 590 1021 l 590 888 l 425 888 l 425 133 l 590 133 l 590 0 l 104 0 m 329 1099 l 244 1165 l 418 1368 l 519 1285 l 329 1099 z "},"":{"ha":694,"x_min":104,"x_max":590,"o":"m 104 0 l 104 133 l 269 133 l 269 888 l 104 888 l 104 1021 l 590 1021 l 590 888 l 425 888 l 425 133 l 590 133 l 590 0 l 104 0 m 217 1117 l 139 1169 l 267 1361 l 428 1361 l 513 1233 l 556 1169 l 478 1117 l 347 1268 l 217 1117 z "},"":{"ha":694,"x_min":104,"x_max":590,"o":"m 104 0 l 104 133 l 269 133 l 269 888 l 104 888 l 104 1021 l 590 1021 l 590 888 l 425 888 l 425 133 l 590 133 l 590 0 l 104 0 m 486 1129 q 446 1135 465 1129 q 412 1155 426 1140 q 392 1189 397 1169 q 386 1229 386 1208 q 392 1269 386 1250 q 412 1303 397 1289 q 446 1324 426 1318 q 486 1329 465 1329 q 526 1324 507 1329 q 560 1303 546 1318 q 581 1269 575 1289 q 586 1229 586 1250 q 581 1189 586 1208 q 560 1155 575 1169 q 526 1135 546 1140 q 486 1129 507 1129 m 208 1129 q 168 1135 188 1129 q 134 1155 149 1140 q 114 1189 119 1169 q 108 1229 108 1208 q 114 1269 108 1250 q 134 1303 119 1289 q 168 1324 149 1318 q 208 1329 188 1329 q 249 1324 229 1329 q 283 1303 268 1318 q 303 1269 297 1289 q 308 1229 308 1250 q 303 1189 308 1208 q 283 1155 297 1169 q 249 1135 268 1140 q 208 1129 229 1129 z "},"":{"ha":694,"x_min":25,"x_max":624,"o":"m 299 0 l 82 0 l 82 458 l 25 458 l 25 563 l 82 563 l 82 1021 l 299 1021 q 384 1014 342 1021 q 465 989 426 1007 q 536 941 504 971 q 588 873 568 911 q 616 792 608 835 q 624 707 624 750 l 624 314 q 616 228 624 271 q 588 148 608 186 q 536 80 568 110 q 465 32 504 50 q 384 7 426 14 q 299 0 342 0 m 236 133 l 299 133 q 346 138 322 133 q 390 154 369 143 q 426 183 410 165 q 451 222 442 200 q 465 267 461 243 q 469 314 469 290 l 469 707 q 465 754 469 731 q 451 799 461 778 q 426 838 442 821 q 390 867 410 856 q 346 883 369 878 q 299 888 322 888 l 236 888 l 236 563 l 360 563 l 360 458 l 236 458 l 236 133 z "},"":{"ha":694,"x_min":82,"x_max":613,"o":"m 82 0 l 82 1021 l 242 1021 l 479 288 q 470 368 475 328 q 463 449 465 408 q 459 531 460 490 q 458 613 458 572 l 458 1021 l 613 1021 l 613 0 l 453 0 l 215 733 q 224 653 219 693 q 232 572 229 613 q 235 490 235 531 q 236 408 236 449 l 236 0 l 82 0 m 426 1128 q 413 1128 419 1128 q 401 1131 407 1129 q 388 1134 394 1132 q 376 1139 382 1136 q 364 1145 369 1142 q 353 1152 358 1149 q 342 1160 347 1156 q 332 1169 338 1164 q 322 1178 326 1174 q 314 1188 318 1183 q 306 1197 310 1193 q 298 1207 303 1200 q 288 1219 293 1214 q 278 1230 282 1225 q 268 1240 274 1235 q 263 1246 263 1244 l 272 1246 q 268 1241 272 1244 q 259 1233 264 1238 q 253 1226 254 1228 q 249 1221 251 1224 q 245 1215 247 1218 q 241 1209 243 1213 q 236 1202 239 1206 q 231 1194 233 1199 q 225 1185 228 1190 q 219 1176 222 1181 q 214 1166 217 1171 q 208 1156 211 1161 q 202 1144 206 1150 q 196 1132 199 1138 l 82 1182 q 107 1228 94 1207 q 131 1265 119 1249 q 156 1297 143 1282 q 185 1325 168 1311 q 224 1347 203 1339 q 268 1356 246 1356 q 281 1355 275 1356 q 294 1353 288 1354 q 306 1349 300 1351 q 319 1344 313 1347 q 331 1338 325 1342 q 342 1331 336 1335 q 352 1323 347 1328 q 363 1313 357 1318 q 372 1304 368 1308 q 381 1295 376 1300 q 388 1287 385 1290 q 397 1276 392 1283 q 407 1264 401 1269 q 417 1253 413 1258 q 426 1244 421 1249 q 432 1238 432 1239 l 422 1238 q 426 1242 422 1239 q 435 1250 431 1244 q 442 1258 440 1256 q 445 1262 443 1260 q 449 1267 447 1264 q 453 1274 451 1271 q 458 1281 456 1278 q 464 1289 461 1285 q 469 1297 467 1293 q 475 1306 472 1301 q 481 1317 478 1311 q 486 1328 483 1322 q 492 1339 489 1333 q 499 1351 496 1344 l 613 1301 q 588 1256 600 1276 q 563 1218 575 1235 q 539 1186 551 1201 q 509 1158 526 1171 q 470 1136 492 1144 q 426 1128 449 1128 z "},"":{"ha":694,"x_min":71,"x_max":624,"o":"m 347 -11 q 270 -3 308 -11 q 199 23 232 4 q 140 71 165 42 q 99 135 114 100 q 77 208 83 171 q 71 285 71 246 l 71 736 q 77 813 71 775 q 99 885 83 850 q 140 950 114 921 q 199 998 165 979 q 270 1024 232 1017 q 347 1032 308 1032 q 424 1024 386 1032 q 496 998 463 1017 q 555 950 529 979 q 596 885 581 921 q 617 813 611 850 q 624 736 624 775 l 624 285 q 617 208 624 246 q 596 135 611 171 q 555 71 581 100 q 496 23 529 42 q 424 -3 463 4 q 347 -11 386 -11 m 347 122 q 385 128 367 122 q 419 146 404 133 q 443 175 433 158 q 459 210 453 192 q 467 247 465 228 q 469 285 469 265 l 469 736 q 467 774 469 756 q 459 811 465 793 q 443 846 453 829 q 419 875 433 863 q 385 893 404 888 q 347 899 367 899 q 309 893 328 899 q 276 875 290 888 q 251 846 261 863 q 235 811 242 829 q 227 774 229 793 q 225 736 225 756 l 225 285 q 227 247 225 265 q 235 210 229 228 q 251 175 242 192 q 276 146 261 158 q 309 128 290 133 q 347 122 328 122 m 365 1099 l 175 1285 l 276 1368 l 450 1165 l 365 1099 z "},"":{"ha":694,"x_min":71,"x_max":624,"o":"m 347 -11 q 270 -3 308 -11 q 199 23 232 4 q 140 71 165 42 q 99 135 114 100 q 77 208 83 171 q 71 285 71 246 l 71 736 q 77 813 71 775 q 99 885 83 850 q 140 950 114 921 q 199 998 165 979 q 270 1024 232 1017 q 347 1032 308 1032 q 424 1024 386 1032 q 496 998 463 1017 q 555 950 529 979 q 596 885 581 921 q 617 813 611 850 q 624 736 624 775 l 624 285 q 617 208 624 246 q 596 135 611 171 q 555 71 581 100 q 496 23 529 42 q 424 -3 463 4 q 347 -11 386 -11 m 347 122 q 385 128 367 122 q 419 146 404 133 q 443 175 433 158 q 459 210 453 192 q 467 247 465 228 q 469 285 469 265 l 469 736 q 467 774 469 756 q 459 811 465 793 q 443 846 453 829 q 419 875 433 863 q 385 893 404 888 q 347 899 367 899 q 309 893 328 899 q 276 875 290 888 q 251 846 261 863 q 235 811 242 829 q 227 774 229 793 q 225 736 225 756 l 225 285 q 227 247 225 265 q 235 210 229 228 q 251 175 242 192 q 276 146 261 158 q 309 128 290 133 q 347 122 328 122 m 329 1099 l 244 1165 l 418 1368 l 519 1285 l 329 1099 z "},"":{"ha":694,"x_min":71,"x_max":624,"o":"m 347 -11 q 270 -3 308 -11 q 199 23 232 4 q 140 71 165 42 q 99 135 114 100 q 77 208 83 171 q 71 285 71 246 l 71 736 q 77 813 71 775 q 99 885 83 850 q 140 950 114 921 q 199 998 165 979 q 270 1024 232 1017 q 347 1032 308 1032 q 424 1024 386 1032 q 496 998 463 1017 q 555 950 529 979 q 596 885 581 921 q 617 813 611 850 q 624 736 624 775 l 624 285 q 617 208 624 246 q 596 135 611 171 q 555 71 581 100 q 496 23 529 42 q 424 -3 463 4 q 347 -11 386 -11 m 347 122 q 385 128 367 122 q 419 146 404 133 q 443 175 433 158 q 459 210 453 192 q 467 247 465 228 q 469 285 469 265 l 469 736 q 467 774 469 756 q 459 811 465 793 q 443 846 453 829 q 419 875 433 863 q 385 893 404 888 q 347 899 367 899 q 309 893 328 899 q 276 875 290 888 q 251 846 261 863 q 235 811 242 829 q 227 774 229 793 q 225 736 225 756 l 225 285 q 227 247 225 265 q 235 210 229 228 q 251 175 242 192 q 276 146 261 158 q 309 128 290 133 q 347 122 328 122 m 217 1117 l 139 1169 l 267 1361 l 428 1361 l 513 1233 l 556 1169 l 478 1117 l 347 1268 l 217 1117 z "},"":{"ha":694,"x_min":71,"x_max":624,"o":"m 347 -11 q 270 -3 308 -11 q 199 23 232 4 q 140 71 165 42 q 99 135 114 100 q 77 208 83 171 q 71 285 71 246 l 71 736 q 77 813 71 775 q 99 885 83 850 q 140 950 114 921 q 199 998 165 979 q 270 1024 232 1017 q 347 1032 308 1032 q 424 1024 386 1032 q 496 998 463 1017 q 555 950 529 979 q 596 885 581 921 q 617 813 611 850 q 624 736 624 775 l 624 285 q 617 208 624 246 q 596 135 611 171 q 555 71 581 100 q 496 23 529 42 q 424 -3 463 4 q 347 -11 386 -11 m 347 122 q 385 128 367 122 q 419 146 404 133 q 443 175 433 158 q 459 210 453 192 q 467 247 465 228 q 469 285 469 265 l 469 736 q 467 774 469 756 q 459 811 465 793 q 443 846 453 829 q 419 875 433 863 q 385 893 404 888 q 347 899 367 899 q 309 893 328 899 q 276 875 290 888 q 251 846 261 863 q 235 811 242 829 q 227 774 229 793 q 225 736 225 756 l 225 285 q 227 247 225 265 q 235 210 229 228 q 251 175 242 192 q 276 146 261 158 q 309 128 290 133 q 347 122 328 122 m 426 1128 q 413 1128 419 1128 q 401 1131 407 1129 q 388 1134 394 1132 q 376 1139 382 1136 q 364 1145 369 1142 q 353 1152 358 1149 q 342 1160 347 1156 q 332 1169 338 1164 q 322 1178 326 1174 q 314 1188 318 1183 q 306 1197 310 1193 q 298 1207 303 1200 q 288 1219 293 1214 q 278 1230 282 1225 q 268 1240 274 1235 q 263 1246 263 1244 l 272 1246 q 268 1241 272 1244 q 259 1233 264 1238 q 253 1226 254 1228 q 249 1221 251 1224 q 245 1215 247 1218 q 241 1209 243 1213 q 236 1202 239 1206 q 231 1194 233 1199 q 225 1185 228 1190 q 219 1176 222 1181 q 214 1166 217 1171 q 208 1156 211 1161 q 202 1144 206 1150 q 196 1132 199 1138 l 82 1182 q 107 1228 94 1207 q 131 1265 119 1249 q 156 1297 143 1282 q 185 1325 168 1311 q 224 1347 203 1339 q 268 1356 246 1356 q 281 1355 275 1356 q 294 1353 288 1354 q 306 1349 300 1351 q 319 1344 313 1347 q 331 1338 325 1342 q 342 1331 336 1335 q 352 1323 347 1328 q 363 1313 357 1318 q 372 1304 368 1308 q 381 1295 376 1300 q 388 1287 385 1290 q 397 1276 392 1283 q 407 1264 401 1269 q 417 1253 413 1258 q 426 1244 421 1249 q 432 1238 432 1239 l 422 1238 q 426 1242 422 1239 q 435 1250 431 1244 q 442 1258 440 1256 q 445 1262 443 1260 q 449 1267 447 1264 q 453 1274 451 1271 q 458 1281 456 1278 q 464 1289 461 1285 q 469 1297 467 1293 q 475 1306 472 1301 q 481 1317 478 1311 q 486 1328 483 1322 q 492 1339 489 1333 q 499 1351 496 1344 l 613 1301 q 588 1256 600 1276 q 563 1218 575 1235 q 539 1186 551 1201 q 509 1158 526 1171 q 470 1136 492 1144 q 426 1128 449 1128 z "},"":{"ha":694,"x_min":71,"x_max":624,"o":"m 347 -11 q 270 -3 308 -11 q 199 23 232 4 q 140 71 165 42 q 99 135 114 100 q 77 208 83 171 q 71 285 71 246 l 71 736 q 77 813 71 775 q 99 885 83 850 q 140 950 114 921 q 199 998 165 979 q 270 1024 232 1017 q 347 1032 308 1032 q 424 1024 386 1032 q 496 998 463 1017 q 555 950 529 979 q 596 885 581 921 q 617 813 611 850 q 624 736 624 775 l 624 285 q 617 208 624 246 q 596 135 611 171 q 555 71 581 100 q 496 23 529 42 q 424 -3 463 4 q 347 -11 386 -11 m 347 122 q 385 128 367 122 q 419 146 404 133 q 443 175 433 158 q 459 210 453 192 q 467 247 465 228 q 469 285 469 265 l 469 736 q 467 774 469 756 q 459 811 465 793 q 443 846 453 829 q 419 875 433 863 q 385 893 404 888 q 347 899 367 899 q 309 893 328 899 q 276 875 290 888 q 251 846 261 863 q 235 811 242 829 q 227 774 229 793 q 225 736 225 756 l 225 285 q 227 247 225 265 q 235 210 229 228 q 251 175 242 192 q 276 146 261 158 q 309 128 290 133 q 347 122 328 122 m 486 1129 q 446 1135 465 1129 q 412 1155 426 1140 q 392 1189 397 1169 q 386 1229 386 1208 q 392 1269 386 1250 q 412 1303 397 1289 q 446 1324 426 1318 q 486 1329 465 1329 q 526 1324 507 1329 q 560 1303 546 1318 q 581 1269 575 1289 q 586 1229 586 1250 q 581 1189 586 1208 q 560 1155 575 1169 q 526 1135 546 1140 q 486 1129 507 1129 m 208 1129 q 168 1135 188 1129 q 134 1155 149 1140 q 114 1189 119 1169 q 108 1229 108 1208 q 114 1269 108 1250 q 134 1303 119 1289 q 168 1324 149 1318 q 208 1329 188 1329 q 249 1324 229 1329 q 283 1303 268 1318 q 303 1269 297 1289 q 308 1229 308 1250 q 303 1189 308 1208 q 283 1155 297 1169 q 249 1135 268 1140 q 208 1129 229 1129 z "},"":{"ha":694,"x_min":13,"x_max":682,"o":"m 111 144 l 13 229 l 256 472 l 13 715 l 111 800 l 347 564 l 583 800 l 682 715 l 439 472 l 682 229 l 583 144 l 347 381 l 111 144 z "},"":{"ha":694,"x_min":67,"x_max":628,"o":"m 178 -71 l 67 -32 l 118 99 q 96 141 106 118 q 81 188 86 164 q 73 235 75 211 q 71 285 71 260 l 71 736 q 77 813 71 775 q 99 885 83 850 q 140 950 114 921 q 199 998 165 979 q 270 1024 232 1017 q 347 1032 308 1032 q 416 1026 382 1032 q 482 1006 450 1021 l 517 1092 l 628 1053 l 576 922 q 599 880 589 903 q 614 833 608 857 q 622 785 619 810 q 624 736 624 761 l 624 285 q 617 208 624 246 q 596 135 611 171 q 555 71 581 100 q 496 23 529 42 q 424 -3 463 4 q 347 -11 386 -11 q 278 -6 313 -11 q 213 15 244 0 l 178 -71 m 225 365 l 426 868 q 390 891 411 883 q 347 899 369 899 q 309 893 328 899 q 276 875 290 888 q 251 846 261 863 q 235 811 242 829 q 227 774 229 793 q 225 736 225 756 l 225 365 m 347 122 q 385 128 367 122 q 419 146 404 133 q 443 175 433 158 q 459 210 453 192 q 467 247 465 228 q 469 285 469 265 l 469 656 l 268 153 q 304 130 283 138 q 347 122 325 122 z "},"":{"ha":694,"x_min":82,"x_max":613,"o":"m 347 -11 q 272 -3 310 -11 q 203 24 235 4 q 147 73 171 43 q 108 138 122 103 q 88 210 93 172 q 82 285 82 247 l 82 1021 l 236 1021 l 236 285 q 238 248 236 267 q 245 212 240 229 q 258 178 250 194 q 280 148 267 161 q 311 128 293 135 q 347 122 329 122 q 383 128 365 122 q 415 148 401 135 q 436 178 428 161 q 449 212 444 194 q 456 248 454 229 q 458 285 458 267 l 458 1021 l 613 1021 l 613 285 q 607 210 613 247 q 587 138 601 172 q 548 73 572 103 q 492 24 524 43 q 422 -3 460 4 q 347 -11 385 -11 m 365 1099 l 175 1285 l 276 1368 l 450 1165 l 365 1099 z "},"":{"ha":694,"x_min":82,"x_max":613,"o":"m 347 -11 q 272 -3 310 -11 q 203 24 235 4 q 147 73 171 43 q 108 138 122 103 q 88 210 93 172 q 82 285 82 247 l 82 1021 l 236 1021 l 236 285 q 238 248 236 267 q 245 212 240 229 q 258 178 250 194 q 280 148 267 161 q 311 128 293 135 q 347 122 329 122 q 383 128 365 122 q 415 148 401 135 q 436 178 428 161 q 449 212 444 194 q 456 248 454 229 q 458 285 458 267 l 458 1021 l 613 1021 l 613 285 q 607 210 613 247 q 587 138 601 172 q 548 73 572 103 q 492 24 524 43 q 422 -3 460 4 q 347 -11 385 -11 m 329 1099 l 244 1165 l 418 1368 l 519 1285 l 329 1099 z "},"":{"ha":694,"x_min":82,"x_max":613,"o":"m 347 -11 q 272 -3 310 -11 q 203 24 235 4 q 147 73 171 43 q 108 138 122 103 q 88 210 93 172 q 82 285 82 247 l 82 1021 l 236 1021 l 236 285 q 238 248 236 267 q 245 212 240 229 q 258 178 250 194 q 280 148 267 161 q 311 128 293 135 q 347 122 329 122 q 383 128 365 122 q 415 148 401 135 q 436 178 428 161 q 449 212 444 194 q 456 248 454 229 q 458 285 458 267 l 458 1021 l 613 1021 l 613 285 q 607 210 613 247 q 587 138 601 172 q 548 73 572 103 q 492 24 524 43 q 422 -3 460 4 q 347 -11 385 -11 m 217 1117 l 139 1169 l 267 1361 l 428 1361 l 513 1233 l 556 1169 l 478 1117 l 347 1268 l 217 1117 z "},"":{"ha":694,"x_min":82,"x_max":613,"o":"m 347 -11 q 272 -3 310 -11 q 203 24 235 4 q 147 73 171 43 q 108 138 122 103 q 88 210 93 172 q 82 285 82 247 l 82 1021 l 236 1021 l 236 285 q 238 248 236 267 q 245 212 240 229 q 258 178 250 194 q 280 148 267 161 q 311 128 293 135 q 347 122 329 122 q 383 128 365 122 q 415 148 401 135 q 436 178 428 161 q 449 212 444 194 q 456 248 454 229 q 458 285 458 267 l 458 1021 l 613 1021 l 613 285 q 607 210 613 247 q 587 138 601 172 q 548 73 572 103 q 492 24 524 43 q 422 -3 460 4 q 347 -11 385 -11 m 486 1129 q 446 1135 465 1129 q 412 1155 426 1140 q 392 1189 397 1169 q 386 1229 386 1208 q 392 1269 386 1250 q 412 1303 397 1289 q 446 1324 426 1318 q 486 1329 465 1329 q 526 1324 507 1329 q 560 1303 546 1318 q 581 1269 575 1289 q 586 1229 586 1250 q 581 1189 586 1208 q 560 1155 575 1169 q 526 1135 546 1140 q 486 1129 507 1129 m 208 1129 q 168 1135 188 1129 q 134 1155 149 1140 q 114 1189 119 1169 q 108 1229 108 1208 q 114 1269 108 1250 q 134 1303 119 1289 q 168 1324 149 1318 q 208 1329 188 1329 q 249 1324 229 1329 q 283 1303 268 1318 q 303 1269 297 1289 q 308 1229 308 1250 q 303 1189 308 1208 q 283 1155 297 1169 q 249 1135 268 1140 q 208 1129 229 1129 z "},"":{"ha":694,"x_min":46,"x_max":649,"o":"m 269 0 l 269 426 l 46 1021 l 211 1021 l 347 617 l 483 1021 l 649 1021 l 425 426 l 425 0 l 269 0 m 329 1099 l 244 1165 l 418 1368 l 519 1285 l 329 1099 z "},"":{"ha":694,"x_min":103,"x_max":624,"o":"m 103 0 l 103 1021 l 257 1021 l 257 826 l 296 826 q 382 819 339 826 q 464 794 425 813 q 535 746 503 776 q 588 677 567 715 q 616 597 608 639 q 624 511 624 554 q 616 424 624 467 q 588 344 608 382 q 535 275 567 306 q 464 226 503 244 q 382 201 425 208 q 296 194 339 194 l 257 194 l 257 0 l 103 0 m 257 328 l 296 328 q 343 332 319 328 q 388 348 367 336 q 425 378 408 360 q 451 417 442 396 q 465 463 461 439 q 469 511 469 486 q 465 558 469 535 q 451 603 461 582 q 425 643 442 625 q 388 673 408 661 q 343 689 367 685 q 296 693 319 693 l 257 693 l 257 328 z "},"":{"ha":694,"x_min":82,"x_max":624,"o":"m 82 0 l 82 722 q 87 798 82 760 q 105 872 92 836 q 140 938 118 907 q 192 992 161 969 q 261 1023 224 1014 q 336 1032 299 1032 q 407 1024 372 1032 q 472 998 442 1017 q 526 951 503 979 q 563 890 549 922 q 583 822 576 857 q 590 751 590 788 q 585 690 590 721 q 567 631 579 660 q 538 576 556 601 q 499 528 521 550 q 554 484 529 510 q 595 426 579 458 q 617 359 611 394 q 624 289 624 324 q 615 206 624 247 q 583 129 606 164 q 526 68 560 94 q 454 26 493 42 q 374 6 415 11 q 290 0 332 0 l 275 0 l 275 133 l 290 133 q 335 136 313 133 q 378 147 357 139 q 417 170 399 156 q 447 203 435 185 q 464 244 458 222 q 469 289 469 267 q 456 354 469 322 q 417 407 443 386 q 357 435 390 428 q 290 443 324 443 l 290 578 q 351 592 322 578 q 399 632 379 607 q 427 688 418 657 q 436 750 436 719 q 434 783 436 767 q 427 816 432 800 q 415 847 422 832 q 396 874 407 863 q 369 892 385 886 q 336 899 353 899 q 300 890 317 899 q 272 866 283 881 q 254 833 261 851 q 243 797 247 815 q 238 760 239 779 q 236 722 236 742 l 236 0 l 82 0 z "},"":{"ha":694,"x_min":71,"x_max":613,"o":"m 275 -11 q 192 2 233 -11 q 123 46 151 15 q 83 117 94 76 q 71 200 71 158 q 80 273 71 238 q 111 338 89 308 q 164 388 133 367 q 229 420 194 408 q 301 436 264 432 q 374 440 338 440 l 458 440 l 458 488 q 451 533 458 511 q 428 570 444 554 q 390 593 413 586 q 346 600 368 600 q 306 596 325 600 q 269 580 286 592 q 243 549 253 568 q 233 511 233 531 l 233 508 l 79 508 l 79 515 q 89 578 79 547 q 117 637 99 610 q 162 683 135 664 q 219 713 189 701 q 281 729 249 725 q 346 733 314 733 q 415 728 381 733 q 480 710 449 724 q 538 673 511 696 q 581 620 564 650 q 606 556 599 590 q 613 488 613 522 l 613 0 l 458 0 l 458 114 q 429 62 447 86 q 387 21 411 38 q 333 -3 363 4 q 275 -11 304 -11 m 342 122 q 389 131 365 122 q 429 158 413 139 q 452 201 446 176 q 458 250 458 225 l 458 307 l 374 307 q 341 306 357 307 q 309 300 325 304 q 278 290 293 296 q 250 273 263 283 q 231 247 238 263 q 225 215 225 232 q 235 175 225 194 q 262 143 244 156 q 300 126 279 131 q 342 122 321 122 m 365 800 l 175 986 l 276 1069 l 450 867 l 365 800 z "},"":{"ha":694,"x_min":71,"x_max":613,"o":"m 275 -11 q 192 2 233 -11 q 123 46 151 15 q 83 117 94 76 q 71 200 71 158 q 80 273 71 238 q 111 338 89 308 q 164 388 133 367 q 229 420 194 408 q 301 436 264 432 q 374 440 338 440 l 458 440 l 458 488 q 451 533 458 511 q 428 570 444 554 q 390 593 413 586 q 346 600 368 600 q 306 596 325 600 q 269 580 286 592 q 243 549 253 568 q 233 511 233 531 l 233 508 l 79 508 l 79 515 q 89 578 79 547 q 117 637 99 610 q 162 683 135 664 q 219 713 189 701 q 281 729 249 725 q 346 733 314 733 q 415 728 381 733 q 480 710 449 724 q 538 673 511 696 q 581 620 564 650 q 606 556 599 590 q 613 488 613 522 l 613 0 l 458 0 l 458 114 q 429 62 447 86 q 387 21 411 38 q 333 -3 363 4 q 275 -11 304 -11 m 342 122 q 389 131 365 122 q 429 158 413 139 q 452 201 446 176 q 458 250 458 225 l 458 307 l 374 307 q 341 306 357 307 q 309 300 325 304 q 278 290 293 296 q 250 273 263 283 q 231 247 238 263 q 225 215 225 232 q 235 175 225 194 q 262 143 244 156 q 300 126 279 131 q 342 122 321 122 m 329 800 l 244 867 l 418 1069 l 519 986 l 329 800 z "},"":{"ha":694,"x_min":71,"x_max":613,"o":"m 275 -11 q 192 2 233 -11 q 123 46 151 15 q 83 117 94 76 q 71 200 71 158 q 80 273 71 238 q 111 338 89 308 q 164 388 133 367 q 229 420 194 408 q 301 436 264 432 q 374 440 338 440 l 458 440 l 458 488 q 451 533 458 511 q 428 570 444 554 q 390 593 413 586 q 346 600 368 600 q 306 596 325 600 q 269 580 286 592 q 243 549 253 568 q 233 511 233 531 l 233 508 l 79 508 l 79 515 q 89 578 79 547 q 117 637 99 610 q 162 683 135 664 q 219 713 189 701 q 281 729 249 725 q 346 733 314 733 q 415 728 381 733 q 480 710 449 724 q 538 673 511 696 q 581 620 564 650 q 606 556 599 590 q 613 488 613 522 l 613 0 l 458 0 l 458 114 q 429 62 447 86 q 387 21 411 38 q 333 -3 363 4 q 275 -11 304 -11 m 342 122 q 389 131 365 122 q 429 158 413 139 q 452 201 446 176 q 458 250 458 225 l 458 307 l 374 307 q 341 306 357 307 q 309 300 325 304 q 278 290 293 296 q 250 273 263 283 q 231 247 238 263 q 225 215 225 232 q 235 175 225 194 q 262 143 244 156 q 300 126 279 131 q 342 122 321 122 m 217 818 l 139 871 l 267 1063 l 428 1063 l 513 935 l 556 871 l 478 818 l 347 969 l 217 818 z "},"":{"ha":694,"x_min":71,"x_max":613,"o":"m 275 -11 q 192 2 233 -11 q 123 46 151 15 q 83 117 94 76 q 71 200 71 158 q 80 273 71 238 q 111 338 89 308 q 164 388 133 367 q 229 420 194 408 q 301 436 264 432 q 374 440 338 440 l 458 440 l 458 488 q 451 533 458 511 q 428 570 444 554 q 390 593 413 586 q 346 600 368 600 q 306 596 325 600 q 269 580 286 592 q 243 549 253 568 q 233 511 233 531 l 233 508 l 79 508 l 79 515 q 89 578 79 547 q 117 637 99 610 q 162 683 135 664 q 219 713 189 701 q 281 729 249 725 q 346 733 314 733 q 415 728 381 733 q 480 710 449 724 q 538 673 511 696 q 581 620 564 650 q 606 556 599 590 q 613 488 613 522 l 613 0 l 458 0 l 458 114 q 429 62 447 86 q 387 21 411 38 q 333 -3 363 4 q 275 -11 304 -11 m 342 122 q 389 131 365 122 q 429 158 413 139 q 452 201 446 176 q 458 250 458 225 l 458 307 l 374 307 q 341 306 357 307 q 309 300 325 304 q 278 290 293 296 q 250 273 263 283 q 231 247 238 263 q 225 215 225 232 q 235 175 225 194 q 262 143 244 156 q 300 126 279 131 q 342 122 321 122 m 426 829 q 413 830 419 829 q 401 832 407 831 q 388 835 394 833 q 376 840 382 838 q 364 847 369 843 q 353 853 358 850 q 342 861 347 857 q 332 870 338 865 q 322 880 326 875 q 314 890 318 885 q 306 898 310 894 q 298 908 303 901 q 288 921 293 915 q 278 931 282 926 q 268 941 274 936 q 263 947 263 946 l 272 947 q 268 942 272 946 q 259 934 264 939 q 253 927 254 929 q 249 922 251 925 q 245 917 247 919 q 241 910 243 914 q 236 903 239 907 q 231 896 233 900 q 225 887 228 892 q 219 877 222 882 q 214 867 217 872 q 208 857 211 863 q 202 845 206 851 q 196 833 199 839 l 82 883 q 107 929 94 908 q 131 967 119 950 q 156 998 143 983 q 185 1026 168 1013 q 224 1049 203 1040 q 268 1057 246 1057 q 281 1056 275 1057 q 294 1054 288 1056 q 306 1051 300 1053 q 319 1046 313 1049 q 331 1040 325 1043 q 342 1033 336 1036 q 352 1024 347 1029 q 363 1015 357 1019 q 372 1006 368 1010 q 381 997 376 1001 q 388 988 385 992 q 397 978 392 985 q 407 965 401 971 q 417 955 413 960 q 426 945 421 950 q 432 939 432 940 l 422 939 q 426 943 422 940 q 435 951 431 946 q 442 959 440 957 q 445 963 443 961 q 449 969 447 965 q 453 976 451 972 q 458 983 456 979 q 464 990 461 986 q 469 999 467 994 q 475 1008 472 1003 q 481 1018 478 1013 q 486 1029 483 1024 q 492 1040 489 1035 q 499 1053 496 1046 l 613 1003 q 588 957 600 978 q 563 919 575 936 q 539 888 551 903 q 509 859 526 872 q 470 838 492 846 q 426 829 449 829 z "},"":{"ha":694,"x_min":71,"x_max":613,"o":"m 275 -11 q 192 2 233 -11 q 123 46 151 15 q 83 117 94 76 q 71 200 71 158 q 80 273 71 238 q 111 338 89 308 q 164 388 133 367 q 229 420 194 408 q 301 436 264 432 q 374 440 338 440 l 458 440 l 458 488 q 451 533 458 511 q 428 570 444 554 q 390 593 413 586 q 346 600 368 600 q 306 596 325 600 q 269 580 286 592 q 243 549 253 568 q 233 511 233 531 l 233 508 l 79 508 l 79 515 q 89 578 79 547 q 117 637 99 610 q 162 683 135 664 q 219 713 189 701 q 281 729 249 725 q 346 733 314 733 q 415 728 381 733 q 480 710 449 724 q 538 673 511 696 q 581 620 564 650 q 606 556 599 590 q 613 488 613 522 l 613 0 l 458 0 l 458 114 q 429 62 447 86 q 387 21 411 38 q 333 -3 363 4 q 275 -11 304 -11 m 342 122 q 389 131 365 122 q 429 158 413 139 q 452 201 446 176 q 458 250 458 225 l 458 307 l 374 307 q 341 306 357 307 q 309 300 325 304 q 278 290 293 296 q 250 273 263 283 q 231 247 238 263 q 225 215 225 232 q 235 175 225 194 q 262 143 244 156 q 300 126 279 131 q 342 122 321 122 m 486 831 q 446 836 465 831 q 412 856 426 842 q 392 890 397 871 q 386 931 386 910 q 392 971 386 951 q 412 1005 397 990 q 446 1025 426 1019 q 486 1031 465 1031 q 526 1025 507 1031 q 560 1005 546 1019 q 581 971 575 990 q 586 931 586 951 q 581 890 586 910 q 560 856 575 871 q 526 836 546 842 q 486 831 507 831 m 208 831 q 168 836 188 831 q 134 856 149 842 q 114 890 119 871 q 108 931 108 910 q 114 971 108 951 q 134 1005 119 990 q 168 1025 149 1019 q 208 1031 188 1031 q 249 1025 229 1031 q 283 1005 268 1019 q 303 971 297 990 q 308 931 308 951 q 303 890 308 910 q 283 856 297 871 q 249 836 268 842 q 208 831 229 831 z "},"":{"ha":694,"x_min":71,"x_max":613,"o":"m 275 -11 q 192 2 233 -11 q 123 46 151 15 q 83 117 94 76 q 71 200 71 158 q 80 273 71 238 q 111 338 89 308 q 164 388 133 367 q 229 420 194 408 q 301 436 264 432 q 374 440 338 440 l 458 440 l 458 488 q 451 533 458 511 q 428 570 444 554 q 390 593 413 586 q 346 600 368 600 q 306 596 325 600 q 269 580 286 592 q 243 549 253 568 q 233 511 233 531 l 233 508 l 79 508 l 79 515 q 89 578 79 547 q 117 637 99 610 q 162 683 135 664 q 219 713 189 701 q 281 729 249 725 q 346 733 314 733 q 415 728 381 733 q 480 710 449 724 q 538 673 511 696 q 581 620 564 650 q 606 556 599 590 q 613 488 613 522 l 613 0 l 458 0 l 458 114 q 429 62 447 86 q 387 21 411 38 q 333 -3 363 4 q 275 -11 304 -11 m 342 122 q 389 131 365 122 q 429 158 413 139 q 452 201 446 176 q 458 250 458 225 l 458 307 l 374 307 q 341 306 357 307 q 309 300 325 304 q 278 290 293 296 q 250 273 263 283 q 231 247 238 263 q 225 215 225 232 q 235 175 225 194 q 262 143 244 156 q 300 126 279 131 q 342 122 321 122 m 347 792 q 292 800 319 792 q 245 828 265 808 q 217 876 225 849 q 208 931 208 903 q 217 985 208 958 q 245 1033 225 1013 q 292 1061 265 1053 q 347 1069 319 1069 q 402 1061 375 1069 q 449 1033 429 1053 q 478 985 469 1013 q 486 931 486 958 q 478 876 486 903 q 449 828 469 849 q 402 800 429 808 q 347 792 375 792 m 347 881 q 367 883 357 881 q 385 893 378 886 q 394 910 392 900 q 397 931 397 921 q 394 951 397 940 q 385 968 392 961 q 367 978 378 975 q 347 981 357 981 q 327 978 338 981 q 310 968 317 975 q 300 951 303 961 q 297 931 297 940 q 300 910 297 921 q 310 893 303 900 q 327 883 317 886 q 347 881 338 881 z "},"":{"ha":694,"x_min":47,"x_max":647,"o":"m 231 -11 q 178 -5 204 -11 q 128 16 151 1 q 90 53 106 31 q 64 100 74 75 q 51 151 54 125 q 47 206 47 178 q 51 264 47 235 q 67 319 56 293 q 97 369 78 346 q 142 406 117 392 q 196 426 167 421 q 254 432 225 432 l 279 432 l 279 560 q 278 580 279 569 q 271 599 276 590 q 256 613 265 608 q 236 617 246 617 q 210 603 219 617 q 197 574 201 589 q 192 544 193 560 q 190 513 190 529 l 190 508 l 56 508 q 54 514 54 511 q 54 519 54 517 q 59 572 54 546 q 73 622 64 597 q 98 669 82 647 q 135 706 114 690 q 183 727 157 721 q 236 733 210 733 q 297 726 267 733 q 351 701 326 719 q 405 726 375 719 q 464 733 435 733 q 515 728 490 733 q 563 710 540 724 q 602 677 585 697 q 630 633 619 657 q 644 585 640 610 q 647 533 647 560 l 647 303 l 415 303 l 415 189 q 417 162 415 175 q 423 136 418 149 q 438 115 428 124 q 463 106 449 106 q 488 119 478 106 q 503 147 499 132 q 508 178 507 163 q 510 210 510 193 l 510 214 l 644 214 q 646 208 646 211 q 646 203 646 206 q 641 150 646 176 q 626 99 636 124 q 601 53 617 75 q 563 17 585 32 q 515 -5 542 1 q 463 -11 489 -11 q 399 -3 431 -11 q 344 26 368 6 q 291 -2 321 7 q 231 -11 261 -11 m 415 419 l 513 419 l 513 533 q 511 560 513 547 q 504 586 510 574 q 488 608 499 599 q 464 617 478 617 q 440 608 450 617 q 424 586 429 599 q 417 560 418 574 q 415 533 415 547 l 415 419 m 231 106 q 258 120 247 106 q 272 151 268 135 q 278 183 276 167 q 279 217 279 200 l 279 317 l 254 317 q 220 307 236 317 q 195 281 204 297 q 184 247 186 265 q 182 211 182 229 q 183 178 182 194 q 190 147 185 163 q 205 119 194 132 q 231 106 215 106 z "},"":{"ha":694,"x_min":71,"x_max":615,"o":"m 343 -11 q 268 -4 306 -11 q 198 22 231 3 q 140 69 165 40 q 98 131 114 97 q 76 203 82 165 q 71 278 71 240 l 71 444 q 76 519 71 482 q 98 591 82 557 q 140 653 114 625 q 198 701 165 682 q 268 726 231 719 q 343 733 306 733 q 415 727 379 733 q 482 705 450 721 q 540 664 514 689 q 582 607 565 639 q 607 540 599 575 q 615 469 615 506 l 615 460 l 461 460 l 461 464 q 454 515 461 490 q 432 560 447 540 q 392 590 417 579 q 343 600 368 600 q 290 587 315 600 q 251 550 265 574 q 231 499 236 526 q 225 444 225 472 l 225 278 q 231 223 225 250 q 251 172 236 196 q 290 135 265 149 q 343 122 315 122 q 392 133 368 122 q 432 163 417 143 q 454 207 447 182 q 461 258 461 232 l 461 263 l 615 263 l 615 253 q 607 182 615 217 q 582 115 599 147 q 540 58 565 83 q 482 17 514 33 q 415 -5 450 1 q 343 -11 379 -11 m 208 -306 l 208 -196 l 347 -196 q 364 -194 356 -196 q 380 -189 372 -193 q 392 -177 388 -185 q 397 -161 397 -169 q 393 -143 397 -151 q 382 -129 389 -135 q 366 -122 375 -124 q 347 -119 357 -119 l 283 -119 l 283 122 l 411 122 l 411 -64 q 447 -80 429 -69 q 476 -106 464 -90 q 492 -142 488 -122 q 497 -181 497 -161 q 486 -235 497 -208 q 453 -277 475 -261 q 403 -299 431 -293 q 347 -306 375 -306 l 208 -306 z "},"":{"ha":694,"x_min":71,"x_max":624,"o":"m 347 -11 q 271 -4 308 -11 q 200 21 233 3 q 141 67 167 39 q 99 131 115 96 q 77 203 83 165 q 71 278 71 240 l 71 444 q 77 520 71 482 q 99 592 83 558 q 141 655 115 626 q 200 701 167 683 q 272 726 233 719 q 347 733 310 733 q 423 726 385 733 q 494 701 461 719 q 553 655 528 683 q 595 592 579 626 q 617 520 611 558 q 624 444 624 482 l 624 294 l 225 294 l 225 278 q 231 222 225 250 q 251 171 236 194 q 293 135 267 147 q 347 122 319 122 q 389 126 368 122 q 427 142 410 131 q 455 174 444 154 q 467 214 465 193 l 621 214 q 611 149 621 181 q 582 89 601 117 q 535 42 563 61 q 477 10 508 22 q 413 -7 446 -3 q 347 -11 381 -11 m 225 428 l 469 428 l 469 444 q 464 500 469 472 q 442 551 458 528 q 401 588 426 575 q 347 600 375 600 q 294 588 319 600 q 252 551 268 575 q 231 500 236 528 q 225 444 225 472 l 225 428 m 365 800 l 175 986 l 276 1069 l 450 867 l 365 800 z "},"":{"ha":694,"x_min":71,"x_max":624,"o":"m 347 -11 q 271 -4 308 -11 q 200 21 233 3 q 141 67 167 39 q 99 131 115 96 q 77 203 83 165 q 71 278 71 240 l 71 444 q 77 520 71 482 q 99 592 83 558 q 141 655 115 626 q 200 701 167 683 q 272 726 233 719 q 347 733 310 733 q 423 726 385 733 q 494 701 461 719 q 553 655 528 683 q 595 592 579 626 q 617 520 611 558 q 624 444 624 482 l 624 294 l 225 294 l 225 278 q 231 222 225 250 q 251 171 236 194 q 293 135 267 147 q 347 122 319 122 q 389 126 368 122 q 427 142 410 131 q 455 174 444 154 q 467 214 465 193 l 621 214 q 611 149 621 181 q 582 89 601 117 q 535 42 563 61 q 477 10 508 22 q 413 -7 446 -3 q 347 -11 381 -11 m 225 428 l 469 428 l 469 444 q 464 500 469 472 q 442 551 458 528 q 401 588 426 575 q 347 600 375 600 q 294 588 319 600 q 252 551 268 575 q 231 500 236 528 q 225 444 225 472 l 225 428 m 329 800 l 244 867 l 418 1069 l 519 986 l 329 800 z "},"":{"ha":694,"x_min":71,"x_max":624,"o":"m 347 -11 q 271 -4 308 -11 q 200 21 233 3 q 141 67 167 39 q 99 131 115 96 q 77 203 83 165 q 71 278 71 240 l 71 444 q 77 520 71 482 q 99 592 83 558 q 141 655 115 626 q 200 701 167 683 q 272 726 233 719 q 347 733 310 733 q 423 726 385 733 q 494 701 461 719 q 553 655 528 683 q 595 592 579 626 q 617 520 611 558 q 624 444 624 482 l 624 294 l 225 294 l 225 278 q 231 222 225 250 q 251 171 236 194 q 293 135 267 147 q 347 122 319 122 q 389 126 368 122 q 427 142 410 131 q 455 174 444 154 q 467 214 465 193 l 621 214 q 611 149 621 181 q 582 89 601 117 q 535 42 563 61 q 477 10 508 22 q 413 -7 446 -3 q 347 -11 381 -11 m 225 428 l 469 428 l 469 444 q 464 500 469 472 q 442 551 458 528 q 401 588 426 575 q 347 600 375 600 q 294 588 319 600 q 252 551 268 575 q 231 500 236 528 q 225 444 225 472 l 225 428 m 217 818 l 139 871 l 267 1063 l 428 1063 l 513 935 l 556 871 l 478 818 l 347 969 l 217 818 z "},"":{"ha":694,"x_min":71,"x_max":624,"o":"m 347 -11 q 271 -4 308 -11 q 200 21 233 3 q 141 67 167 39 q 99 131 115 96 q 77 203 83 165 q 71 278 71 240 l 71 444 q 77 520 71 482 q 99 592 83 558 q 141 655 115 626 q 200 701 167 683 q 272 726 233 719 q 347 733 310 733 q 423 726 385 733 q 494 701 461 719 q 553 655 528 683 q 595 592 579 626 q 617 520 611 558 q 624 444 624 482 l 624 294 l 225 294 l 225 278 q 231 222 225 250 q 251 171 236 194 q 293 135 267 147 q 347 122 319 122 q 389 126 368 122 q 427 142 410 131 q 455 174 444 154 q 467 214 465 193 l 621 214 q 611 149 621 181 q 582 89 601 117 q 535 42 563 61 q 477 10 508 22 q 413 -7 446 -3 q 347 -11 381 -11 m 225 428 l 469 428 l 469 444 q 464 500 469 472 q 442 551 458 528 q 401 588 426 575 q 347 600 375 600 q 294 588 319 600 q 252 551 268 575 q 231 500 236 528 q 225 444 225 472 l 225 428 m 486 831 q 446 836 465 831 q 412 856 426 842 q 392 890 397 871 q 386 931 386 910 q 392 971 386 951 q 412 1005 397 990 q 446 1025 426 1019 q 486 1031 465 1031 q 526 1025 507 1031 q 560 1005 546 1019 q 581 971 575 990 q 586 931 586 951 q 581 890 586 910 q 560 856 575 871 q 526 836 546 842 q 486 831 507 831 m 208 831 q 168 836 188 831 q 134 856 149 842 q 114 890 119 871 q 108 931 108 910 q 114 971 108 951 q 134 1005 119 990 q 168 1025 149 1019 q 208 1031 188 1031 q 249 1025 229 1031 q 283 1005 268 1019 q 303 971 297 990 q 308 931 308 951 q 303 890 308 910 q 283 856 297 871 q 249 836 268 842 q 208 831 229 831 z "},"":{"ha":694,"x_min":104,"x_max":590,"o":"m 104 0 l 104 133 l 279 133 l 279 589 l 124 589 l 124 722 l 435 722 l 435 133 l 590 133 l 590 0 l 104 0 m 372 800 l 182 986 l 283 1069 l 457 867 l 372 800 z "},"":{"ha":694,"x_min":104,"x_max":590,"o":"m 104 0 l 104 133 l 279 133 l 279 589 l 124 589 l 124 722 l 435 722 l 435 133 l 590 133 l 590 0 l 104 0 m 336 800 l 251 867 l 425 1069 l 526 986 l 336 800 z "},"":{"ha":694,"x_min":104,"x_max":590,"o":"m 104 0 l 104 133 l 279 133 l 279 589 l 124 589 l 124 722 l 435 722 l 435 133 l 590 133 l 590 0 l 104 0 m 224 818 l 146 871 l 274 1063 l 435 1063 l 519 935 l 563 871 l 485 818 l 354 969 l 224 818 z "},"":{"ha":694,"x_min":104,"x_max":590,"o":"m 104 0 l 104 133 l 279 133 l 279 589 l 124 589 l 124 722 l 435 722 l 435 133 l 590 133 l 590 0 l 104 0 m 486 831 q 446 836 465 831 q 412 856 426 842 q 392 890 397 871 q 386 931 386 910 q 392 971 386 951 q 412 1005 397 990 q 446 1025 426 1019 q 486 1031 465 1031 q 526 1025 507 1031 q 560 1005 546 1019 q 581 971 575 990 q 586 931 586 951 q 581 890 586 910 q 560 856 575 871 q 526 836 546 842 q 486 831 507 831 m 208 831 q 168 836 188 831 q 134 856 149 842 q 114 890 119 871 q 108 931 108 910 q 114 971 108 951 q 134 1005 119 990 q 168 1025 149 1019 q 208 1031 188 1031 q 249 1025 229 1031 q 283 1005 268 1019 q 303 971 297 990 q 308 931 308 951 q 303 890 308 910 q 283 856 297 871 q 249 836 268 842 q 208 831 229 831 z "},"":{"ha":694,"x_min":71,"x_max":624,"o":"m 347 -11 q 267 -2 307 -11 q 194 28 228 7 q 135 83 160 50 q 95 153 110 115 q 76 231 81 190 q 71 311 71 271 q 74 382 71 347 q 87 451 78 417 q 112 517 96 485 q 153 574 128 549 q 212 611 178 599 q 281 624 246 624 q 340 615 311 624 q 393 588 369 607 q 433 544 417 569 q 461 492 450 519 q 435 610 453 551 q 386 719 417 668 l 150 657 l 119 757 l 317 810 q 253 859 288 838 q 181 894 218 881 l 229 1021 q 365 955 301 999 q 478 851 429 911 l 571 876 l 601 776 l 538 760 q 580 662 563 713 q 608 558 597 611 q 621 452 618 506 q 624 344 624 399 l 624 307 q 618 227 624 267 q 598 150 613 188 q 558 81 583 113 q 499 28 533 49 q 426 -2 465 7 q 347 -11 388 -11 m 347 122 q 388 130 368 122 q 422 152 407 138 q 445 185 436 167 q 460 224 454 204 q 467 265 465 244 q 469 306 469 286 q 467 347 469 326 q 460 388 465 368 q 445 427 454 408 q 422 460 436 446 q 388 483 407 475 q 347 490 368 490 q 307 483 326 490 q 273 460 288 475 q 249 427 258 446 q 235 388 240 408 q 227 348 229 368 q 225 307 225 328 q 227 265 225 286 q 235 224 229 244 q 249 185 240 204 q 273 152 258 167 q 307 130 288 138 q 347 122 326 122 z "},"":{"ha":694,"x_min":82,"x_max":613,"o":"m 82 0 l 82 722 l 236 722 l 236 597 q 263 651 247 625 q 302 697 279 678 q 354 724 325 715 q 414 733 383 733 q 478 722 447 733 q 534 688 510 711 q 574 636 558 665 q 598 575 589 607 q 610 510 607 543 q 613 444 613 478 l 613 0 l 458 0 l 458 444 q 456 481 458 463 q 449 516 454 499 q 435 549 444 533 q 413 576 426 564 q 383 594 400 589 q 347 600 365 600 q 312 594 329 600 q 281 576 294 589 q 259 549 268 564 q 245 516 250 533 q 238 481 240 499 q 236 444 236 463 l 236 0 l 82 0 m 426 829 q 413 830 419 829 q 401 832 407 831 q 388 835 394 833 q 376 840 382 838 q 364 847 369 843 q 353 853 358 850 q 342 861 347 857 q 332 870 338 865 q 322 880 326 875 q 314 890 318 885 q 306 898 310 894 q 298 908 303 901 q 288 921 293 915 q 278 931 282 926 q 268 941 274 936 q 263 947 263 946 l 272 947 q 268 942 272 946 q 259 934 264 939 q 253 927 254 929 q 249 922 251 925 q 245 917 247 919 q 241 910 243 914 q 236 903 239 907 q 231 896 233 900 q 225 887 228 892 q 219 877 222 882 q 214 867 217 872 q 208 857 211 863 q 202 845 206 851 q 196 833 199 839 l 82 883 q 107 929 94 908 q 131 967 119 950 q 156 998 143 983 q 185 1026 168 1013 q 224 1049 203 1040 q 268 1057 246 1057 q 281 1056 275 1057 q 294 1054 288 1056 q 306 1051 300 1053 q 319 1046 313 1049 q 331 1040 325 1043 q 342 1033 336 1036 q 352 1024 347 1029 q 363 1015 357 1019 q 372 1006 368 1010 q 381 997 376 1001 q 388 988 385 992 q 397 978 392 985 q 407 965 401 971 q 417 955 413 960 q 426 945 421 950 q 432 939 432 940 l 422 939 q 426 943 422 940 q 435 951 431 946 q 442 959 440 957 q 445 963 443 961 q 449 969 447 965 q 453 976 451 972 q 458 983 456 979 q 464 990 461 986 q 469 999 467 994 q 475 1008 472 1003 q 481 1018 478 1013 q 486 1029 483 1024 q 492 1040 489 1035 q 499 1053 496 1046 l 613 1003 q 588 957 600 978 q 563 919 575 936 q 539 888 551 903 q 509 859 526 872 q 470 838 492 846 q 426 829 449 829 z "},"":{"ha":694,"x_min":71,"x_max":624,"o":"m 347 -11 q 272 -4 310 -11 q 200 21 233 3 q 141 67 167 39 q 99 130 115 96 q 77 202 83 164 q 71 278 71 240 l 71 444 q 77 520 71 482 q 99 592 83 558 q 141 655 115 626 q 200 701 167 683 q 272 726 233 719 q 347 733 310 733 q 423 726 385 733 q 494 701 461 719 q 553 655 528 683 q 595 592 579 626 q 617 520 611 558 q 624 444 624 482 l 624 278 q 617 202 624 240 q 595 130 611 164 q 553 67 579 96 q 494 21 528 39 q 423 -4 461 3 q 347 -11 385 -11 m 347 122 q 401 135 375 122 q 442 171 426 147 q 464 222 458 194 q 469 278 469 250 l 469 444 q 464 500 469 472 q 442 551 458 528 q 401 588 426 575 q 347 600 375 600 q 294 588 319 600 q 252 551 268 575 q 231 500 236 528 q 225 444 225 472 l 225 278 q 231 222 225 250 q 252 171 236 194 q 294 135 268 147 q 347 122 319 122 m 365 800 l 175 986 l 276 1069 l 450 867 l 365 800 z "},"":{"ha":694,"x_min":71,"x_max":624,"o":"m 347 -11 q 272 -4 310 -11 q 200 21 233 3 q 141 67 167 39 q 99 130 115 96 q 77 202 83 164 q 71 278 71 240 l 71 444 q 77 520 71 482 q 99 592 83 558 q 141 655 115 626 q 200 701 167 683 q 272 726 233 719 q 347 733 310 733 q 423 726 385 733 q 494 701 461 719 q 553 655 528 683 q 595 592 579 626 q 617 520 611 558 q 624 444 624 482 l 624 278 q 617 202 624 240 q 595 130 611 164 q 553 67 579 96 q 494 21 528 39 q 423 -4 461 3 q 347 -11 385 -11 m 347 122 q 401 135 375 122 q 442 171 426 147 q 464 222 458 194 q 469 278 469 250 l 469 444 q 464 500 469 472 q 442 551 458 528 q 401 588 426 575 q 347 600 375 600 q 294 588 319 600 q 252 551 268 575 q 231 500 236 528 q 225 444 225 472 l 225 278 q 231 222 225 250 q 252 171 236 194 q 294 135 268 147 q 347 122 319 122 m 329 800 l 244 867 l 418 1069 l 519 986 l 329 800 z "},"":{"ha":694,"x_min":71,"x_max":624,"o":"m 347 -11 q 272 -4 310 -11 q 200 21 233 3 q 141 67 167 39 q 99 130 115 96 q 77 202 83 164 q 71 278 71 240 l 71 444 q 77 520 71 482 q 99 592 83 558 q 141 655 115 626 q 200 701 167 683 q 272 726 233 719 q 347 733 310 733 q 423 726 385 733 q 494 701 461 719 q 553 655 528 683 q 595 592 579 626 q 617 520 611 558 q 624 444 624 482 l 624 278 q 617 202 624 240 q 595 130 611 164 q 553 67 579 96 q 494 21 528 39 q 423 -4 461 3 q 347 -11 385 -11 m 347 122 q 401 135 375 122 q 442 171 426 147 q 464 222 458 194 q 469 278 469 250 l 469 444 q 464 500 469 472 q 442 551 458 528 q 401 588 426 575 q 347 600 375 600 q 294 588 319 600 q 252 551 268 575 q 231 500 236 528 q 225 444 225 472 l 225 278 q 231 222 225 250 q 252 171 236 194 q 294 135 268 147 q 347 122 319 122 m 217 818 l 139 871 l 267 1063 l 428 1063 l 513 935 l 556 871 l 478 818 l 347 969 l 217 818 z "},"":{"ha":694,"x_min":71,"x_max":624,"o":"m 347 -11 q 272 -4 310 -11 q 200 21 233 3 q 141 67 167 39 q 99 130 115 96 q 77 202 83 164 q 71 278 71 240 l 71 444 q 77 520 71 482 q 99 592 83 558 q 141 655 115 626 q 200 701 167 683 q 272 726 233 719 q 347 733 310 733 q 423 726 385 733 q 494 701 461 719 q 553 655 528 683 q 595 592 579 626 q 617 520 611 558 q 624 444 624 482 l 624 278 q 617 202 624 240 q 595 130 611 164 q 553 67 579 96 q 494 21 528 39 q 423 -4 461 3 q 347 -11 385 -11 m 347 122 q 401 135 375 122 q 442 171 426 147 q 464 222 458 194 q 469 278 469 250 l 469 444 q 464 500 469 472 q 442 551 458 528 q 401 588 426 575 q 347 600 375 600 q 294 588 319 600 q 252 551 268 575 q 231 500 236 528 q 225 444 225 472 l 225 278 q 231 222 225 250 q 252 171 236 194 q 294 135 268 147 q 347 122 319 122 m 426 829 q 413 830 419 829 q 401 832 407 831 q 388 835 394 833 q 376 840 382 838 q 364 847 369 843 q 353 853 358 850 q 342 861 347 857 q 332 870 338 865 q 322 880 326 875 q 314 890 318 885 q 306 898 310 894 q 298 908 303 901 q 288 921 293 915 q 278 931 282 926 q 268 941 274 936 q 263 947 263 946 l 272 947 q 268 942 272 946 q 259 934 264 939 q 253 927 254 929 q 249 922 251 925 q 245 917 247 919 q 241 910 243 914 q 236 903 239 907 q 231 896 233 900 q 225 887 228 892 q 219 877 222 882 q 214 867 217 872 q 208 857 211 863 q 202 845 206 851 q 196 833 199 839 l 82 883 q 107 929 94 908 q 131 967 119 950 q 156 998 143 983 q 185 1026 168 1013 q 224 1049 203 1040 q 268 1057 246 1057 q 281 1056 275 1057 q 294 1054 288 1056 q 306 1051 300 1053 q 319 1046 313 1049 q 331 1040 325 1043 q 342 1033 336 1036 q 352 1024 347 1029 q 363 1015 357 1019 q 372 1006 368 1010 q 381 997 376 1001 q 388 988 385 992 q 397 978 392 985 q 407 965 401 971 q 417 955 413 960 q 426 945 421 950 q 432 939 432 940 l 422 939 q 426 943 422 940 q 435 951 431 946 q 442 959 440 957 q 445 963 443 961 q 449 969 447 965 q 453 976 451 972 q 458 983 456 979 q 464 990 461 986 q 469 999 467 994 q 475 1008 472 1003 q 481 1018 478 1013 q 486 1029 483 1024 q 492 1040 489 1035 q 499 1053 496 1046 l 613 1003 q 588 957 600 978 q 563 919 575 936 q 539 888 551 903 q 509 859 526 872 q 470 838 492 846 q 426 829 449 829 z "},"":{"ha":694,"x_min":71,"x_max":624,"o":"m 347 -11 q 272 -4 310 -11 q 200 21 233 3 q 141 67 167 39 q 99 130 115 96 q 77 202 83 164 q 71 278 71 240 l 71 444 q 77 520 71 482 q 99 592 83 558 q 141 655 115 626 q 200 701 167 683 q 272 726 233 719 q 347 733 310 733 q 423 726 385 733 q 494 701 461 719 q 553 655 528 683 q 595 592 579 626 q 617 520 611 558 q 624 444 624 482 l 624 278 q 617 202 624 240 q 595 130 611 164 q 553 67 579 96 q 494 21 528 39 q 423 -4 461 3 q 347 -11 385 -11 m 347 122 q 401 135 375 122 q 442 171 426 147 q 464 222 458 194 q 469 278 469 250 l 469 444 q 464 500 469 472 q 442 551 458 528 q 401 588 426 575 q 347 600 375 600 q 294 588 319 600 q 252 551 268 575 q 231 500 236 528 q 225 444 225 472 l 225 278 q 231 222 225 250 q 252 171 236 194 q 294 135 268 147 q 347 122 319 122 m 486 831 q 446 836 465 831 q 412 856 426 842 q 392 890 397 871 q 386 931 386 910 q 392 971 386 951 q 412 1005 397 990 q 446 1025 426 1019 q 486 1031 465 1031 q 526 1025 507 1031 q 560 1005 546 1019 q 581 971 575 990 q 586 931 586 951 q 581 890 586 910 q 560 856 575 871 q 526 836 546 842 q 486 831 507 831 m 208 831 q 168 836 188 831 q 134 856 149 842 q 114 890 119 871 q 108 931 108 910 q 114 971 108 951 q 134 1005 119 990 q 168 1025 149 1019 q 208 1031 188 1031 q 249 1025 229 1031 q 283 1005 268 1019 q 303 971 297 990 q 308 931 308 951 q 303 890 308 910 q 283 856 297 871 q 249 836 268 842 q 208 831 229 831 z "},"":{"ha":694,"x_min":82,"x_max":613,"o":"m 347 626 q 303 633 325 626 q 265 655 281 639 q 242 693 249 671 q 236 738 236 715 q 242 782 236 760 q 265 820 249 804 q 303 842 281 836 q 347 849 325 849 q 392 842 369 849 q 430 820 414 836 q 452 782 446 804 q 458 738 458 760 q 452 693 458 715 q 430 655 446 671 q 392 633 414 639 q 347 626 369 626 m 82 413 l 82 532 l 613 532 l 613 413 l 82 413 m 347 96 q 303 102 325 96 q 265 124 281 108 q 242 163 249 140 q 236 207 236 185 q 242 251 236 229 q 265 290 249 274 q 303 312 281 306 q 347 318 325 318 q 392 312 369 318 q 430 290 414 306 q 452 251 446 274 q 458 207 458 229 q 452 163 458 185 q 430 124 446 140 q 392 102 414 108 q 347 96 369 96 z "},"":{"ha":694,"x_min":71,"x_max":624,"o":"m 175 -61 l 71 -11 l 125 86 q 99 130 110 107 q 82 177 89 153 q 73 227 75 201 q 71 278 71 253 l 71 444 q 77 520 71 482 q 99 592 83 558 q 141 655 115 626 q 200 701 167 683 q 272 726 233 719 q 347 733 310 733 q 414 728 381 733 q 478 710 447 722 l 519 783 l 624 733 l 569 636 q 595 592 585 615 q 613 545 606 569 q 622 495 619 521 q 624 444 624 469 l 624 278 q 617 202 624 240 q 595 130 611 164 q 553 67 579 96 q 494 21 528 39 q 423 -4 461 3 q 347 -11 385 -11 q 281 -6 314 -11 q 217 13 247 0 l 175 -61 m 226 264 l 407 585 q 378 597 394 593 q 347 600 363 600 q 294 588 319 600 q 252 551 268 575 q 231 500 236 528 q 226 444 226 472 l 226 264 m 347 122 q 401 135 375 122 q 442 171 426 147 q 463 222 458 194 q 468 278 468 250 l 468 458 l 288 138 q 316 126 300 129 q 347 122 332 122 z "},"":{"ha":694,"x_min":82,"x_max":613,"o":"m 281 -11 q 216 0 247 -11 q 160 34 185 11 q 121 86 136 57 q 97 147 106 115 q 85 212 88 179 q 82 278 82 244 l 82 722 l 236 722 l 236 278 q 238 242 236 260 q 245 206 240 224 q 259 174 250 189 q 281 146 268 158 q 312 128 294 133 q 347 122 329 122 q 383 128 365 122 q 413 146 400 133 q 435 174 426 158 q 449 206 444 189 q 456 242 454 224 q 458 278 458 260 l 458 722 l 613 722 l 613 0 l 458 0 l 458 125 q 431 71 447 97 q 392 26 415 44 q 340 -2 369 7 q 281 -11 311 -11 m 365 800 l 175 986 l 276 1069 l 450 867 l 365 800 z "},"":{"ha":694,"x_min":82,"x_max":613,"o":"m 281 -11 q 216 0 247 -11 q 160 34 185 11 q 121 86 136 57 q 97 147 106 115 q 85 212 88 179 q 82 278 82 244 l 82 722 l 236 722 l 236 278 q 238 242 236 260 q 245 206 240 224 q 259 174 250 189 q 281 146 268 158 q 312 128 294 133 q 347 122 329 122 q 383 128 365 122 q 413 146 400 133 q 435 174 426 158 q 449 206 444 189 q 456 242 454 224 q 458 278 458 260 l 458 722 l 613 722 l 613 0 l 458 0 l 458 125 q 431 71 447 97 q 392 26 415 44 q 340 -2 369 7 q 281 -11 311 -11 m 329 800 l 244 867 l 418 1069 l 519 986 l 329 800 z "},"":{"ha":694,"x_min":82,"x_max":613,"o":"m 281 -11 q 216 0 247 -11 q 160 34 185 11 q 121 86 136 57 q 97 147 106 115 q 85 212 88 179 q 82 278 82 244 l 82 722 l 236 722 l 236 278 q 238 242 236 260 q 245 206 240 224 q 259 174 250 189 q 281 146 268 158 q 312 128 294 133 q 347 122 329 122 q 383 128 365 122 q 413 146 400 133 q 435 174 426 158 q 449 206 444 189 q 456 242 454 224 q 458 278 458 260 l 458 722 l 613 722 l 613 0 l 458 0 l 458 125 q 431 71 447 97 q 392 26 415 44 q 340 -2 369 7 q 281 -11 311 -11 m 217 818 l 139 871 l 267 1063 l 428 1063 l 513 935 l 556 871 l 478 818 l 347 969 l 217 818 z "},"":{"ha":694,"x_min":82,"x_max":613,"o":"m 281 -11 q 216 0 247 -11 q 160 34 185 11 q 121 86 136 57 q 97 147 106 115 q 85 212 88 179 q 82 278 82 244 l 82 722 l 236 722 l 236 278 q 238 242 236 260 q 245 206 240 224 q 259 174 250 189 q 281 146 268 158 q 312 128 294 133 q 347 122 329 122 q 383 128 365 122 q 413 146 400 133 q 435 174 426 158 q 449 206 444 189 q 456 242 454 224 q 458 278 458 260 l 458 722 l 613 722 l 613 0 l 458 0 l 458 125 q 431 71 447 97 q 392 26 415 44 q 340 -2 369 7 q 281 -11 311 -11 m 486 831 q 446 836 465 831 q 412 856 426 842 q 392 890 397 871 q 386 931 386 910 q 392 971 386 951 q 412 1005 397 990 q 446 1025 426 1019 q 486 1031 465 1031 q 526 1025 507 1031 q 560 1005 546 1019 q 581 971 575 990 q 586 931 586 951 q 581 890 586 910 q 560 856 575 871 q 526 836 546 842 q 486 831 507 831 m 208 831 q 168 836 188 831 q 134 856 149 842 q 114 890 119 871 q 108 931 108 910 q 114 971 108 951 q 134 1005 119 990 q 168 1025 149 1019 q 208 1031 188 1031 q 249 1025 229 1031 q 283 1005 268 1019 q 303 971 297 990 q 308 931 308 951 q 303 890 308 910 q 283 856 297 871 q 249 836 268 842 q 208 831 229 831 z "},"":{"ha":694,"x_min":65,"x_max":629,"o":"m 188 -299 q 217 -198 203 -249 q 244 -97 231 -147 l 269 -4 l 65 722 l 225 722 l 351 192 l 469 722 l 629 722 l 347 -299 l 188 -299 m 329 800 l 244 867 l 418 1069 l 519 986 l 329 800 z "},"":{"ha":694,"x_min":82,"x_max":624,"o":"m 82 -299 l 82 1021 l 236 1021 l 236 596 q 264 651 247 625 q 304 696 281 676 q 358 724 328 715 q 419 733 389 733 q 485 723 453 733 q 542 690 517 713 q 583 638 567 667 q 608 576 599 608 q 620 511 617 544 q 624 444 624 478 l 624 278 q 620 211 624 244 q 608 146 617 178 q 583 85 599 114 q 542 33 567 56 q 485 -1 517 10 q 419 -11 453 -11 q 358 -2 389 -11 q 304 26 328 7 q 264 72 281 46 q 236 126 247 97 l 236 -299 l 82 -299 m 353 122 q 406 135 381 122 q 444 172 431 149 q 464 223 458 196 q 469 278 469 250 l 469 444 q 464 499 469 472 q 444 550 458 526 q 406 587 431 574 q 353 600 381 600 q 300 587 325 600 q 261 550 275 574 q 242 499 247 526 q 236 444 236 472 l 236 278 q 242 223 236 250 q 261 172 247 196 q 300 135 275 149 q 353 122 325 122 z "},"":{"ha":694,"x_min":65,"x_max":629,"o":"m 188 -299 q 217 -198 203 -249 q 244 -97 231 -147 l 269 -4 l 65 722 l 225 722 l 351 192 l 469 722 l 629 722 l 347 -299 l 188 -299 m 486 831 q 446 836 465 831 q 412 856 426 842 q 392 890 397 871 q 386 931 386 910 q 392 971 386 951 q 412 1005 397 990 q 446 1025 426 1019 q 486 1031 465 1031 q 526 1025 507 1031 q 560 1005 546 1019 q 581 971 575 990 q 586 931 586 951 q 581 890 586 910 q 560 856 575 871 q 526 836 546 842 q 486 831 507 831 m 208 831 q 168 836 188 831 q 134 856 149 842 q 114 890 119 871 q 108 931 108 910 q 114 971 108 951 q 134 1005 119 990 q 168 1025 149 1019 q 208 1031 188 1031 q 249 1025 229 1031 q 283 1005 268 1019 q 303 971 297 990 q 308 931 308 951 q 303 890 308 910 q 283 856 297 871 q 249 836 268 842 q 208 831 229 831 z "},"":{"ha":694,"x_min":51,"x_max":643,"o":"m 51 0 l 258 1021 l 436 1021 l 643 0 l 485 0 l 446 228 l 249 228 l 210 0 l 51 0 m 422 361 l 368 681 q 358 738 363 710 q 347 796 353 767 q 337 738 342 767 q 326 681 332 710 l 272 361 l 422 361 m 139 1175 l 139 1283 l 556 1283 l 556 1175 l 139 1175 z "},"":{"ha":694,"x_min":71,"x_max":613,"o":"m 275 -11 q 192 2 233 -11 q 123 46 151 15 q 83 117 94 76 q 71 200 71 158 q 80 273 71 238 q 111 338 89 308 q 164 388 133 367 q 229 420 194 408 q 301 436 264 432 q 374 440 338 440 l 458 440 l 458 488 q 451 533 458 511 q 428 570 444 554 q 390 593 413 586 q 346 600 368 600 q 306 596 325 600 q 269 580 286 592 q 243 549 253 568 q 233 511 233 531 l 233 508 l 79 508 l 79 515 q 89 578 79 547 q 117 637 99 610 q 162 683 135 664 q 219 713 189 701 q 281 729 249 725 q 346 733 314 733 q 415 728 381 733 q 480 710 449 724 q 538 673 511 696 q 581 620 564 650 q 606 556 599 590 q 613 488 613 522 l 613 0 l 458 0 l 458 114 q 429 62 447 86 q 387 21 411 38 q 333 -3 363 4 q 275 -11 304 -11 m 342 122 q 389 131 365 122 q 429 158 413 139 q 452 201 446 176 q 458 250 458 225 l 458 307 l 374 307 q 341 306 357 307 q 309 300 325 304 q 278 290 293 296 q 250 273 263 283 q 231 247 238 263 q 225 215 225 232 q 235 175 225 194 q 262 143 244 156 q 300 126 279 131 q 342 122 321 122 m 139 876 l 139 985 l 556 985 l 556 876 l 139 876 z "},"":{"ha":694,"x_min":51,"x_max":643,"o":"m 51 0 l 258 1021 l 436 1021 l 643 0 l 485 0 l 446 228 l 249 228 l 210 0 l 51 0 m 422 361 l 368 681 q 358 738 363 710 q 347 796 353 767 q 337 738 342 767 q 326 681 332 710 l 272 361 l 422 361 m 347 1132 q 290 1135 318 1132 q 235 1149 261 1139 q 185 1177 208 1160 q 147 1218 163 1194 q 124 1269 131 1242 q 117 1326 117 1297 l 244 1326 q 252 1290 244 1307 q 275 1261 260 1272 q 309 1246 290 1250 q 347 1242 328 1242 q 385 1246 367 1242 q 419 1261 404 1250 q 442 1290 435 1272 q 450 1326 450 1307 l 578 1326 q 571 1269 578 1297 q 548 1218 564 1242 q 509 1177 532 1194 q 460 1149 486 1160 q 405 1135 433 1139 q 347 1132 376 1132 z "},"":{"ha":694,"x_min":71,"x_max":613,"o":"m 275 -11 q 192 2 233 -11 q 123 46 151 15 q 83 117 94 76 q 71 200 71 158 q 80 273 71 238 q 111 338 89 308 q 164 388 133 367 q 229 420 194 408 q 301 436 264 432 q 374 440 338 440 l 458 440 l 458 488 q 451 533 458 511 q 428 570 444 554 q 390 593 413 586 q 346 600 368 600 q 306 596 325 600 q 269 580 286 592 q 243 549 253 568 q 233 511 233 531 l 233 508 l 79 508 l 79 515 q 89 578 79 547 q 117 637 99 610 q 162 683 135 664 q 219 713 189 701 q 281 729 249 725 q 346 733 314 733 q 415 728 381 733 q 480 710 449 724 q 538 673 511 696 q 581 620 564 650 q 606 556 599 590 q 613 488 613 522 l 613 0 l 458 0 l 458 114 q 429 62 447 86 q 387 21 411 38 q 333 -3 363 4 q 275 -11 304 -11 m 342 122 q 389 131 365 122 q 429 158 413 139 q 452 201 446 176 q 458 250 458 225 l 458 307 l 374 307 q 341 306 357 307 q 309 300 325 304 q 278 290 293 296 q 250 273 263 283 q 231 247 238 263 q 225 215 225 232 q 235 175 225 194 q 262 143 244 156 q 300 126 279 131 q 342 122 321 122 m 347 833 q 290 837 318 833 q 235 851 261 840 q 185 878 208 861 q 147 919 163 896 q 124 971 131 943 q 117 1028 117 999 l 244 1028 q 252 991 244 1008 q 275 963 260 974 q 309 947 290 951 q 347 943 328 943 q 385 947 367 943 q 419 963 404 951 q 442 991 435 974 q 450 1028 450 1008 l 578 1028 q 571 971 578 999 q 548 919 564 943 q 509 878 532 896 q 460 851 486 861 q 405 837 433 840 q 347 833 376 833 z "},"":{"ha":694,"x_min":51,"x_max":643,"o":"m 51 0 l 258 1021 l 436 1021 l 643 0 l 485 0 l 446 228 l 249 228 l 210 0 l 51 0 m 422 361 l 368 681 q 358 738 363 710 q 347 796 353 767 q 337 738 342 767 q 326 681 332 710 l 272 361 l 422 361 m 579 -310 q 537 -306 558 -310 q 494 -296 515 -303 q 455 -277 474 -289 q 422 -249 436 -265 q 401 -211 408 -232 q 394 -168 394 -190 q 415 -88 394 -126 q 465 -21 435 -50 q 534 28 496 8 q 613 57 572 47 l 613 0 q 578 -26 593 -11 q 551 -60 563 -42 q 531 -99 539 -78 q 522 -142 522 -119 q 528 -167 522 -154 q 544 -187 533 -179 q 567 -197 554 -194 q 593 -200 581 -200 q 612 -199 603 -200 q 631 -194 621 -197 l 631 -304 q 606 -308 618 -307 q 579 -310 593 -310 z "},"":{"ha":694,"x_min":71,"x_max":631,"o":"m 275 -11 q 192 2 233 -11 q 123 46 151 15 q 83 117 94 76 q 71 200 71 158 q 80 273 71 238 q 111 338 89 308 q 164 388 133 367 q 229 420 194 408 q 301 436 264 432 q 374 440 338 440 l 458 440 l 458 488 q 451 533 458 511 q 428 570 444 554 q 390 593 413 586 q 346 600 368 600 q 306 596 325 600 q 269 580 286 592 q 243 549 253 568 q 233 511 233 531 l 233 508 l 79 508 l 79 515 q 89 578 79 547 q 117 637 99 610 q 162 683 135 664 q 219 713 189 701 q 281 729 249 725 q 346 733 314 733 q 415 728 381 733 q 480 710 449 724 q 538 673 511 696 q 581 620 564 650 q 606 556 599 590 q 613 488 613 522 l 613 0 l 458 0 l 458 114 q 429 62 447 86 q 387 21 411 38 q 333 -3 363 4 q 275 -11 304 -11 m 342 122 q 389 131 365 122 q 429 158 413 139 q 452 201 446 176 q 458 250 458 225 l 458 307 l 374 307 q 341 306 357 307 q 309 300 325 304 q 278 290 293 296 q 250 273 263 283 q 231 247 238 263 q 225 215 225 232 q 235 175 225 194 q 262 143 244 156 q 300 126 279 131 q 342 122 321 122 m 579 -310 q 537 -306 558 -310 q 494 -296 515 -303 q 455 -277 474 -289 q 422 -249 436 -265 q 401 -211 408 -232 q 394 -168 394 -190 q 415 -88 394 -126 q 465 -21 435 -50 q 534 28 496 8 q 613 57 572 47 l 613 0 q 578 -26 593 -11 q 551 -60 563 -42 q 531 -99 539 -78 q 522 -142 522 -119 q 528 -167 522 -154 q 544 -187 533 -179 q 567 -197 554 -194 q 593 -200 581 -200 q 612 -199 603 -200 q 631 -194 621 -197 l 631 -304 q 606 -308 618 -307 q 579 -310 593 -310 z "},"":{"ha":694,"x_min":71,"x_max":615,"o":"m 343 -11 q 267 -3 306 -11 q 197 23 229 4 q 138 72 164 42 q 97 136 113 101 q 76 209 82 171 q 71 285 71 247 l 71 736 q 76 812 71 774 q 97 885 82 850 q 138 949 113 919 q 197 998 164 979 q 267 1024 229 1017 q 343 1032 306 1032 q 415 1026 379 1032 q 482 1003 450 1019 q 540 962 514 988 q 582 905 565 936 q 607 838 599 874 q 615 767 615 803 l 615 758 l 461 758 l 461 763 q 454 813 461 788 q 432 858 447 838 q 392 888 417 878 q 343 899 368 899 q 306 893 324 899 q 274 875 288 888 q 250 846 260 863 q 235 811 240 829 q 227 774 229 793 q 225 736 225 756 l 225 285 q 227 247 225 265 q 235 210 229 228 q 250 175 240 192 q 274 146 260 158 q 306 128 288 133 q 343 122 324 122 q 392 133 368 122 q 432 163 417 143 q 454 208 447 183 q 461 258 461 233 l 461 263 l 615 263 l 615 254 q 607 183 615 218 q 582 116 599 147 q 540 59 565 85 q 482 17 514 33 q 415 -5 450 1 q 343 -11 379 -11 m 329 1099 l 244 1165 l 418 1368 l 519 1285 l 329 1099 z "},"":{"ha":694,"x_min":71,"x_max":615,"o":"m 343 -11 q 268 -4 306 -11 q 198 22 231 3 q 140 69 165 40 q 98 131 114 97 q 76 203 82 165 q 71 278 71 240 l 71 444 q 76 519 71 482 q 98 591 82 557 q 140 653 114 625 q 198 701 165 682 q 268 726 231 719 q 343 733 306 733 q 415 727 379 733 q 482 705 450 721 q 540 664 514 689 q 582 607 565 639 q 607 540 599 575 q 615 469 615 506 l 615 460 l 461 460 l 461 464 q 454 515 461 490 q 432 560 447 540 q 392 590 417 579 q 343 600 368 600 q 290 587 315 600 q 251 550 265 574 q 231 499 236 526 q 225 444 225 472 l 225 278 q 231 223 225 250 q 251 172 236 196 q 290 135 265 149 q 343 122 315 122 q 392 133 368 122 q 432 163 417 143 q 454 207 447 182 q 461 258 461 232 l 461 263 l 615 263 l 615 253 q 607 182 615 217 q 582 115 599 147 q 540 58 565 83 q 482 17 514 33 q 415 -5 450 1 q 343 -11 379 -11 m 329 800 l 244 867 l 418 1069 l 519 986 l 329 800 z "},"":{"ha":694,"x_min":71,"x_max":615,"o":"m 343 -11 q 267 -3 306 -11 q 197 23 229 4 q 138 72 164 42 q 97 136 113 101 q 76 209 82 171 q 71 285 71 247 l 71 736 q 76 812 71 774 q 97 885 82 850 q 138 949 113 919 q 197 998 164 979 q 267 1024 229 1017 q 343 1032 306 1032 q 415 1026 379 1032 q 482 1003 450 1019 q 540 962 514 988 q 582 905 565 936 q 607 838 599 874 q 615 767 615 803 l 615 758 l 461 758 l 461 763 q 454 813 461 788 q 432 858 447 838 q 392 888 417 878 q 343 899 368 899 q 306 893 324 899 q 274 875 288 888 q 250 846 260 863 q 235 811 240 829 q 227 774 229 793 q 225 736 225 756 l 225 285 q 227 247 225 265 q 235 210 229 228 q 250 175 240 192 q 274 146 260 158 q 306 128 288 133 q 343 122 324 122 q 392 133 368 122 q 432 163 417 143 q 454 208 447 183 q 461 258 461 233 l 461 263 l 615 263 l 615 254 q 607 183 615 218 q 582 116 599 147 q 540 59 565 85 q 482 17 514 33 q 415 -5 450 1 q 343 -11 379 -11 m 217 1117 l 139 1169 l 267 1361 l 428 1361 l 513 1233 l 556 1169 l 478 1117 l 347 1268 l 217 1117 z "},"":{"ha":694,"x_min":71,"x_max":615,"o":"m 343 -11 q 268 -4 306 -11 q 198 22 231 3 q 140 69 165 40 q 98 131 114 97 q 76 203 82 165 q 71 278 71 240 l 71 444 q 76 519 71 482 q 98 591 82 557 q 140 653 114 625 q 198 701 165 682 q 268 726 231 719 q 343 733 306 733 q 415 727 379 733 q 482 705 450 721 q 540 664 514 689 q 582 607 565 639 q 607 540 599 575 q 615 469 615 506 l 615 460 l 461 460 l 461 464 q 454 515 461 490 q 432 560 447 540 q 392 590 417 579 q 343 600 368 600 q 290 587 315 600 q 251 550 265 574 q 231 499 236 526 q 225 444 225 472 l 225 278 q 231 223 225 250 q 251 172 236 196 q 290 135 265 149 q 343 122 315 122 q 392 133 368 122 q 432 163 417 143 q 454 207 447 182 q 461 258 461 232 l 461 263 l 615 263 l 615 253 q 607 182 615 217 q 582 115 599 147 q 540 58 565 83 q 482 17 514 33 q 415 -5 450 1 q 343 -11 379 -11 m 217 818 l 139 871 l 267 1063 l 428 1063 l 513 935 l 556 871 l 478 818 l 347 969 l 217 818 z "},"":{"ha":694,"x_min":71,"x_max":615,"o":"m 343 -11 q 267 -3 306 -11 q 197 23 229 4 q 138 72 164 42 q 97 136 113 101 q 76 209 82 171 q 71 285 71 247 l 71 736 q 76 812 71 774 q 97 885 82 850 q 138 949 113 919 q 197 998 164 979 q 267 1024 229 1017 q 343 1032 306 1032 q 415 1026 379 1032 q 482 1003 450 1019 q 540 962 514 988 q 582 905 565 936 q 607 838 599 874 q 615 767 615 803 l 615 758 l 461 758 l 461 763 q 454 813 461 788 q 432 858 447 838 q 392 888 417 878 q 343 899 368 899 q 306 893 324 899 q 274 875 288 888 q 250 846 260 863 q 235 811 240 829 q 227 774 229 793 q 225 736 225 756 l 225 285 q 227 247 225 265 q 235 210 229 228 q 250 175 240 192 q 274 146 260 158 q 306 128 288 133 q 343 122 324 122 q 392 133 368 122 q 432 163 417 143 q 454 208 447 183 q 461 258 461 233 l 461 263 l 615 263 l 615 254 q 607 183 615 218 q 582 116 599 147 q 540 59 565 85 q 482 17 514 33 q 415 -5 450 1 q 343 -11 379 -11 m 347 1118 q 303 1125 325 1118 q 265 1147 281 1132 q 243 1185 250 1163 q 236 1229 236 1207 q 243 1274 236 1251 q 265 1311 250 1296 q 303 1333 281 1326 q 347 1340 325 1340 q 392 1333 369 1340 q 429 1311 414 1326 q 451 1274 444 1296 q 458 1229 458 1251 q 451 1185 458 1207 q 429 1147 444 1163 q 392 1125 414 1132 q 347 1118 369 1118 z "},"":{"ha":694,"x_min":71,"x_max":615,"o":"m 343 -11 q 268 -4 306 -11 q 198 22 231 3 q 140 69 165 40 q 98 131 114 97 q 76 203 82 165 q 71 278 71 240 l 71 444 q 76 519 71 482 q 98 591 82 557 q 140 653 114 625 q 198 701 165 682 q 268 726 231 719 q 343 733 306 733 q 415 727 379 733 q 482 705 450 721 q 540 664 514 689 q 582 607 565 639 q 607 540 599 575 q 615 469 615 506 l 615 460 l 461 460 l 461 464 q 454 515 461 490 q 432 560 447 540 q 392 590 417 579 q 343 600 368 600 q 290 587 315 600 q 251 550 265 574 q 231 499 236 526 q 225 444 225 472 l 225 278 q 231 223 225 250 q 251 172 236 196 q 290 135 265 149 q 343 122 315 122 q 392 133 368 122 q 432 163 417 143 q 454 207 447 182 q 461 258 461 232 l 461 263 l 615 263 l 615 253 q 607 182 615 217 q 582 115 599 147 q 540 58 565 83 q 482 17 514 33 q 415 -5 450 1 q 343 -11 379 -11 m 347 819 q 303 826 325 819 q 265 849 281 833 q 243 886 250 864 q 236 931 236 908 q 243 975 236 953 q 265 1013 250 997 q 303 1035 281 1028 q 347 1042 325 1042 q 392 1035 369 1042 q 429 1013 414 1028 q 451 975 444 997 q 458 931 458 953 q 451 886 458 908 q 429 849 444 864 q 392 826 414 833 q 347 819 369 819 z "},"":{"ha":694,"x_min":71,"x_max":615,"o":"m 343 -11 q 267 -3 306 -11 q 197 23 229 4 q 138 72 164 42 q 97 136 113 101 q 76 209 82 171 q 71 285 71 247 l 71 736 q 76 812 71 774 q 97 885 82 850 q 138 949 113 919 q 197 998 164 979 q 267 1024 229 1017 q 343 1032 306 1032 q 415 1026 379 1032 q 482 1003 450 1019 q 540 962 514 988 q 582 905 565 936 q 607 838 599 874 q 615 767 615 803 l 615 758 l 461 758 l 461 763 q 454 813 461 788 q 432 858 447 838 q 392 888 417 878 q 343 899 368 899 q 306 893 324 899 q 274 875 288 888 q 250 846 260 863 q 235 811 240 829 q 227 774 229 793 q 225 736 225 756 l 225 285 q 227 247 225 265 q 235 210 229 228 q 250 175 240 192 q 274 146 260 158 q 306 128 288 133 q 343 122 324 122 q 392 133 368 122 q 432 163 417 143 q 454 208 447 183 q 461 258 461 233 l 461 263 l 615 263 l 615 254 q 607 183 615 218 q 582 116 599 147 q 540 59 565 85 q 482 17 514 33 q 415 -5 450 1 q 343 -11 379 -11 m 267 1132 l 139 1324 l 217 1376 l 347 1225 l 478 1376 l 556 1324 l 428 1132 l 267 1132 z "},"":{"ha":694,"x_min":71,"x_max":615,"o":"m 343 -11 q 268 -4 306 -11 q 198 22 231 3 q 140 69 165 40 q 98 131 114 97 q 76 203 82 165 q 71 278 71 240 l 71 444 q 76 519 71 482 q 98 591 82 557 q 140 653 114 625 q 198 701 165 682 q 268 726 231 719 q 343 733 306 733 q 415 727 379 733 q 482 705 450 721 q 540 664 514 689 q 582 607 565 639 q 607 540 599 575 q 615 469 615 506 l 615 460 l 461 460 l 461 464 q 454 515 461 490 q 432 560 447 540 q 392 590 417 579 q 343 600 368 600 q 290 587 315 600 q 251 550 265 574 q 231 499 236 526 q 225 444 225 472 l 225 278 q 231 223 225 250 q 251 172 236 196 q 290 135 265 149 q 343 122 315 122 q 392 133 368 122 q 432 163 417 143 q 454 207 447 182 q 461 258 461 232 l 461 263 l 615 263 l 615 253 q 607 182 615 217 q 582 115 599 147 q 540 58 565 83 q 482 17 514 33 q 415 -5 450 1 q 343 -11 379 -11 m 267 833 l 139 1025 l 217 1078 l 347 926 l 478 1078 l 556 1025 l 428 833 l 267 833 z "},"":{"ha":694,"x_min":82,"x_max":624,"o":"m 299 0 l 82 0 l 82 1021 l 299 1021 q 384 1014 342 1021 q 465 989 426 1007 q 536 941 504 971 q 588 873 568 911 q 616 792 608 835 q 624 707 624 750 l 624 314 q 616 228 624 271 q 588 148 608 186 q 536 80 568 110 q 465 32 504 50 q 384 7 426 14 q 299 0 342 0 m 236 133 l 299 133 q 346 138 322 133 q 390 154 369 143 q 426 183 410 165 q 451 222 442 200 q 465 267 461 243 q 469 314 469 290 l 469 707 q 465 754 469 731 q 451 799 461 778 q 426 838 442 821 q 390 867 410 856 q 346 883 369 878 q 299 888 322 888 l 236 888 l 236 133 m 267 1132 l 139 1324 l 217 1376 l 347 1225 l 478 1376 l 556 1324 l 428 1132 l 267 1132 z "},"":{"ha":694,"x_min":71,"x_max":764,"o":"m 669 781 l 608 839 q 639 876 626 856 q 660 918 651 896 q 637 928 647 921 q 619 945 626 935 q 610 968 613 956 q 607 993 607 981 q 612 1024 607 1008 q 628 1050 617 1039 q 654 1066 639 1061 q 685 1071 669 1071 q 715 1066 700 1071 q 742 1050 731 1061 q 758 1024 753 1039 q 763 993 763 1008 q 757 933 763 963 q 739 877 751 904 q 709 826 726 850 q 669 781 692 801 m 258 -11 q 197 -1 226 -11 q 144 32 167 10 q 108 82 122 54 q 85 140 93 110 q 74 202 76 171 q 71 264 71 233 l 71 458 q 74 520 71 489 q 85 582 76 551 q 108 640 93 613 q 144 690 122 668 q 197 723 167 713 q 258 733 226 733 q 313 725 286 733 q 362 699 340 717 q 399 658 383 682 q 424 607 414 633 l 424 1021 l 578 1021 l 578 0 l 424 0 l 424 115 q 399 65 414 89 q 362 23 383 40 q 313 -3 340 6 q 258 -11 286 -11 m 324 122 q 370 135 349 122 q 403 169 392 149 q 419 215 415 190 q 424 264 424 239 l 424 458 q 419 508 424 483 q 403 553 415 532 q 370 587 392 574 q 325 600 349 600 q 278 587 300 600 q 245 553 257 574 q 229 508 233 532 q 225 458 225 483 l 225 264 q 229 215 225 239 q 245 169 233 190 q 278 135 257 149 q 324 122 300 122 z "},"":{"ha":694,"x_min":25,"x_max":624,"o":"m 299 0 l 82 0 l 82 458 l 25 458 l 25 563 l 82 563 l 82 1021 l 299 1021 q 384 1014 342 1021 q 465 989 426 1007 q 536 941 504 971 q 588 873 568 911 q 616 792 608 835 q 624 707 624 750 l 624 314 q 616 228 624 271 q 588 148 608 186 q 536 80 568 110 q 465 32 504 50 q 384 7 426 14 q 299 0 342 0 m 236 133 l 299 133 q 346 138 322 133 q 390 154 369 143 q 426 183 410 165 q 451 222 442 200 q 465 267 461 243 q 469 314 469 290 l 469 707 q 465 754 469 731 q 451 799 461 778 q 426 838 442 821 q 390 867 410 856 q 346 883 369 878 q 299 888 322 888 l 236 888 l 236 563 l 360 563 l 360 458 l 236 458 l 236 133 z "},"":{"ha":694,"x_min":71,"x_max":669,"o":"m 275 -11 q 210 -1 242 -11 q 153 33 178 10 q 112 85 128 56 q 87 146 96 114 q 74 211 78 178 q 71 278 71 244 l 71 444 q 74 511 71 478 q 87 576 78 544 q 112 638 96 608 q 153 690 128 667 q 210 723 178 713 q 275 733 242 733 q 336 724 306 733 q 390 696 367 715 q 431 651 414 676 q 458 596 447 625 l 458 819 l 326 819 l 326 924 l 458 924 l 458 1021 l 613 1021 l 613 924 l 669 924 l 669 819 l 613 819 l 613 0 l 458 0 l 458 126 q 431 72 447 97 q 390 26 414 46 q 336 -2 367 7 q 275 -11 306 -11 m 342 122 q 394 135 369 122 q 433 172 419 149 q 453 223 447 196 q 458 278 458 250 l 458 444 q 453 499 458 472 q 433 550 447 526 q 394 587 419 574 q 342 600 369 600 q 289 587 314 600 q 250 550 264 574 q 231 499 236 526 q 225 444 225 472 l 225 278 q 231 223 225 250 q 250 172 236 196 q 289 135 264 149 q 342 122 314 122 z "},"":{"ha":694,"x_min":93,"x_max":613,"o":"m 93 0 l 93 1021 l 613 1021 l 613 888 l 247 888 l 247 597 l 533 597 l 533 464 l 247 464 l 247 133 l 613 133 l 613 0 l 93 0 m 139 1175 l 139 1283 l 556 1283 l 556 1175 l 139 1175 z "},"":{"ha":694,"x_min":71,"x_max":624,"o":"m 347 -11 q 271 -4 308 -11 q 200 21 233 3 q 141 67 167 39 q 99 131 115 96 q 77 203 83 165 q 71 278 71 240 l 71 444 q 77 520 71 482 q 99 592 83 558 q 141 655 115 626 q 200 701 167 683 q 272 726 233 719 q 347 733 310 733 q 423 726 385 733 q 494 701 461 719 q 553 655 528 683 q 595 592 579 626 q 617 520 611 558 q 624 444 624 482 l 624 294 l 225 294 l 225 278 q 231 222 225 250 q 251 171 236 194 q 293 135 267 147 q 347 122 319 122 q 389 126 368 122 q 427 142 410 131 q 455 174 444 154 q 467 214 465 193 l 621 214 q 611 149 621 181 q 582 89 601 117 q 535 42 563 61 q 477 10 508 22 q 413 -7 446 -3 q 347 -11 381 -11 m 225 428 l 469 428 l 469 444 q 464 500 469 472 q 442 551 458 528 q 401 588 426 575 q 347 600 375 600 q 294 588 319 600 q 252 551 268 575 q 231 500 236 528 q 225 444 225 472 l 225 428 m 139 876 l 139 985 l 556 985 l 556 876 l 139 876 z "},"":{"ha":694,"x_min":93,"x_max":613,"o":"m 93 0 l 93 1021 l 613 1021 l 613 888 l 247 888 l 247 597 l 533 597 l 533 464 l 247 464 l 247 133 l 613 133 l 613 0 l 93 0 m 347 1132 q 290 1135 318 1132 q 235 1149 261 1139 q 185 1177 208 1160 q 147 1218 163 1194 q 124 1269 131 1242 q 117 1326 117 1297 l 244 1326 q 252 1290 244 1307 q 275 1261 260 1272 q 309 1246 290 1250 q 347 1242 328 1242 q 385 1246 367 1242 q 419 1261 404 1250 q 442 1290 435 1272 q 450 1326 450 1307 l 578 1326 q 571 1269 578 1297 q 548 1218 564 1242 q 509 1177 532 1194 q 460 1149 486 1160 q 405 1135 433 1139 q 347 1132 376 1132 z "},"":{"ha":694,"x_min":71,"x_max":624,"o":"m 347 -11 q 271 -4 308 -11 q 200 21 233 3 q 141 67 167 39 q 99 131 115 96 q 77 203 83 165 q 71 278 71 240 l 71 444 q 77 520 71 482 q 99 592 83 558 q 141 655 115 626 q 200 701 167 683 q 272 726 233 719 q 347 733 310 733 q 423 726 385 733 q 494 701 461 719 q 553 655 528 683 q 595 592 579 626 q 617 520 611 558 q 624 444 624 482 l 624 294 l 225 294 l 225 278 q 231 222 225 250 q 251 171 236 194 q 293 135 267 147 q 347 122 319 122 q 389 126 368 122 q 427 142 410 131 q 455 174 444 154 q 467 214 465 193 l 621 214 q 611 149 621 181 q 582 89 601 117 q 535 42 563 61 q 477 10 508 22 q 413 -7 446 -3 q 347 -11 381 -11 m 225 428 l 469 428 l 469 444 q 464 500 469 472 q 442 551 458 528 q 401 588 426 575 q 347 600 375 600 q 294 588 319 600 q 252 551 268 575 q 231 500 236 528 q 225 444 225 472 l 225 428 m 347 833 q 290 837 318 833 q 235 851 261 840 q 185 878 208 861 q 147 919 163 896 q 124 971 131 943 q 117 1028 117 999 l 244 1028 q 252 991 244 1008 q 275 963 260 974 q 309 947 290 951 q 347 943 328 943 q 385 947 367 943 q 419 963 404 951 q 442 991 435 974 q 450 1028 450 1008 l 578 1028 q 571 971 578 999 q 548 919 564 943 q 509 878 532 896 q 460 851 486 861 q 405 837 433 840 q 347 833 376 833 z "},"":{"ha":694,"x_min":93,"x_max":613,"o":"m 93 0 l 93 1021 l 613 1021 l 613 888 l 247 888 l 247 597 l 533 597 l 533 464 l 247 464 l 247 133 l 613 133 l 613 0 l 93 0 m 347 1118 q 303 1125 325 1118 q 265 1147 281 1132 q 243 1185 250 1163 q 236 1229 236 1207 q 243 1274 236 1251 q 265 1311 250 1296 q 303 1333 281 1326 q 347 1340 325 1340 q 392 1333 369 1340 q 429 1311 414 1326 q 451 1274 444 1296 q 458 1229 458 1251 q 451 1185 458 1207 q 429 1147 444 1163 q 392 1125 414 1132 q 347 1118 369 1118 z "},"":{"ha":694,"x_min":71,"x_max":624,"o":"m 347 -11 q 271 -4 308 -11 q 200 21 233 3 q 141 67 167 39 q 99 131 115 96 q 77 203 83 165 q 71 278 71 240 l 71 444 q 77 520 71 482 q 99 592 83 558 q 141 655 115 626 q 200 701 167 683 q 272 726 233 719 q 347 733 310 733 q 423 726 385 733 q 494 701 461 719 q 553 655 528 683 q 595 592 579 626 q 617 520 611 558 q 624 444 624 482 l 624 294 l 225 294 l 225 278 q 231 222 225 250 q 251 171 236 194 q 293 135 267 147 q 347 122 319 122 q 389 126 368 122 q 427 142 410 131 q 455 174 444 154 q 467 214 465 193 l 621 214 q 611 149 621 181 q 582 89 601 117 q 535 42 563 61 q 477 10 508 22 q 413 -7 446 -3 q 347 -11 381 -11 m 225 428 l 469 428 l 469 444 q 464 500 469 472 q 442 551 458 528 q 401 588 426 575 q 347 600 375 600 q 294 588 319 600 q 252 551 268 575 q 231 500 236 528 q 225 444 225 472 l 225 428 m 347 819 q 303 826 325 819 q 265 849 281 833 q 243 886 250 864 q 236 931 236 908 q 243 975 236 953 q 265 1013 250 997 q 303 1035 281 1028 q 347 1042 325 1042 q 392 1035 369 1042 q 429 1013 414 1028 q 451 975 444 997 q 458 931 458 953 q 451 886 458 908 q 429 849 444 864 q 392 826 414 833 q 347 819 369 819 z "},"":{"ha":694,"x_min":93,"x_max":631,"o":"m 93 0 l 93 1021 l 613 1021 l 613 888 l 247 888 l 247 597 l 533 597 l 533 464 l 247 464 l 247 133 l 613 133 l 613 0 l 93 0 m 579 -310 q 537 -306 558 -310 q 494 -296 515 -303 q 455 -277 474 -289 q 422 -249 436 -265 q 401 -211 408 -232 q 394 -168 394 -190 q 415 -88 394 -126 q 465 -21 435 -50 q 534 28 496 8 q 613 57 572 47 l 613 0 q 578 -26 593 -11 q 551 -60 563 -42 q 531 -99 539 -78 q 522 -142 522 -119 q 528 -167 522 -154 q 544 -187 533 -179 q 567 -197 554 -194 q 593 -200 581 -200 q 612 -199 603 -200 q 631 -194 621 -197 l 631 -304 q 606 -308 618 -307 q 579 -310 593 -310 z "},"":{"ha":694,"x_min":71,"x_max":624,"o":"m 557 -311 q 496 -303 526 -311 q 440 -276 465 -294 q 401 -228 415 -257 q 388 -168 388 -200 q 395 -119 388 -143 q 415 -72 403 -94 q 443 -30 428 -50 q 475 8 458 -10 q 412 -7 444 -3 q 347 -11 379 -11 q 271 -4 308 -11 q 200 21 233 3 q 141 67 167 39 q 99 131 115 96 q 77 203 83 165 q 71 278 71 240 l 71 444 q 77 520 71 482 q 99 592 83 558 q 141 655 115 626 q 200 701 167 683 q 272 726 233 719 q 347 733 310 733 q 423 726 385 733 q 494 701 461 719 q 553 655 528 683 q 595 592 579 626 q 617 520 611 558 q 624 444 624 482 l 624 294 l 225 294 l 225 278 q 231 222 225 250 q 251 171 236 194 q 293 135 267 147 q 347 122 319 122 q 389 126 368 122 q 427 142 410 131 q 455 174 444 154 q 467 214 465 193 l 621 214 q 618 168 621 192 q 610 122 615 144 q 599 76 606 99 q 583 33 592 54 q 563 -10 574 11 q 543 -53 553 -32 q 524 -97 533 -75 q 515 -142 515 -118 q 520 -166 515 -154 q 535 -185 525 -178 q 558 -197 546 -193 q 583 -200 571 -200 q 603 -199 593 -200 q 621 -194 613 -197 l 621 -304 q 590 -310 606 -308 q 557 -311 574 -311 m 225 428 l 469 428 l 469 444 q 464 500 469 472 q 442 551 458 528 q 401 588 426 575 q 347 600 375 600 q 294 588 319 600 q 252 551 268 575 q 231 500 236 528 q 225 444 225 472 l 225 428 z "},"":{"ha":694,"x_min":93,"x_max":613,"o":"m 93 0 l 93 1021 l 613 1021 l 613 888 l 247 888 l 247 597 l 533 597 l 533 464 l 247 464 l 247 133 l 613 133 l 613 0 l 93 0 m 267 1132 l 139 1324 l 217 1376 l 347 1225 l 478 1376 l 556 1324 l 428 1132 l 267 1132 z "},"":{"ha":694,"x_min":71,"x_max":624,"o":"m 347 -11 q 271 -4 308 -11 q 200 21 233 3 q 141 67 167 39 q 99 131 115 96 q 77 203 83 165 q 71 278 71 240 l 71 444 q 77 520 71 482 q 99 592 83 558 q 141 655 115 626 q 200 701 167 683 q 272 726 233 719 q 347 733 310 733 q 423 726 385 733 q 494 701 461 719 q 553 655 528 683 q 595 592 579 626 q 617 520 611 558 q 624 444 624 482 l 624 294 l 225 294 l 225 278 q 231 222 225 250 q 251 171 236 194 q 293 135 267 147 q 347 122 319 122 q 389 126 368 122 q 427 142 410 131 q 455 174 444 154 q 467 214 465 193 l 621 214 q 611 149 621 181 q 582 89 601 117 q 535 42 563 61 q 477 10 508 22 q 413 -7 446 -3 q 347 -11 381 -11 m 225 428 l 469 428 l 469 444 q 464 500 469 472 q 442 551 458 528 q 401 588 426 575 q 347 600 375 600 q 294 588 319 600 q 252 551 268 575 q 231 500 236 528 q 225 444 225 472 l 225 428 m 267 833 l 139 1025 l 217 1078 l 347 926 l 478 1078 l 556 1025 l 428 833 l 267 833 z "},"":{"ha":694,"x_min":71,"x_max":615,"o":"m 275 -11 q 209 0 242 -11 q 152 35 176 11 q 112 88 128 58 q 87 151 96 118 q 74 217 78 183 q 71 285 71 251 l 71 736 q 76 812 71 774 q 97 885 82 850 q 138 949 113 919 q 197 998 164 979 q 267 1024 229 1017 q 343 1032 306 1032 q 415 1026 379 1032 q 482 1003 450 1019 q 540 962 514 988 q 582 905 565 936 q 607 838 599 874 q 615 767 615 803 l 615 758 l 461 758 l 461 763 q 454 813 461 788 q 432 858 447 838 q 392 888 417 878 q 343 899 368 899 q 306 893 324 899 q 274 875 288 888 q 250 846 260 863 q 235 811 240 829 q 227 774 229 793 q 225 736 225 756 l 225 285 q 227 248 225 267 q 235 211 229 229 q 249 176 240 193 q 272 147 258 160 q 304 128 286 135 q 342 122 322 122 q 379 128 361 122 q 411 147 397 135 q 434 176 425 160 q 449 211 443 193 q 456 248 454 229 q 458 285 458 267 l 458 431 l 347 431 l 347 564 l 613 564 l 613 0 l 468 0 l 468 168 q 446 100 461 133 q 406 41 431 67 q 346 2 381 15 q 275 -11 311 -11 m 217 1117 l 139 1169 l 267 1361 l 428 1361 l 513 1233 l 556 1169 l 478 1117 l 347 1268 l 217 1117 z "},"":{"ha":694,"x_min":71,"x_max":613,"o":"m 344 -310 q 281 -306 313 -310 q 220 -290 250 -301 q 164 -261 190 -279 q 119 -217 138 -243 q 90 -160 100 -192 q 79 -99 79 -129 l 233 -99 q 245 -133 235 -117 q 272 -160 256 -150 q 306 -173 288 -169 q 344 -176 325 -176 q 397 -162 372 -176 q 435 -126 421 -149 q 453 -76 449 -103 q 458 -21 458 -49 l 458 126 q 431 72 447 97 q 390 26 414 46 q 336 -2 367 7 q 275 -11 306 -11 q 210 -1 242 -11 q 153 33 178 10 q 112 85 128 56 q 87 146 96 114 q 74 211 78 178 q 71 278 71 244 l 71 444 q 74 511 71 478 q 87 576 78 544 q 112 638 96 608 q 153 690 128 667 q 210 723 178 713 q 275 733 242 733 q 336 724 306 733 q 390 696 367 715 q 431 651 414 676 q 458 596 447 625 l 458 722 l 613 722 l 613 -21 q 607 -95 613 -58 q 586 -167 601 -132 q 546 -230 571 -201 q 488 -276 521 -258 q 419 -302 456 -294 q 344 -310 382 -310 m 342 122 q 394 135 369 122 q 433 172 419 149 q 453 223 447 196 q 458 278 458 250 l 458 444 q 453 499 458 472 q 433 550 447 526 q 394 587 419 574 q 342 600 369 600 q 289 587 314 600 q 250 550 264 574 q 231 499 236 526 q 225 444 225 472 l 225 278 q 231 223 225 250 q 250 172 236 196 q 289 135 264 149 q 342 122 314 122 m 217 818 l 139 871 l 267 1063 l 428 1063 l 513 935 l 556 871 l 478 818 l 347 969 l 217 818 z "},"":{"ha":694,"x_min":71,"x_max":615,"o":"m 275 -11 q 209 0 242 -11 q 152 35 176 11 q 112 88 128 58 q 87 151 96 118 q 74 217 78 183 q 71 285 71 251 l 71 736 q 76 812 71 774 q 97 885 82 850 q 138 949 113 919 q 197 998 164 979 q 267 1024 229 1017 q 343 1032 306 1032 q 415 1026 379 1032 q 482 1003 450 1019 q 540 962 514 988 q 582 905 565 936 q 607 838 599 874 q 615 767 615 803 l 615 758 l 461 758 l 461 763 q 454 813 461 788 q 432 858 447 838 q 392 888 417 878 q 343 899 368 899 q 306 893 324 899 q 274 875 288 888 q 250 846 260 863 q 235 811 240 829 q 227 774 229 793 q 225 736 225 756 l 225 285 q 227 248 225 267 q 235 211 229 229 q 249 176 240 193 q 272 147 258 160 q 304 128 286 135 q 342 122 322 122 q 379 128 361 122 q 411 147 397 135 q 434 176 425 160 q 449 211 443 193 q 456 248 454 229 q 458 285 458 267 l 458 431 l 347 431 l 347 564 l 613 564 l 613 0 l 468 0 l 468 168 q 446 100 461 133 q 406 41 431 67 q 346 2 381 15 q 275 -11 311 -11 m 347 1132 q 290 1135 318 1132 q 235 1149 261 1139 q 185 1177 208 1160 q 147 1218 163 1194 q 124 1269 131 1242 q 117 1326 117 1297 l 244 1326 q 252 1290 244 1307 q 275 1261 260 1272 q 309 1246 290 1250 q 347 1242 328 1242 q 385 1246 367 1242 q 419 1261 404 1250 q 442 1290 435 1272 q 450 1326 450 1307 l 578 1326 q 571 1269 578 1297 q 548 1218 564 1242 q 509 1177 532 1194 q 460 1149 486 1160 q 405 1135 433 1139 q 347 1132 376 1132 z "},"":{"ha":694,"x_min":71,"x_max":613,"o":"m 344 -310 q 281 -306 313 -310 q 220 -290 250 -301 q 164 -261 190 -279 q 119 -217 138 -243 q 90 -160 100 -192 q 79 -99 79 -129 l 233 -99 q 245 -133 235 -117 q 272 -160 256 -150 q 306 -173 288 -169 q 344 -176 325 -176 q 397 -162 372 -176 q 435 -126 421 -149 q 453 -76 449 -103 q 458 -21 458 -49 l 458 126 q 431 72 447 97 q 390 26 414 46 q 336 -2 367 7 q 275 -11 306 -11 q 210 -1 242 -11 q 153 33 178 10 q 112 85 128 56 q 87 146 96 114 q 74 211 78 178 q 71 278 71 244 l 71 444 q 74 511 71 478 q 87 576 78 544 q 112 638 96 608 q 153 690 128 667 q 210 723 178 713 q 275 733 242 733 q 336 724 306 733 q 390 696 367 715 q 431 651 414 676 q 458 596 447 625 l 458 722 l 613 722 l 613 -21 q 607 -95 613 -58 q 586 -167 601 -132 q 546 -230 571 -201 q 488 -276 521 -258 q 419 -302 456 -294 q 344 -310 382 -310 m 342 122 q 394 135 369 122 q 433 172 419 149 q 453 223 447 196 q 458 278 458 250 l 458 444 q 453 499 458 472 q 433 550 447 526 q 394 587 419 574 q 342 600 369 600 q 289 587 314 600 q 250 550 264 574 q 231 499 236 526 q 225 444 225 472 l 225 278 q 231 223 225 250 q 250 172 236 196 q 289 135 264 149 q 342 122 314 122 m 347 833 q 290 837 318 833 q 235 851 261 840 q 185 878 208 861 q 147 919 163 896 q 124 971 131 943 q 117 1028 117 999 l 244 1028 q 252 991 244 1008 q 275 963 260 974 q 309 947 290 951 q 347 943 328 943 q 385 947 367 943 q 419 963 404 951 q 442 991 435 974 q 450 1028 450 1008 l 578 1028 q 571 971 578 999 q 548 919 564 943 q 509 878 532 896 q 460 851 486 861 q 405 837 433 840 q 347 833 376 833 z "},"":{"ha":694,"x_min":71,"x_max":615,"o":"m 275 -11 q 209 0 242 -11 q 152 35 176 11 q 112 88 128 58 q 87 151 96 118 q 74 217 78 183 q 71 285 71 251 l 71 736 q 76 812 71 774 q 97 885 82 850 q 138 949 113 919 q 197 998 164 979 q 267 1024 229 1017 q 343 1032 306 1032 q 415 1026 379 1032 q 482 1003 450 1019 q 540 962 514 988 q 582 905 565 936 q 607 838 599 874 q 615 767 615 803 l 615 758 l 461 758 l 461 763 q 454 813 461 788 q 432 858 447 838 q 392 888 417 878 q 343 899 368 899 q 306 893 324 899 q 274 875 288 888 q 250 846 260 863 q 235 811 240 829 q 227 774 229 793 q 225 736 225 756 l 225 285 q 227 248 225 267 q 235 211 229 229 q 249 176 240 193 q 272 147 258 160 q 304 128 286 135 q 342 122 322 122 q 379 128 361 122 q 411 147 397 135 q 434 176 425 160 q 449 211 443 193 q 456 248 454 229 q 458 285 458 267 l 458 431 l 347 431 l 347 564 l 613 564 l 613 0 l 468 0 l 468 168 q 446 100 461 133 q 406 41 431 67 q 346 2 381 15 q 275 -11 311 -11 m 347 1118 q 303 1125 325 1118 q 265 1147 281 1132 q 243 1185 250 1163 q 236 1229 236 1207 q 243 1274 236 1251 q 265 1311 250 1296 q 303 1333 281 1326 q 347 1340 325 1340 q 392 1333 369 1340 q 429 1311 414 1326 q 451 1274 444 1296 q 458 1229 458 1251 q 451 1185 458 1207 q 429 1147 444 1163 q 392 1125 414 1132 q 347 1118 369 1118 z "},"":{"ha":694,"x_min":71,"x_max":613,"o":"m 344 -310 q 281 -306 313 -310 q 220 -290 250 -301 q 164 -261 190 -279 q 119 -217 138 -243 q 90 -160 100 -192 q 79 -99 79 -129 l 233 -99 q 245 -133 235 -117 q 272 -160 256 -150 q 306 -173 288 -169 q 344 -176 325 -176 q 397 -162 372 -176 q 435 -126 421 -149 q 453 -76 449 -103 q 458 -21 458 -49 l 458 126 q 431 72 447 97 q 390 26 414 46 q 336 -2 367 7 q 275 -11 306 -11 q 210 -1 242 -11 q 153 33 178 10 q 112 85 128 56 q 87 146 96 114 q 74 211 78 178 q 71 278 71 244 l 71 444 q 74 511 71 478 q 87 576 78 544 q 112 638 96 608 q 153 690 128 667 q 210 723 178 713 q 275 733 242 733 q 336 724 306 733 q 390 696 367 715 q 431 651 414 676 q 458 596 447 625 l 458 722 l 613 722 l 613 -21 q 607 -95 613 -58 q 586 -167 601 -132 q 546 -230 571 -201 q 488 -276 521 -258 q 419 -302 456 -294 q 344 -310 382 -310 m 342 122 q 394 135 369 122 q 433 172 419 149 q 453 223 447 196 q 458 278 458 250 l 458 444 q 453 499 458 472 q 433 550 447 526 q 394 587 419 574 q 342 600 369 600 q 289 587 314 600 q 250 550 264 574 q 231 499 236 526 q 225 444 225 472 l 225 278 q 231 223 225 250 q 250 172 236 196 q 289 135 264 149 q 342 122 314 122 m 347 819 q 303 826 325 819 q 265 849 281 833 q 243 886 250 864 q 236 931 236 908 q 243 975 236 953 q 265 1013 250 997 q 303 1035 281 1028 q 347 1042 325 1042 q 392 1035 369 1042 q 429 1013 414 1028 q 451 975 444 997 q 458 931 458 953 q 451 886 458 908 q 429 849 444 864 q 392 826 414 833 q 347 819 369 819 z "},"":{"ha":694,"x_min":71,"x_max":615,"o":"m 275 -11 q 209 0 242 -11 q 152 35 176 11 q 112 88 128 58 q 87 151 96 118 q 74 217 78 183 q 71 285 71 251 l 71 736 q 76 812 71 774 q 97 885 82 850 q 138 949 113 919 q 197 998 164 979 q 267 1024 229 1017 q 343 1032 306 1032 q 415 1026 379 1032 q 482 1003 450 1019 q 540 962 514 988 q 582 905 565 936 q 607 838 599 874 q 615 767 615 803 l 615 758 l 461 758 l 461 763 q 454 813 461 788 q 432 858 447 838 q 392 888 417 878 q 343 899 368 899 q 306 893 324 899 q 274 875 288 888 q 250 846 260 863 q 235 811 240 829 q 227 774 229 793 q 225 736 225 756 l 225 285 q 227 248 225 267 q 235 211 229 229 q 249 176 240 193 q 272 147 258 160 q 304 128 286 135 q 342 122 322 122 q 379 128 361 122 q 411 147 397 135 q 434 176 425 160 q 449 211 443 193 q 456 248 454 229 q 458 285 458 267 l 458 431 l 347 431 l 347 564 l 613 564 l 613 0 l 468 0 l 468 168 q 446 100 461 133 q 406 41 431 67 q 346 2 381 15 q 275 -11 311 -11 m 332 -356 l 271 -299 q 301 -262 289 -282 q 322 -219 314 -242 q 299 -210 310 -217 q 282 -192 289 -203 q 272 -169 275 -182 q 269 -144 269 -157 q 274 -114 269 -129 q 290 -87 279 -99 q 317 -72 301 -76 q 347 -67 332 -67 q 378 -72 363 -67 q 404 -87 393 -76 q 420 -114 415 -99 q 425 -144 425 -129 q 419 -204 425 -175 q 401 -260 414 -233 q 372 -312 389 -287 q 332 -356 354 -336 z "},"":{"ha":694,"x_min":71,"x_max":613,"o":"m 344 -310 q 281 -306 313 -310 q 220 -290 250 -301 q 164 -261 190 -279 q 119 -217 138 -243 q 90 -160 100 -192 q 79 -99 79 -129 l 233 -99 q 245 -133 235 -117 q 272 -160 256 -150 q 306 -173 288 -169 q 344 -176 325 -176 q 397 -162 372 -176 q 435 -126 421 -149 q 453 -76 449 -103 q 458 -21 458 -49 l 458 126 q 431 72 447 97 q 390 26 414 46 q 336 -2 367 7 q 275 -11 306 -11 q 210 -1 242 -11 q 153 33 178 10 q 112 85 128 56 q 87 146 96 114 q 74 211 78 178 q 71 278 71 244 l 71 444 q 74 511 71 478 q 87 576 78 544 q 112 638 96 608 q 153 690 128 667 q 210 723 178 713 q 275 733 242 733 q 336 724 306 733 q 390 696 367 715 q 431 651 414 676 q 458 596 447 625 l 458 722 l 613 722 l 613 -21 q 607 -95 613 -58 q 586 -167 601 -132 q 546 -230 571 -201 q 488 -276 521 -258 q 419 -302 456 -294 q 344 -310 382 -310 m 342 122 q 394 135 369 122 q 433 172 419 149 q 453 223 447 196 q 458 278 458 250 l 458 444 q 453 499 458 472 q 433 550 447 526 q 394 587 419 574 q 342 600 369 600 q 289 587 314 600 q 250 550 264 574 q 231 499 236 526 q 225 444 225 472 l 225 278 q 231 223 225 250 q 250 172 236 196 q 289 135 264 149 q 342 122 314 122 m 347 789 q 317 794 332 789 q 290 810 301 799 q 274 836 279 821 q 269 867 269 851 q 275 926 269 897 q 293 983 281 956 q 323 1034 306 1010 q 363 1078 340 1058 l 424 1021 q 393 984 406 1004 q 372 942 381 964 q 395 932 385 939 q 413 915 406 925 q 422 892 419 904 q 425 867 425 879 q 420 836 425 851 q 404 810 415 821 q 378 794 393 799 q 347 789 363 789 z "},"":{"ha":694,"x_min":82,"x_max":613,"o":"m 82 0 l 82 1021 l 236 1021 l 236 590 l 458 590 l 458 1021 l 613 1021 l 613 0 l 458 0 l 458 457 l 236 457 l 236 0 l 82 0 m 217 1117 l 139 1169 l 267 1361 l 428 1361 l 513 1233 l 556 1169 l 478 1117 l 347 1268 l 217 1117 z "},"":{"ha":694,"x_min":-50,"x_max":613,"o":"m 82 0 l 82 1021 l 236 1021 l 236 597 q 263 651 247 625 q 302 697 279 678 q 354 724 325 715 q 414 733 383 733 q 478 722 447 733 q 534 688 510 711 q 574 636 558 665 q 598 575 589 607 q 610 510 607 543 q 613 444 613 478 l 613 0 l 458 0 l 458 444 q 456 481 458 463 q 449 516 454 499 q 435 549 444 533 q 413 576 426 564 q 383 594 400 589 q 347 600 365 600 q 312 594 329 600 q 281 576 294 589 q 259 549 268 564 q 245 516 250 533 q 238 481 240 499 q 236 444 236 463 l 236 0 l 82 0 m 29 1117 l -49 1169 l 79 1361 l 240 1361 l 325 1233 l 368 1169 l 290 1117 l 160 1268 l 29 1117 z "},"":{"ha":694,"x_min":25,"x_max":669,"o":"m 82 0 l 82 754 l 25 754 l 25 857 l 82 857 l 82 1021 l 236 1021 l 236 857 l 458 857 l 458 1021 l 613 1021 l 613 857 l 669 857 l 669 754 l 613 754 l 613 0 l 458 0 l 458 457 l 236 457 l 236 0 l 82 0 m 236 590 l 458 590 l 458 754 l 236 754 l 236 590 z "},"":{"ha":694,"x_min":25,"x_max":613,"o":"m 82 0 l 82 806 l 25 806 l 25 908 l 82 908 l 82 1021 l 236 1021 l 236 908 l 347 908 l 347 806 l 236 806 l 236 597 q 263 651 247 625 q 302 697 279 678 q 354 724 325 715 q 414 733 383 733 q 478 722 447 733 q 534 688 510 711 q 574 636 558 665 q 598 575 589 607 q 610 510 607 543 q 613 444 613 478 l 613 0 l 458 0 l 458 444 q 456 481 458 463 q 449 516 454 499 q 435 549 444 533 q 413 576 426 564 q 383 594 400 589 q 347 600 365 600 q 312 594 329 600 q 281 576 294 589 q 259 549 268 564 q 245 516 250 533 q 238 481 240 499 q 236 444 236 463 l 236 0 l 82 0 z "},"":{"ha":694,"x_min":82,"x_max":613,"o":"m 104 0 l 104 133 l 269 133 l 269 888 l 104 888 l 104 1021 l 590 1021 l 590 888 l 425 888 l 425 133 l 590 133 l 590 0 l 104 0 m 426 1128 q 413 1128 419 1128 q 401 1131 407 1129 q 388 1134 394 1132 q 376 1139 382 1136 q 364 1145 369 1142 q 353 1152 358 1149 q 342 1160 347 1156 q 332 1169 338 1164 q 322 1178 326 1174 q 314 1188 318 1183 q 306 1197 310 1193 q 298 1207 303 1200 q 288 1219 293 1214 q 278 1230 282 1225 q 268 1240 274 1235 q 263 1246 263 1244 l 272 1246 q 268 1241 272 1244 q 259 1233 264 1238 q 253 1226 254 1228 q 249 1221 251 1224 q 245 1215 247 1218 q 241 1209 243 1213 q 236 1202 239 1206 q 231 1194 233 1199 q 225 1185 228 1190 q 219 1176 222 1181 q 214 1166 217 1171 q 208 1156 211 1161 q 202 1144 206 1150 q 196 1132 199 1138 l 82 1182 q 107 1228 94 1207 q 131 1265 119 1249 q 156 1297 143 1282 q 185 1325 168 1311 q 224 1347 203 1339 q 268 1356 246 1356 q 281 1355 275 1356 q 294 1353 288 1354 q 306 1349 300 1351 q 319 1344 313 1347 q 331 1338 325 1342 q 342 1331 336 1335 q 352 1323 347 1328 q 363 1313 357 1318 q 372 1304 368 1308 q 381 1295 376 1300 q 388 1287 385 1290 q 397 1276 392 1283 q 407 1264 401 1269 q 417 1253 413 1258 q 426 1244 421 1249 q 432 1238 432 1239 l 422 1238 q 426 1242 422 1239 q 435 1250 431 1244 q 442 1258 440 1256 q 445 1262 443 1260 q 449 1267 447 1264 q 453 1274 451 1271 q 458 1281 456 1278 q 464 1289 461 1285 q 469 1297 467 1293 q 475 1306 472 1301 q 481 1317 478 1311 q 486 1328 483 1322 q 492 1339 489 1333 q 499 1351 496 1344 l 613 1301 q 588 1256 600 1276 q 563 1218 575 1235 q 539 1186 551 1201 q 509 1158 526 1171 q 470 1136 492 1144 q 426 1128 449 1128 z "},"":{"ha":694,"x_min":82,"x_max":613,"o":"m 104 0 l 104 133 l 279 133 l 279 589 l 124 589 l 124 722 l 435 722 l 435 133 l 590 133 l 590 0 l 104 0 m 426 829 q 413 830 419 829 q 401 832 407 831 q 388 835 394 833 q 376 840 382 838 q 364 847 369 843 q 353 853 358 850 q 342 861 347 857 q 332 870 338 865 q 322 880 326 875 q 314 890 318 885 q 306 898 310 894 q 298 908 303 901 q 288 921 293 915 q 278 931 282 926 q 268 941 274 936 q 263 947 263 946 l 272 947 q 268 942 272 946 q 259 934 264 939 q 253 927 254 929 q 249 922 251 925 q 245 917 247 919 q 241 910 243 914 q 236 903 239 907 q 231 896 233 900 q 225 887 228 892 q 219 877 222 882 q 214 867 217 872 q 208 857 211 863 q 202 845 206 851 q 196 833 199 839 l 82 883 q 107 929 94 908 q 131 967 119 950 q 156 998 143 983 q 185 1026 168 1013 q 224 1049 203 1040 q 268 1057 246 1057 q 281 1056 275 1057 q 294 1054 288 1056 q 306 1051 300 1053 q 319 1046 313 1049 q 331 1040 325 1043 q 342 1033 336 1036 q 352 1024 347 1029 q 363 1015 357 1019 q 372 1006 368 1010 q 381 997 376 1001 q 388 988 385 992 q 397 978 392 985 q 407 965 401 971 q 417 955 413 960 q 426 945 421 950 q 432 939 432 940 l 422 939 q 426 943 422 940 q 435 951 431 946 q 442 959 440 957 q 445 963 443 961 q 449 969 447 965 q 453 976 451 972 q 458 983 456 979 q 464 990 461 986 q 469 999 467 994 q 475 1008 472 1003 q 481 1018 478 1013 q 486 1029 483 1024 q 492 1040 489 1035 q 499 1053 496 1046 l 613 1003 q 588 957 600 978 q 563 919 575 936 q 539 888 551 903 q 509 859 526 872 q 470 838 492 846 q 426 829 449 829 z "},"":{"ha":694,"x_min":104,"x_max":590,"o":"m 104 0 l 104 133 l 269 133 l 269 888 l 104 888 l 104 1021 l 590 1021 l 590 888 l 425 888 l 425 133 l 590 133 l 590 0 l 104 0 m 139 1175 l 139 1283 l 556 1283 l 556 1175 l 139 1175 z "},"":{"ha":694,"x_min":104,"x_max":590,"o":"m 104 0 l 104 133 l 279 133 l 279 589 l 124 589 l 124 722 l 435 722 l 435 133 l 590 133 l 590 0 l 104 0 m 139 876 l 139 985 l 556 985 l 556 876 l 139 876 z "},"":{"ha":694,"x_min":104,"x_max":590,"o":"m 104 0 l 104 133 l 269 133 l 269 888 l 104 888 l 104 1021 l 590 1021 l 590 888 l 425 888 l 425 133 l 590 133 l 590 0 l 104 0 m 347 1132 q 290 1135 318 1132 q 235 1149 261 1139 q 185 1177 208 1160 q 147 1218 163 1194 q 124 1269 131 1242 q 117 1326 117 1297 l 244 1326 q 252 1290 244 1307 q 275 1261 260 1272 q 309 1246 290 1250 q 347 1242 328 1242 q 385 1246 367 1242 q 419 1261 404 1250 q 442 1290 435 1272 q 450 1326 450 1307 l 578 1326 q 571 1269 578 1297 q 548 1218 564 1242 q 509 1177 532 1194 q 460 1149 486 1160 q 405 1135 433 1139 q 347 1132 376 1132 z "},"":{"ha":694,"x_min":104,"x_max":590,"o":"m 104 0 l 104 133 l 279 133 l 279 589 l 124 589 l 124 722 l 435 722 l 435 133 l 590 133 l 590 0 l 104 0 m 347 833 q 290 837 318 833 q 235 851 261 840 q 185 878 208 861 q 147 919 163 896 q 124 971 131 943 q 117 1028 117 999 l 244 1028 q 252 991 244 1008 q 275 963 260 974 q 309 947 290 951 q 347 943 328 943 q 385 947 367 943 q 419 963 404 951 q 442 991 435 974 q 450 1028 450 1008 l 578 1028 q 571 971 578 999 q 548 919 564 943 q 509 878 532 896 q 460 851 486 861 q 405 837 433 840 q 347 833 376 833 z "},"":{"ha":694,"x_min":104,"x_max":608,"o":"m 104 0 l 104 133 l 269 133 l 269 888 l 104 888 l 104 1021 l 590 1021 l 590 888 l 425 888 l 425 133 l 590 133 l 590 0 l 104 0 m 557 -310 q 515 -306 536 -310 q 472 -296 493 -303 q 433 -277 451 -289 q 400 -249 414 -265 q 379 -211 386 -232 q 372 -168 372 -190 q 392 -88 372 -126 q 443 -21 413 -50 q 512 28 474 8 q 590 57 550 47 l 590 0 q 556 -26 571 -11 q 528 -60 540 -42 q 508 -99 517 -78 q 500 -142 500 -119 q 506 -167 500 -154 q 522 -187 511 -179 q 545 -197 532 -194 q 571 -200 558 -200 q 590 -199 581 -200 q 608 -194 599 -197 l 608 -304 q 583 -308 596 -307 q 557 -310 571 -310 z "},"":{"ha":694,"x_min":104,"x_max":608,"o":"m 104 0 l 104 133 l 279 133 l 279 589 l 124 589 l 124 722 l 435 722 l 435 133 l 590 133 l 590 0 l 104 0 m 354 819 q 310 826 332 819 q 272 849 288 833 q 250 886 257 864 q 243 931 243 908 q 250 975 243 953 q 272 1013 257 997 q 310 1035 288 1028 q 354 1042 332 1042 q 399 1035 376 1042 q 436 1013 421 1028 q 458 975 451 997 q 465 931 465 953 q 458 886 465 908 q 436 849 451 864 q 399 826 421 833 q 354 819 376 819 m 557 -310 q 515 -306 536 -310 q 472 -296 493 -303 q 433 -277 451 -289 q 400 -249 414 -265 q 379 -211 386 -232 q 372 -168 372 -190 q 392 -88 372 -126 q 443 -21 413 -50 q 512 28 474 8 q 590 57 550 47 l 590 0 q 556 -26 571 -11 q 528 -60 540 -42 q 508 -99 517 -78 q 500 -142 500 -119 q 506 -167 500 -154 q 522 -187 511 -179 q 545 -197 532 -194 q 571 -200 558 -200 q 590 -199 581 -200 q 608 -194 599 -197 l 608 -304 q 583 -308 596 -307 q 557 -310 571 -310 z "},"":{"ha":694,"x_min":104,"x_max":590,"o":"m 104 0 l 104 133 l 269 133 l 269 888 l 104 888 l 104 1021 l 590 1021 l 590 888 l 425 888 l 425 133 l 590 133 l 590 0 l 104 0 m 347 1118 q 303 1125 325 1118 q 265 1147 281 1132 q 243 1185 250 1163 q 236 1229 236 1207 q 243 1274 236 1251 q 265 1311 250 1296 q 303 1333 281 1326 q 347 1340 325 1340 q 392 1333 369 1340 q 429 1311 414 1326 q 451 1274 444 1296 q 458 1229 458 1251 q 451 1185 458 1207 q 429 1147 444 1163 q 392 1125 414 1132 q 347 1118 369 1118 z "},"":{"ha":694,"x_min":104,"x_max":590,"o":"m 104 0 l 104 133 l 279 133 l 279 589 l 124 589 l 124 722 l 435 722 l 435 133 l 590 133 l 590 0 l 104 0 z "},"":{"ha":694,"x_min":58,"x_max":663,"o":"m 314 -11 q 245 -4 279 -11 q 181 19 211 3 q 126 63 150 36 q 88 120 103 89 q 65 185 72 151 q 58 254 58 219 l 58 263 l 214 263 l 214 258 q 219 211 214 235 q 235 167 224 188 q 269 135 247 147 q 314 122 290 122 q 349 129 332 122 q 377 150 365 136 q 396 181 389 164 q 407 215 403 197 q 413 249 411 232 q 415 285 415 267 l 415 888 l 249 888 l 249 1021 l 569 1021 l 569 285 q 565 210 569 247 q 546 140 560 174 q 509 76 532 106 q 455 26 486 46 q 388 -3 424 6 q 314 -11 351 -11 m 322 1117 l 244 1169 l 372 1361 l 533 1361 l 618 1233 l 661 1169 l 583 1117 l 453 1268 l 322 1117 z "},"":{"ha":694,"x_min":4,"x_max":633,"o":"m 257 -310 q 193 -305 225 -310 q 132 -286 161 -300 q 78 -251 103 -272 q 37 -201 53 -229 q 13 -141 21 -172 q 4 -78 4 -110 l 160 -78 q 166 -116 160 -97 q 186 -149 172 -135 q 219 -170 200 -164 q 257 -176 238 -176 q 292 -169 275 -176 q 320 -149 308 -162 q 339 -118 332 -135 q 350 -84 346 -101 q 356 -49 354 -67 q 357 -14 357 -32 l 357 589 l 192 589 l 192 722 l 513 722 l 513 -14 q 508 -88 513 -51 q 489 -159 503 -125 q 452 -223 475 -193 q 399 -273 429 -253 q 331 -301 368 -293 q 257 -310 294 -310 m 293 818 l 215 871 l 343 1063 l 504 1063 l 589 935 l 632 871 l 554 818 l 424 969 l 293 818 z "},"":{"ha":694,"x_min":104,"x_max":635,"o":"m 469 0 l 299 407 l 258 335 l 258 0 l 104 0 l 104 1021 l 258 1021 l 258 608 l 339 767 l 465 1021 l 635 1021 l 379 556 l 635 0 l 469 0 m 332 -356 l 271 -299 q 301 -262 289 -282 q 322 -219 314 -242 q 299 -210 310 -217 q 282 -192 289 -203 q 272 -169 275 -182 q 269 -144 269 -157 q 274 -114 269 -129 q 290 -87 279 -99 q 317 -72 301 -76 q 347 -67 332 -67 q 378 -72 363 -67 q 404 -87 393 -76 q 420 -114 415 -99 q 425 -144 425 -129 q 419 -204 425 -175 q 401 -260 414 -233 q 372 -312 389 -287 q 332 -356 354 -336 z "},"":{"ha":694,"x_min":104,"x_max":635,"o":"m 104 0 l 104 1021 l 258 1021 l 258 421 l 457 722 l 635 722 l 396 392 l 635 0 l 463 0 l 311 272 l 258 200 l 258 0 l 104 0 m 332 -356 l 271 -299 q 301 -262 289 -282 q 322 -219 314 -242 q 299 -210 310 -217 q 282 -192 289 -203 q 272 -169 275 -182 q 269 -144 269 -157 q 274 -114 269 -129 q 290 -87 279 -99 q 317 -72 301 -76 q 347 -67 332 -67 q 378 -72 363 -67 q 404 -87 393 -76 q 420 -114 415 -99 q 425 -144 425 -129 q 419 -204 425 -175 q 401 -260 414 -233 q 372 -312 389 -287 q 332 -356 354 -336 z "},"":{"ha":694,"x_min":104,"x_max":635,"o":"m 104 0 l 104 722 l 258 722 l 258 421 l 457 722 l 635 722 l 396 392 l 635 0 l 463 0 l 311 272 l 258 200 l 258 0 l 104 0 z "},"":{"ha":694,"x_min":97,"x_max":621,"o":"m 124 0 l 124 1021 l 278 1021 l 278 133 l 621 133 l 621 0 l 124 0 m 182 1099 l 97 1165 l 271 1368 l 372 1285 l 182 1099 z "},"":{"ha":694,"x_min":104,"x_max":590,"o":"m 104 0 l 104 133 l 279 133 l 279 888 l 124 888 l 124 1021 l 435 1021 l 435 133 l 590 133 l 590 0 l 104 0 m 336 1099 l 251 1165 l 425 1368 l 526 1285 l 336 1099 z "},"":{"ha":694,"x_min":124,"x_max":621,"o":"m 124 0 l 124 1021 l 278 1021 l 278 133 l 621 133 l 621 0 l 124 0 m 332 -356 l 271 -299 q 301 -262 289 -282 q 322 -219 314 -242 q 299 -210 310 -217 q 282 -192 289 -203 q 272 -169 275 -182 q 269 -144 269 -157 q 274 -114 269 -129 q 290 -87 279 -99 q 317 -72 301 -76 q 347 -67 332 -67 q 378 -72 363 -67 q 404 -87 393 -76 q 420 -114 415 -99 q 425 -144 425 -129 q 419 -204 425 -175 q 401 -260 414 -233 q 372 -312 389 -287 q 332 -356 354 -336 z "},"":{"ha":694,"x_min":104,"x_max":590,"o":"m 104 0 l 104 133 l 279 133 l 279 888 l 124 888 l 124 1021 l 435 1021 l 435 133 l 590 133 l 590 0 l 104 0 m 342 -356 l 281 -299 q 311 -262 299 -282 q 332 -219 324 -242 q 309 -210 319 -217 q 292 -192 299 -203 q 282 -169 285 -182 q 279 -144 279 -157 q 284 -114 279 -129 q 300 -87 289 -99 q 326 -72 311 -76 q 357 -67 342 -67 q 388 -72 372 -67 q 414 -87 403 -76 q 430 -114 425 -99 q 435 -144 435 -129 q 429 -204 435 -175 q 411 -260 424 -233 q 381 -312 399 -287 q 342 -356 364 -336 z "},"":{"ha":694,"x_min":124,"x_max":625,"o":"m 531 781 l 469 839 q 500 876 488 856 q 521 918 513 896 q 498 928 508 921 q 481 945 488 935 q 471 968 474 956 q 468 993 468 981 q 473 1024 468 1008 q 489 1050 478 1039 q 515 1066 500 1061 q 546 1071 531 1071 q 576 1066 561 1071 q 603 1050 592 1061 q 619 1024 614 1039 q 624 993 624 1008 q 618 933 624 963 q 600 877 613 904 q 570 826 588 850 q 531 781 553 801 m 124 0 l 124 1021 l 278 1021 l 278 133 l 621 133 l 621 0 l 124 0 z "},"":{"ha":694,"x_min":104,"x_max":658,"o":"m 565 781 l 504 839 q 535 876 522 856 q 556 918 547 896 q 533 928 543 921 q 515 945 522 935 q 506 968 508 956 q 503 993 503 981 q 508 1024 503 1008 q 524 1050 513 1039 q 550 1066 535 1061 q 581 1071 565 1071 q 611 1066 596 1071 q 638 1050 626 1061 q 653 1024 649 1039 q 658 993 658 1008 q 653 933 658 963 q 635 877 647 904 q 605 826 622 850 q 565 781 588 801 m 104 0 l 104 133 l 279 133 l 279 888 l 124 888 l 124 1021 l 435 1021 l 435 133 l 590 133 l 590 0 l 104 0 z "},"":{"ha":694,"x_min":124,"x_max":621,"o":"m 124 0 l 124 1021 l 278 1021 l 278 133 l 621 133 l 621 0 l 124 0 m 465 456 q 417 463 440 456 q 376 488 393 471 q 351 529 358 506 q 343 578 343 553 q 351 626 343 603 q 376 667 358 650 q 417 692 393 685 q 465 700 440 700 q 514 692 490 700 q 555 667 538 685 q 580 626 572 650 q 588 578 588 603 q 580 529 588 553 q 555 488 572 506 q 514 463 538 471 q 465 456 490 456 z "},"":{"ha":694,"x_min":47,"x_max":649,"o":"m 49 0 l 49 133 l 224 133 l 224 888 l 68 888 l 68 1021 l 379 1021 l 379 133 l 535 133 l 535 0 l 49 0 m 525 456 q 476 463 500 456 q 435 488 453 471 q 410 529 418 506 q 403 578 403 553 q 410 626 403 603 q 435 667 418 650 q 476 692 453 685 q 525 700 500 700 q 574 692 550 700 q 615 667 597 685 q 640 626 632 650 q 647 578 647 603 q 640 529 647 553 q 615 488 632 506 q 574 463 597 471 q 525 456 550 456 z "},"":{"ha":694,"x_min":14,"x_max":621,"o":"m 124 0 l 124 461 l 68 433 l 14 526 l 124 581 l 124 1021 l 278 1021 l 278 658 l 403 721 l 457 628 l 278 539 l 278 133 l 621 133 l 621 0 l 124 0 z "},"":{"ha":694,"x_min":104,"x_max":590,"o":"m 104 0 l 104 133 l 279 133 l 279 432 l 189 388 l 136 481 l 279 551 l 279 888 l 124 888 l 124 1021 l 435 1021 l 435 629 l 525 675 l 578 582 l 435 510 l 435 133 l 590 133 l 590 0 l 104 0 z "},"":{"ha":694,"x_min":82,"x_max":613,"o":"m 82 0 l 82 1021 l 242 1021 l 479 288 q 470 368 475 328 q 463 449 465 408 q 459 531 460 490 q 458 613 458 572 l 458 1021 l 613 1021 l 613 0 l 453 0 l 215 733 q 224 653 219 693 q 232 572 229 613 q 235 490 235 531 q 236 408 236 449 l 236 0 l 82 0 m 329 1099 l 244 1165 l 418 1368 l 519 1285 l 329 1099 z "},"":{"ha":694,"x_min":82,"x_max":613,"o":"m 82 0 l 82 722 l 236 722 l 236 597 q 263 651 247 625 q 302 697 279 678 q 354 724 325 715 q 414 733 383 733 q 478 722 447 733 q 534 688 510 711 q 574 636 558 665 q 598 575 589 607 q 610 510 607 543 q 613 444 613 478 l 613 0 l 458 0 l 458 444 q 456 481 458 463 q 449 516 454 499 q 435 549 444 533 q 413 576 426 564 q 383 594 400 589 q 347 600 365 600 q 312 594 329 600 q 281 576 294 589 q 259 549 268 564 q 245 516 250 533 q 238 481 240 499 q 236 444 236 463 l 236 0 l 82 0 m 329 800 l 244 867 l 418 1069 l 519 986 l 329 800 z "},"":{"ha":694,"x_min":82,"x_max":613,"o":"m 82 0 l 82 1021 l 242 1021 l 479 288 q 470 368 475 328 q 463 449 465 408 q 459 531 460 490 q 458 613 458 572 l 458 1021 l 613 1021 l 613 0 l 453 0 l 215 733 q 224 653 219 693 q 232 572 229 613 q 235 490 235 531 q 236 408 236 449 l 236 0 l 82 0 m 332 -356 l 271 -299 q 301 -262 289 -282 q 322 -219 314 -242 q 299 -210 310 -217 q 282 -192 289 -203 q 272 -169 275 -182 q 269 -144 269 -157 q 274 -114 269 -129 q 290 -87 279 -99 q 317 -72 301 -76 q 347 -67 332 -67 q 378 -72 363 -67 q 404 -87 393 -76 q 420 -114 415 -99 q 425 -144 425 -129 q 419 -204 425 -175 q 401 -260 414 -233 q 372 -312 389 -287 q 332 -356 354 -336 z "},"":{"ha":694,"x_min":82,"x_max":613,"o":"m 82 0 l 82 722 l 236 722 l 236 597 q 263 651 247 625 q 302 697 279 678 q 354 724 325 715 q 414 733 383 733 q 478 722 447 733 q 534 688 510 711 q 574 636 558 665 q 598 575 589 607 q 610 510 607 543 q 613 444 613 478 l 613 0 l 458 0 l 458 444 q 456 481 458 463 q 449 516 454 499 q 435 549 444 533 q 413 576 426 564 q 383 594 400 589 q 347 600 365 600 q 312 594 329 600 q 281 576 294 589 q 259 549 268 564 q 245 516 250 533 q 238 481 240 499 q 236 444 236 463 l 236 0 l 82 0 m 332 -356 l 271 -299 q 301 -262 289 -282 q 322 -219 314 -242 q 299 -210 310 -217 q 282 -192 289 -203 q 272 -169 275 -182 q 269 -144 269 -157 q 274 -114 269 -129 q 290 -87 279 -99 q 317 -72 301 -76 q 347 -67 332 -67 q 378 -72 363 -67 q 404 -87 393 -76 q 420 -114 415 -99 q 425 -144 425 -129 q 419 -204 425 -175 q 401 -260 414 -233 q 372 -312 389 -287 q 332 -356 354 -336 z "},"":{"ha":694,"x_min":82,"x_max":613,"o":"m 82 0 l 82 1021 l 242 1021 l 479 288 q 470 368 475 328 q 463 449 465 408 q 459 531 460 490 q 458 613 458 572 l 458 1021 l 613 1021 l 613 0 l 453 0 l 215 733 q 224 653 219 693 q 232 572 229 613 q 235 490 235 531 q 236 408 236 449 l 236 0 l 82 0 m 267 1132 l 139 1324 l 217 1376 l 347 1225 l 478 1376 l 556 1324 l 428 1132 l 267 1132 z "},"":{"ha":694,"x_min":82,"x_max":613,"o":"m 82 0 l 82 722 l 236 722 l 236 597 q 263 651 247 625 q 302 697 279 678 q 354 724 325 715 q 414 733 383 733 q 478 722 447 733 q 534 688 510 711 q 574 636 558 665 q 598 575 589 607 q 610 510 607 543 q 613 444 613 478 l 613 0 l 458 0 l 458 444 q 456 481 458 463 q 449 516 454 499 q 435 549 444 533 q 413 576 426 564 q 383 594 400 589 q 347 600 365 600 q 312 594 329 600 q 281 576 294 589 q 259 549 268 564 q 245 516 250 533 q 238 481 240 499 q 236 444 236 463 l 236 0 l 82 0 m 267 833 l 139 1025 l 217 1078 l 347 926 l 478 1078 l 556 1025 l 428 833 l 267 833 z "},"":{"ha":694,"x_min":4,"x_max":613,"o":"m 82 0 l 82 722 l 236 722 l 236 597 q 263 651 247 625 q 302 697 279 678 q 354 724 325 715 q 414 733 383 733 q 478 722 447 733 q 534 688 510 711 q 574 636 558 665 q 598 575 589 607 q 610 510 607 543 q 613 444 613 478 l 613 0 l 458 0 l 458 444 q 456 481 458 463 q 449 516 454 499 q 435 549 444 533 q 413 576 426 564 q 383 594 400 589 q 347 600 365 600 q 312 594 329 600 q 281 576 294 589 q 259 549 268 564 q 245 516 250 533 q 238 481 240 499 q 236 444 236 463 l 236 0 l 82 0 m 67 781 l 6 839 q 36 876 24 856 q 57 918 49 896 q 34 928 44 921 q 17 945 24 935 q 7 968 10 956 q 4 993 4 981 q 9 1024 4 1008 q 25 1050 14 1039 q 51 1066 36 1061 q 82 1071 67 1071 q 113 1066 97 1071 q 139 1050 128 1061 q 155 1024 150 1039 q 160 993 160 1008 q 154 933 160 963 q 136 877 149 904 q 106 826 124 850 q 67 781 89 801 z "},"":{"ha":694,"x_min":82,"x_max":613,"o":"m 300 -299 l 300 -167 l 328 -167 q 383 -156 356 -167 q 427 -124 410 -146 q 451 -75 444 -103 q 458 -19 458 -47 l 458 0 l 453 0 l 215 733 q 224 653 219 693 q 232 572 229 613 q 235 490 235 531 q 236 408 236 449 l 236 0 l 82 0 l 82 1021 l 242 1021 l 479 288 q 470 368 475 328 q 463 449 465 408 q 459 531 460 490 q 458 613 458 572 l 458 1021 l 613 1021 l 613 -19 q 606 -94 613 -57 q 581 -165 599 -132 q 536 -226 564 -199 q 474 -269 508 -253 q 403 -292 440 -286 q 328 -299 365 -299 l 300 -299 z "},"":{"ha":694,"x_min":82,"x_max":613,"o":"m 299 -299 l 299 -165 l 328 -165 q 382 -155 356 -165 q 426 -123 408 -144 q 451 -74 444 -101 q 458 -18 458 -47 l 458 444 q 456 481 458 463 q 449 516 454 499 q 435 549 444 533 q 413 576 426 564 q 383 594 400 589 q 347 600 365 600 q 312 594 329 600 q 281 576 294 589 q 259 549 268 564 q 245 516 250 533 q 238 481 240 499 q 236 444 236 463 l 236 0 l 82 0 l 82 722 l 236 722 l 236 597 q 263 651 247 625 q 302 697 279 678 q 354 724 325 715 q 414 733 383 733 q 478 722 447 733 q 534 688 510 711 q 574 636 558 665 q 598 575 589 607 q 610 510 607 543 q 613 444 613 478 l 613 -18 q 606 -94 613 -57 q 581 -165 599 -132 q 536 -226 564 -199 q 474 -269 508 -253 q 403 -292 440 -286 q 328 -299 365 -299 l 299 -299 z "},"":{"ha":694,"x_min":71,"x_max":624,"o":"m 347 -11 q 270 -3 308 -11 q 199 23 232 4 q 140 71 165 42 q 99 135 114 100 q 77 208 83 171 q 71 285 71 246 l 71 736 q 77 813 71 775 q 99 885 83 850 q 140 950 114 921 q 199 998 165 979 q 270 1024 232 1017 q 347 1032 308 1032 q 424 1024 386 1032 q 496 998 463 1017 q 555 950 529 979 q 596 885 581 921 q 617 813 611 850 q 624 736 624 775 l 624 285 q 617 208 624 246 q 596 135 611 171 q 555 71 581 100 q 496 23 529 42 q 424 -3 463 4 q 347 -11 386 -11 m 347 122 q 385 128 367 122 q 419 146 404 133 q 443 175 433 158 q 459 210 453 192 q 467 247 465 228 q 469 285 469 265 l 469 736 q 467 774 469 756 q 459 811 465 793 q 443 846 453 829 q 419 875 433 863 q 385 893 404 888 q 347 899 367 899 q 309 893 328 899 q 276 875 290 888 q 251 846 261 863 q 235 811 242 829 q 227 774 229 793 q 225 736 225 756 l 225 285 q 227 247 225 265 q 235 210 229 228 q 251 175 242 192 q 276 146 261 158 q 309 128 290 133 q 347 122 328 122 m 139 1175 l 139 1283 l 556 1283 l 556 1175 l 139 1175 z "},"":{"ha":694,"x_min":71,"x_max":624,"o":"m 347 -11 q 272 -4 310 -11 q 200 21 233 3 q 141 67 167 39 q 99 130 115 96 q 77 202 83 164 q 71 278 71 240 l 71 444 q 77 520 71 482 q 99 592 83 558 q 141 655 115 626 q 200 701 167 683 q 272 726 233 719 q 347 733 310 733 q 423 726 385 733 q 494 701 461 719 q 553 655 528 683 q 595 592 579 626 q 617 520 611 558 q 624 444 624 482 l 624 278 q 617 202 624 240 q 595 130 611 164 q 553 67 579 96 q 494 21 528 39 q 423 -4 461 3 q 347 -11 385 -11 m 347 122 q 401 135 375 122 q 442 171 426 147 q 464 222 458 194 q 469 278 469 250 l 469 444 q 464 500 469 472 q 442 551 458 528 q 401 588 426 575 q 347 600 375 600 q 294 588 319 600 q 252 551 268 575 q 231 500 236 528 q 225 444 225 472 l 225 278 q 231 222 225 250 q 252 171 236 194 q 294 135 268 147 q 347 122 319 122 m 139 876 l 139 985 l 556 985 l 556 876 l 139 876 z "},"":{"ha":694,"x_min":71,"x_max":624,"o":"m 347 -11 q 270 -3 308 -11 q 199 23 232 4 q 140 71 165 42 q 99 135 114 100 q 77 208 83 171 q 71 285 71 246 l 71 736 q 77 813 71 775 q 99 885 83 850 q 140 950 114 921 q 199 998 165 979 q 270 1024 232 1017 q 347 1032 308 1032 q 424 1024 386 1032 q 496 998 463 1017 q 555 950 529 979 q 596 885 581 921 q 617 813 611 850 q 624 736 624 775 l 624 285 q 617 208 624 246 q 596 135 611 171 q 555 71 581 100 q 496 23 529 42 q 424 -3 463 4 q 347 -11 386 -11 m 347 122 q 385 128 367 122 q 419 146 404 133 q 443 175 433 158 q 459 210 453 192 q 467 247 465 228 q 469 285 469 265 l 469 736 q 467 774 469 756 q 459 811 465 793 q 443 846 453 829 q 419 875 433 863 q 385 893 404 888 q 347 899 367 899 q 309 893 328 899 q 276 875 290 888 q 251 846 261 863 q 235 811 242 829 q 227 774 229 793 q 225 736 225 756 l 225 285 q 227 247 225 265 q 235 210 229 228 q 251 175 242 192 q 276 146 261 158 q 309 128 290 133 q 347 122 328 122 m 347 1132 q 290 1135 318 1132 q 235 1149 261 1139 q 185 1177 208 1160 q 147 1218 163 1194 q 124 1269 131 1242 q 117 1326 117 1297 l 244 1326 q 252 1290 244 1307 q 275 1261 260 1272 q 309 1246 290 1250 q 347 1242 328 1242 q 385 1246 367 1242 q 419 1261 404 1250 q 442 1290 435 1272 q 450 1326 450 1307 l 578 1326 q 571 1269 578 1297 q 548 1218 564 1242 q 509 1177 532 1194 q 460 1149 486 1160 q 405 1135 433 1139 q 347 1132 376 1132 z "},"":{"ha":694,"x_min":71,"x_max":624,"o":"m 347 -11 q 272 -4 310 -11 q 200 21 233 3 q 141 67 167 39 q 99 130 115 96 q 77 202 83 164 q 71 278 71 240 l 71 444 q 77 520 71 482 q 99 592 83 558 q 141 655 115 626 q 200 701 167 683 q 272 726 233 719 q 347 733 310 733 q 423 726 385 733 q 494 701 461 719 q 553 655 528 683 q 595 592 579 626 q 617 520 611 558 q 624 444 624 482 l 624 278 q 617 202 624 240 q 595 130 611 164 q 553 67 579 96 q 494 21 528 39 q 423 -4 461 3 q 347 -11 385 -11 m 347 122 q 401 135 375 122 q 442 171 426 147 q 464 222 458 194 q 469 278 469 250 l 469 444 q 464 500 469 472 q 442 551 458 528 q 401 588 426 575 q 347 600 375 600 q 294 588 319 600 q 252 551 268 575 q 231 500 236 528 q 225 444 225 472 l 225 278 q 231 222 225 250 q 252 171 236 194 q 294 135 268 147 q 347 122 319 122 m 347 833 q 290 837 318 833 q 235 851 261 840 q 185 878 208 861 q 147 919 163 896 q 124 971 131 943 q 117 1028 117 999 l 244 1028 q 252 991 244 1008 q 275 963 260 974 q 309 947 290 951 q 347 943 328 943 q 385 947 367 943 q 419 963 404 951 q 442 991 435 974 q 450 1028 450 1008 l 578 1028 q 571 971 578 999 q 548 919 564 943 q 509 878 532 896 q 460 851 486 861 q 405 837 433 840 q 347 833 376 833 z "},"":{"ha":694,"x_min":71,"x_max":653,"o":"m 347 -11 q 270 -3 308 -11 q 199 23 232 4 q 140 71 165 42 q 99 135 114 100 q 77 208 83 171 q 71 285 71 246 l 71 736 q 77 813 71 775 q 99 885 83 850 q 140 950 114 921 q 199 998 165 979 q 270 1024 232 1017 q 347 1032 308 1032 q 424 1024 386 1032 q 496 998 463 1017 q 555 950 529 979 q 596 885 581 921 q 617 813 611 850 q 624 736 624 775 l 624 285 q 617 208 624 246 q 596 135 611 171 q 555 71 581 100 q 496 23 529 42 q 424 -3 463 4 q 347 -11 386 -11 m 347 122 q 385 128 367 122 q 419 146 404 133 q 443 175 433 158 q 459 210 453 192 q 467 247 465 228 q 469 285 469 265 l 469 736 q 467 774 469 756 q 459 811 465 793 q 443 846 453 829 q 419 875 433 863 q 385 893 404 888 q 347 899 367 899 q 309 893 328 899 q 276 875 290 888 q 251 846 261 863 q 235 811 242 829 q 227 774 229 793 q 225 736 225 756 l 225 285 q 227 247 225 265 q 235 210 229 228 q 251 175 242 192 q 276 146 261 158 q 309 128 290 133 q 347 122 328 122 m 444 1097 l 365 1167 l 556 1369 l 653 1283 l 444 1097 m 208 1097 l 129 1167 l 319 1369 l 417 1283 l 208 1097 z "},"":{"ha":694,"x_min":71,"x_max":653,"o":"m 347 -11 q 272 -4 310 -11 q 200 21 233 3 q 141 67 167 39 q 99 130 115 96 q 77 202 83 164 q 71 278 71 240 l 71 444 q 77 520 71 482 q 99 592 83 558 q 141 655 115 626 q 200 701 167 683 q 272 726 233 719 q 347 733 310 733 q 423 726 385 733 q 494 701 461 719 q 553 655 528 683 q 595 592 579 626 q 617 520 611 558 q 624 444 624 482 l 624 278 q 617 202 624 240 q 595 130 611 164 q 553 67 579 96 q 494 21 528 39 q 423 -4 461 3 q 347 -11 385 -11 m 347 122 q 401 135 375 122 q 442 171 426 147 q 464 222 458 194 q 469 278 469 250 l 469 444 q 464 500 469 472 q 442 551 458 528 q 401 588 426 575 q 347 600 375 600 q 294 588 319 600 q 252 551 268 575 q 231 500 236 528 q 225 444 225 472 l 225 278 q 231 222 225 250 q 252 171 236 194 q 294 135 268 147 q 347 122 319 122 m 444 799 l 365 868 l 556 1071 l 653 985 l 444 799 m 208 799 l 129 868 l 319 1071 l 417 985 l 208 799 z "},"":{"ha":694,"x_min":47,"x_max":636,"o":"m 314 0 l 314 1021 l 636 1021 l 636 904 l 449 904 l 449 589 l 608 589 l 608 472 l 449 472 l 449 117 l 636 117 l 636 0 l 314 0 m 314 0 q 240 7 276 0 q 171 32 203 14 q 114 78 139 50 q 74 140 89 107 q 53 210 58 174 q 47 285 47 247 l 47 736 q 53 810 47 774 q 74 881 58 847 q 114 942 89 914 q 171 989 139 971 q 240 1014 203 1007 q 314 1021 276 1021 l 314 904 q 255 891 283 904 q 210 852 226 878 q 188 797 193 826 q 182 736 182 767 l 182 285 q 188 224 182 254 q 210 169 193 194 q 255 130 226 143 q 314 117 283 117 l 314 0 z "},"":{"ha":694,"x_min":47,"x_max":647,"o":"m 231 -11 q 179 -6 204 -11 q 132 12 154 -1 q 92 45 110 25 q 65 89 75 65 q 51 138 54 113 q 47 189 47 163 l 47 533 q 51 585 47 560 q 65 633 54 610 q 92 677 75 657 q 132 710 110 697 q 179 728 154 724 q 231 733 204 733 q 292 726 261 733 q 347 699 322 718 q 403 726 372 718 q 464 733 433 733 q 515 728 490 733 q 563 710 540 724 q 602 677 585 697 q 630 633 619 657 q 644 585 640 610 q 647 533 647 560 l 647 303 l 415 303 l 415 189 q 417 162 415 175 q 423 136 418 149 q 438 115 428 124 q 463 106 449 106 q 488 119 478 106 q 503 147 499 132 q 508 178 507 163 q 510 210 510 193 l 510 214 l 644 214 q 646 208 646 211 q 646 203 646 206 q 641 150 646 176 q 626 99 636 124 q 601 53 617 75 q 563 17 585 32 q 515 -5 542 1 q 463 -11 489 -11 q 401 -3 432 -11 q 347 24 371 4 q 292 -3 322 4 q 231 -11 261 -11 m 415 419 l 513 419 l 513 533 q 511 560 513 547 q 504 586 510 574 q 488 608 499 599 q 464 617 478 617 q 440 608 450 617 q 424 586 429 599 q 417 560 418 574 q 415 533 415 547 l 415 419 m 231 106 q 255 115 244 106 q 271 136 265 124 q 278 162 276 149 q 279 189 279 175 l 279 533 q 278 560 279 547 q 271 586 276 574 q 255 608 265 599 q 231 617 244 617 q 206 608 217 617 q 190 586 196 599 q 183 560 185 574 q 182 533 182 547 l 182 189 q 183 162 182 175 q 190 136 185 149 q 206 115 196 124 q 231 106 217 106 z "},"":{"ha":694,"x_min":82,"x_max":646,"o":"m 481 0 l 300 399 l 236 399 l 236 0 l 82 0 l 82 1021 l 354 1021 q 431 1012 393 1021 q 503 982 469 1003 q 560 930 536 961 q 599 863 585 899 q 618 788 613 826 q 624 710 624 749 q 616 619 624 664 q 588 535 608 575 q 534 463 568 494 q 458 415 500 431 l 646 0 l 481 0 m 236 532 l 354 532 q 392 540 374 532 q 425 561 411 547 q 447 594 439 575 q 460 631 456 613 q 467 670 465 650 q 469 710 469 690 q 467 749 469 729 q 460 788 465 769 q 447 826 456 807 q 425 858 439 844 q 392 880 411 872 q 354 888 374 888 l 236 888 l 236 532 m 329 1099 l 244 1165 l 418 1368 l 519 1285 l 329 1099 z "},"":{"ha":694,"x_min":160,"x_max":639,"o":"m 160 0 l 160 722 l 315 722 l 315 572 q 337 631 324 603 q 371 683 350 660 q 421 720 392 707 q 481 733 450 733 q 533 725 507 733 q 578 699 558 717 q 609 657 597 681 q 628 608 621 633 q 637 556 635 582 q 639 503 639 529 l 483 503 q 481 536 483 519 q 472 567 479 553 q 451 591 465 582 q 419 600 436 600 q 378 587 397 600 q 349 555 360 574 q 331 515 338 536 q 322 471 325 493 q 317 427 318 449 q 315 383 315 406 l 315 0 l 160 0 m 340 800 l 256 867 l 429 1069 l 531 986 l 340 800 z "},"":{"ha":694,"x_min":82,"x_max":646,"o":"m 481 0 l 300 399 l 236 399 l 236 0 l 82 0 l 82 1021 l 354 1021 q 431 1012 393 1021 q 503 982 469 1003 q 560 930 536 961 q 599 863 585 899 q 618 788 613 826 q 624 710 624 749 q 616 619 624 664 q 588 535 608 575 q 534 463 568 494 q 458 415 500 431 l 646 0 l 481 0 m 236 532 l 354 532 q 392 540 374 532 q 425 561 411 547 q 447 594 439 575 q 460 631 456 613 q 467 670 465 650 q 469 710 469 690 q 467 749 469 729 q 460 788 465 769 q 447 826 456 807 q 425 858 439 844 q 392 880 411 872 q 354 888 374 888 l 236 888 l 236 532 m 332 -356 l 271 -299 q 301 -262 289 -282 q 322 -219 314 -242 q 299 -210 310 -217 q 282 -192 289 -203 q 272 -169 275 -182 q 269 -144 269 -157 q 274 -114 269 -129 q 290 -87 279 -99 q 317 -72 301 -76 q 347 -67 332 -67 q 378 -72 363 -67 q 404 -87 393 -76 q 420 -114 415 -99 q 425 -144 425 -129 q 419 -204 425 -175 q 401 -260 414 -233 q 372 -312 389 -287 q 332 -356 354 -336 z "},"":{"ha":694,"x_min":158,"x_max":639,"o":"m 160 0 l 160 722 l 315 722 l 315 572 q 337 631 324 603 q 371 683 350 660 q 421 720 392 707 q 481 733 450 733 q 533 725 507 733 q 578 699 558 717 q 609 657 597 681 q 628 608 621 633 q 637 556 635 582 q 639 503 639 529 l 483 503 q 481 536 483 519 q 472 567 479 553 q 451 591 465 582 q 419 600 436 600 q 378 587 397 600 q 349 555 360 574 q 331 515 338 536 q 322 471 325 493 q 317 427 318 449 q 315 383 315 406 l 315 0 l 160 0 m 222 -356 l 161 -299 q 192 -262 179 -282 q 213 -219 204 -242 q 190 -210 200 -217 q 172 -192 179 -203 q 163 -169 165 -182 q 160 -144 160 -157 q 165 -114 160 -129 q 181 -87 169 -99 q 207 -72 192 -76 q 238 -67 222 -67 q 268 -72 253 -67 q 294 -87 283 -76 q 310 -114 306 -99 q 315 -144 315 -129 q 310 -204 315 -175 q 292 -260 304 -233 q 262 -312 279 -287 q 222 -356 244 -336 z "},"":{"ha":694,"x_min":82,"x_max":646,"o":"m 481 0 l 300 399 l 236 399 l 236 0 l 82 0 l 82 1021 l 354 1021 q 431 1012 393 1021 q 503 982 469 1003 q 560 930 536 961 q 599 863 585 899 q 618 788 613 826 q 624 710 624 749 q 616 619 624 664 q 588 535 608 575 q 534 463 568 494 q 458 415 500 431 l 646 0 l 481 0 m 236 532 l 354 532 q 392 540 374 532 q 425 561 411 547 q 447 594 439 575 q 460 631 456 613 q 467 670 465 650 q 469 710 469 690 q 467 749 469 729 q 460 788 465 769 q 447 826 456 807 q 425 858 439 844 q 392 880 411 872 q 354 888 374 888 l 236 888 l 236 532 m 267 1132 l 139 1324 l 217 1376 l 347 1225 l 478 1376 l 556 1324 l 428 1132 l 267 1132 z "},"":{"ha":694,"x_min":149,"x_max":639,"o":"m 160 0 l 160 722 l 315 722 l 315 572 q 337 631 324 603 q 371 683 350 660 q 421 720 392 707 q 481 733 450 733 q 533 725 507 733 q 578 699 558 717 q 609 657 597 681 q 628 608 621 633 q 637 556 635 582 q 639 503 639 529 l 483 503 q 481 536 483 519 q 472 567 479 553 q 451 591 465 582 q 419 600 436 600 q 378 587 397 600 q 349 555 360 574 q 331 515 338 536 q 322 471 325 493 q 317 427 318 449 q 315 383 315 406 l 315 0 l 160 0 m 278 833 l 150 1025 l 228 1078 l 358 926 l 489 1078 l 567 1025 l 439 833 l 278 833 z "},"":{"ha":694,"x_min":68,"x_max":624,"o":"m 346 -11 q 274 -6 310 -11 q 206 16 239 0 q 147 56 174 32 q 102 112 119 81 q 76 178 85 143 q 68 250 68 214 l 68 263 l 222 263 l 222 257 q 230 206 222 231 q 254 160 238 181 q 295 131 271 140 q 346 122 319 122 q 396 131 371 122 q 438 160 421 140 q 462 204 454 179 q 469 254 469 229 q 456 321 469 289 q 418 377 442 353 q 365 418 394 401 q 304 451 335 435 q 245 485 274 467 q 192 528 217 504 q 146 578 167 551 q 111 637 125 606 q 90 701 97 668 q 82 768 82 735 q 90 839 82 804 q 113 905 97 874 q 155 962 129 936 q 212 1003 181 988 q 278 1026 243 1019 q 349 1032 314 1032 q 419 1026 383 1032 q 485 1003 454 1019 q 542 963 517 988 q 583 906 567 938 q 608 840 600 875 q 615 771 615 806 l 615 758 l 461 758 l 461 764 q 455 813 461 789 q 434 858 449 838 q 397 888 419 878 q 349 899 374 899 q 301 889 324 899 q 263 860 278 879 q 242 816 249 840 q 236 767 236 792 q 250 701 236 733 q 288 644 264 669 q 341 603 311 619 q 401 570 371 586 q 459 535 431 554 q 513 494 488 517 q 559 443 539 471 q 594 385 579 415 q 616 321 608 354 q 624 253 624 288 q 615 181 624 217 q 590 114 607 146 q 546 57 572 82 q 487 17 519 32 q 418 -5 454 1 q 346 -11 382 -11 m 329 1099 l 244 1165 l 418 1368 l 519 1285 l 329 1099 z "},"":{"ha":694,"x_min":79,"x_max":613,"o":"m 346 -11 q 283 -8 314 -11 q 222 6 251 -4 q 166 33 193 15 q 119 74 139 50 q 90 129 100 99 q 79 190 79 160 l 79 200 l 233 200 l 233 197 q 244 162 233 178 q 272 137 256 146 q 308 125 289 128 q 346 122 326 122 q 383 125 364 122 q 418 135 401 128 q 447 158 435 143 q 458 192 458 174 q 444 233 458 214 q 410 262 429 251 q 369 279 390 272 q 326 293 347 286 q 283 308 304 300 q 242 326 263 315 q 203 349 222 336 q 168 376 185 361 q 138 408 151 390 q 114 447 124 426 q 99 488 104 467 q 93 532 93 510 q 103 592 93 563 q 131 647 113 622 q 174 688 149 671 q 228 716 200 706 q 288 730 257 726 q 349 733 318 733 q 410 730 379 733 q 469 716 440 726 q 523 688 497 706 q 567 646 549 671 q 595 592 586 621 q 604 532 604 563 l 604 522 l 450 522 l 450 525 q 440 559 450 543 q 416 584 431 575 q 384 597 401 593 q 349 600 367 600 q 315 597 332 600 q 282 586 297 594 q 257 563 267 578 q 247 531 247 549 q 262 490 247 508 q 296 461 276 472 q 337 443 315 450 q 380 430 358 436 q 422 415 401 424 q 463 397 443 407 q 502 374 483 386 q 538 347 521 361 q 568 315 554 332 q 592 277 582 297 q 607 235 601 257 q 613 190 613 213 q 602 129 613 160 q 572 74 592 99 q 526 33 553 50 q 469 6 499 15 q 409 -8 440 -4 q 346 -11 378 -11 m 329 800 l 244 867 l 418 1069 l 519 986 l 329 800 z "},"":{"ha":694,"x_min":68,"x_max":624,"o":"m 346 -11 q 274 -6 310 -11 q 206 16 239 0 q 147 56 174 32 q 102 112 119 81 q 76 178 85 143 q 68 250 68 214 l 68 263 l 222 263 l 222 257 q 230 206 222 231 q 254 160 238 181 q 295 131 271 140 q 346 122 319 122 q 396 131 371 122 q 438 160 421 140 q 462 204 454 179 q 469 254 469 229 q 456 321 469 289 q 418 377 442 353 q 365 418 394 401 q 304 451 335 435 q 245 485 274 467 q 192 528 217 504 q 146 578 167 551 q 111 637 125 606 q 90 701 97 668 q 82 768 82 735 q 90 839 82 804 q 113 905 97 874 q 155 962 129 936 q 212 1003 181 988 q 278 1026 243 1019 q 349 1032 314 1032 q 419 1026 383 1032 q 485 1003 454 1019 q 542 963 517 988 q 583 906 567 938 q 608 840 600 875 q 615 771 615 806 l 615 758 l 461 758 l 461 764 q 455 813 461 789 q 434 858 449 838 q 397 888 419 878 q 349 899 374 899 q 301 889 324 899 q 263 860 278 879 q 242 816 249 840 q 236 767 236 792 q 250 701 236 733 q 288 644 264 669 q 341 603 311 619 q 401 570 371 586 q 459 535 431 554 q 513 494 488 517 q 559 443 539 471 q 594 385 579 415 q 616 321 608 354 q 624 253 624 288 q 615 181 624 217 q 590 114 607 146 q 546 57 572 82 q 487 17 519 32 q 418 -5 454 1 q 346 -11 382 -11 m 217 1117 l 139 1169 l 267 1361 l 428 1361 l 513 1233 l 556 1169 l 478 1117 l 347 1268 l 217 1117 z "},"":{"ha":694,"x_min":79,"x_max":613,"o":"m 346 -11 q 283 -8 314 -11 q 222 6 251 -4 q 166 33 193 15 q 119 74 139 50 q 90 129 100 99 q 79 190 79 160 l 79 200 l 233 200 l 233 197 q 244 162 233 178 q 272 137 256 146 q 308 125 289 128 q 346 122 326 122 q 383 125 364 122 q 418 135 401 128 q 447 158 435 143 q 458 192 458 174 q 444 233 458 214 q 410 262 429 251 q 369 279 390 272 q 326 293 347 286 q 283 308 304 300 q 242 326 263 315 q 203 349 222 336 q 168 376 185 361 q 138 408 151 390 q 114 447 124 426 q 99 488 104 467 q 93 532 93 510 q 103 592 93 563 q 131 647 113 622 q 174 688 149 671 q 228 716 200 706 q 288 730 257 726 q 349 733 318 733 q 410 730 379 733 q 469 716 440 726 q 523 688 497 706 q 567 646 549 671 q 595 592 586 621 q 604 532 604 563 l 604 522 l 450 522 l 450 525 q 440 559 450 543 q 416 584 431 575 q 384 597 401 593 q 349 600 367 600 q 315 597 332 600 q 282 586 297 594 q 257 563 267 578 q 247 531 247 549 q 262 490 247 508 q 296 461 276 472 q 337 443 315 450 q 380 430 358 436 q 422 415 401 424 q 463 397 443 407 q 502 374 483 386 q 538 347 521 361 q 568 315 554 332 q 592 277 582 297 q 607 235 601 257 q 613 190 613 213 q 602 129 613 160 q 572 74 592 99 q 526 33 553 50 q 469 6 499 15 q 409 -8 440 -4 q 346 -11 378 -11 m 217 818 l 139 871 l 267 1063 l 428 1063 l 513 935 l 556 871 l 478 818 l 347 969 l 217 818 z "}}}
